<?xml version="1.0" standalone="no"?>
<!DOCTYPE svg PUBLIC "-//W3C//DTD SVG 20010904//EN"
 "http://www.w3.org/TR/2001/REC-SVG-20010904/DTD/svg10.dtd">
<svg version="1.0" xmlns="http://www.w3.org/2000/svg"
 width="690.000000pt" height="690.000000pt" viewBox="0 0 690.000000 690.000000"
 preserveAspectRatio="xMidYMid meet">
<metadata>
Created by potrace 1.11, written by Peter Selinger 2001-2013
</metadata>
<g transform="translate(0.000000,690.000000) scale(0.100000,-0.100000)"
fill="#000000" stroke="none">
<path d="M3600 6880 c0 -17 -7 -20 -40 -20 -28 0 -40 -4 -40 -14 0 -10 -22
-16 -80 -21 l-80 -7 0 -39 c0 -39 0 -39 40 -39 l40 0 0 40 0 40 40 0 40 0 0
-80 0 -80 -80 0 -80 0 0 -40 0 -40 -40 0 -40 0 0 -40 0 -40 -40 0 -40 0 0 80
0 80 40 0 c33 0 40 3 40 20 0 17 -7 20 -40 20 -33 0 -40 -3 -40 -20 0 -17 -7
-20 -40 -20 -39 0 -40 -1 -40 -34 l0 -34 -80 -7 -80 -7 0 -39 c0 -39 0 -39
-40 -39 l-40 0 0 -40 0 -40 40 0 40 0 0 -50 0 -50 -40 0 c-38 0 -40 -2 -40
-30 l0 -30 -80 0 -80 0 0 40 0 40 40 0 40 0 0 40 0 40 -40 0 -40 0 0 -40 0
-40 -80 0 -80 0 0 -40 0 -40 -40 0 -40 0 0 -40 0 -40 -80 0 -80 0 0 -40 0 -40
-40 0 -40 0 0 -40 0 -40 40 0 40 0 0 -40 0 -40 -40 0 c-36 0 -40 -2 -40 -25 0
-22 -4 -25 -40 -25 -29 0 -40 -4 -40 -15 0 -11 -11 -15 -40 -15 l-40 0 0 -40
0 -40 -40 0 -40 0 0 85 0 85 -40 0 -40 0 0 -45 0 -45 -40 0 -40 0 0 -40 0 -40
-80 0 -80 0 0 -40 c0 -33 -3 -40 -20 -40 -17 0 -20 -7 -20 -40 0 -33 3 -40 20
-40 17 0 20 -7 20 -40 l0 -40 -40 0 -40 0 0 60 0 60 -40 0 c-33 0 -40 -3 -40
-20 0 -17 -7 -20 -40 -20 l-40 0 0 -40 0 -40 -40 0 c-33 0 -40 -3 -40 -20 0
-17 -7 -20 -40 -20 -33 0 -40 -3 -40 -20 0 -17 -7 -20 -40 -20 l-40 0 0 -40 0
-40 -80 0 -80 0 0 -40 0 -40 -40 0 -40 0 0 -40 0 -40 40 0 40 0 0 40 0 40 80
0 80 0 0 -40 0 -40 -40 0 -40 0 0 -40 0 -40 -80 0 -80 0 0 -40 0 -40 -40 0
-40 0 0 80 0 80 -40 0 -40 0 0 -40 0 -40 -80 0 -80 0 0 -35 c0 -34 -1 -35 -40
-35 l-40 0 0 -45 0 -45 40 0 40 0 0 40 0 40 80 0 80 0 0 -40 0 -40 -40 0 -40
0 0 -40 0 -40 -80 0 -80 0 0 -40 0 -40 -80 0 -80 0 0 40 0 40 40 0 40 0 0 40
0 40 -40 0 -40 0 0 -40 0 -40 -40 0 -40 0 0 -40 0 -40 40 0 40 0 0 -40 0 -40
-40 0 -40 0 0 -40 0 -40 -70 0 -70 0 0 -39 0 -40 -47 -3 c-41 -3 -48 -6 -51
-25 -3 -19 -10 -23 -43 -23 l-39 0 0 -2265 0 -2265 3450 0 3450 0 0 3450 0
3450 -1570 0 -1570 0 0 -40 0 -40 -40 0 -40 0 0 40 0 40 -40 0 c-33 0 -40 -3
-40 -20z m20 -100 c0 -22 -4 -40 -10 -40 -5 0 -10 18 -10 40 0 22 5 40 10 40
6 0 10 -18 10 -40z m-500 -320 l0 -40 -80 0 -80 0 0 40 0 40 80 0 80 0 0 -40z
m-400 -240 l0 -40 -40 0 -40 0 0 40 0 40 40 0 40 0 0 -40z m-160 -80 l0 -40
-40 0 -40 0 0 -40 0 -40 -80 0 -80 0 0 40 0 40 80 0 80 0 0 40 0 40 40 0 40 0
0 -40z m-560 -400 l0 -40 -80 0 -80 0 0 -40 0 -40 -40 0 -40 0 0 40 0 40 40 0
40 0 0 40 0 40 80 0 80 0 0 -40z m3540 8 c-10 -26 -60 -205 -470 -1698 -166
-602 -331 -1201 -366 -1330 -36 -129 -117 -424 -181 -655 -63 -231 -132 -481
-152 -555 -21 -74 -69 -249 -107 -387 -38 -139 -71 -253 -74 -253 -3 0 -17 19
-31 43 -15 23 -191 303 -391 622 -201 319 -443 704 -538 855 -94 151 -173 276
-175 278 -4 4 -1582 569 -1868 668 -75 26 -137 50 -137 54 0 4 10 12 23 18 12
7 121 64 242 128 121 64 463 245 760 401 297 157 572 302 610 323 39 20 225
119 415 220 190 100 422 223 515 272 94 50 211 112 260 138 50 26 128 68 175
92 47 25 276 147 510 270 529 280 626 332 820 435 85 45 158 82 162 82 4 1 3
-9 -2 -21z m-3940 -248 l0 -40 -80 0 -80 0 0 -40 0 -40 -40 0 -40 0 0 -40 0
-40 -80 0 -80 0 0 40 0 40 40 0 40 0 0 40 0 40 80 0 80 0 0 40 0 40 80 0 80 0
0 -40z"/>
<path d="M2080 5980 l0 -40 40 0 40 0 0 40 0 40 -40 0 -40 0 0 -40z"/>
<path d="M160 4780 l0 -40 -80 0 -80 0 0 -80 0 -80 40 0 40 0 0 40 0 40 40 0
40 0 0 40 0 40 40 0 40 0 0 40 0 40 -40 0 -40 0 0 -40z"/>
</g>
</svg>
