<?xml version="1.0" standalone="no"?>
<!DOCTYPE svg PUBLIC "-//W3C//DTD SVG 20010904//EN"
 "http://www.w3.org/TR/2001/REC-SVG-20010904/DTD/svg10.dtd">
<svg version="1.0" xmlns="http://www.w3.org/2000/svg"
 width="736.000000pt" height="736.000000pt" viewBox="0 0 736.000000 736.000000"
 preserveAspectRatio="xMidYMid meet">
<metadata>
Created by potrace 1.11, written by Peter Selinger 2001-2013
</metadata>
<g transform="translate(0.000000,736.000000) scale(0.100000,-0.100000)"
fill="#000000" stroke="none">
<path d="M3469 7256 c-2 -2 -44 -6 -94 -10 -49 -3 -101 -8 -115 -10 -14 -2
-50 -7 -80 -11 -68 -8 -117 -15 -150 -21 -14 -3 -38 -7 -55 -10 -24 -5 -146
-31 -225 -49 -115 -26 -439 -136 -545 -185 -11 -5 -42 -19 -70 -31 -88 -39
-245 -119 -335 -172 -50 -29 -213 -130 -225 -139 -51 -39 -106 -78 -110 -78
-3 0 -13 -7 -22 -15 -10 -9 -58 -48 -108 -88 -129 -103 -146 -118 -285 -258
-135 -135 -171 -174 -240 -259 -25 -30 -49 -60 -55 -67 -42 -51 -124 -167
-186 -263 -64 -100 -64 -100 -126 -209 -26 -46 -48 -87 -48 -91 0 -5 -3 -12
-8 -16 -7 -7 -75 -147 -78 -162 -1 -4 -15 -36 -31 -72 -32 -71 -89 -222 -108
-285 -6 -22 -14 -47 -17 -55 -3 -8 -7 -20 -8 -26 -2 -6 -11 -38 -20 -70 -9
-33 -18 -66 -20 -74 -2 -8 -9 -37 -15 -65 -14 -59 -19 -82 -25 -115 -2 -14 -9
-49 -15 -78 -5 -29 -9 -56 -9 -60 1 -4 0 -9 -1 -12 -4 -12 -10 -49 -15 -95 -2
-27 -8 -81 -12 -120 -4 -38 -7 -173 -7 -300 0 -300 12 -426 64 -695 44 -231
129 -495 237 -740 59 -134 178 -353 244 -452 22 -31 39 -62 39 -67 0 -6 5 -11
10 -11 6 0 10 -6 10 -14 0 -8 4 -16 8 -18 5 -2 23 -25 42 -53 18 -27 36 -52
39 -55 4 -3 19 -23 36 -45 109 -147 337 -390 489 -520 32 -27 66 -57 75 -65
74 -67 382 -281 496 -345 92 -52 310 -161 365 -184 62 -26 115 -49 145 -62 79
-36 303 -106 495 -154 58 -15 181 -40 245 -50 11 -2 34 -6 50 -10 44 -9 102
-15 172 -18 35 -1 63 -4 63 -7 0 -22 663 -18 779 5 13 2 49 7 80 10 31 4 70
10 86 14 17 4 38 7 48 5 9 -1 17 2 17 7 0 6 4 8 9 4 9 -5 146 20 181 33 8 3
20 6 25 7 9 1 80 17 95 20 3 1 12 4 20 8 8 3 67 21 130 40 144 43 274 90 278
100 2 4 12 7 21 7 10 0 21 3 25 7 3 4 13 8 21 9 22 3 374 180 432 216 28 18
96 61 150 95 54 34 107 69 118 77 246 186 298 231 454 386 129 128 193 197
246 265 17 21 35 43 40 49 26 27 136 180 196 271 113 172 232 394 293 545 15
36 31 74 36 85 29 66 104 288 114 336 2 8 6 21 9 29 7 17 34 122 41 160 2 14
9 48 16 75 6 28 13 67 15 88 2 21 6 41 9 45 2 4 7 36 11 72 4 36 9 79 11 95
18 113 25 541 12 690 -12 131 -19 189 -24 205 -3 8 -7 33 -10 55 -4 33 -20
115 -30 160 -1 6 -5 26 -9 45 -3 19 -13 60 -21 90 -8 30 -17 66 -20 80 -9 41
-102 315 -130 383 -77 184 -180 388 -253 502 -14 22 -26 42 -26 45 0 3 -11 21
-25 40 -14 19 -30 42 -35 51 -34 55 -94 138 -117 164 -16 17 -28 33 -28 37 0
4 -6 13 -13 20 -6 7 -32 38 -57 68 -138 169 -343 372 -521 515 -41 33 -75 63
-77 68 -2 4 -10 7 -17 7 -7 0 -15 4 -17 8 -1 4 -32 28 -68 52 -36 25 -67 47
-70 50 -17 19 -409 249 -430 252 -3 1 -43 19 -90 40 -47 22 -98 45 -115 53
-37 17 -167 66 -180 69 -5 1 -14 4 -20 7 -13 8 -108 39 -115 38 -3 0 -23 6
-45 14 -36 14 -83 28 -110 33 -5 1 -13 3 -17 4 -5 1 -12 4 -18 5 -5 1 -11 3
-12 5 -2 1 -10 3 -18 5 -38 9 -68 16 -110 25 -25 6 -54 12 -66 15 -11 3 -36 7
-55 9 -19 3 -34 5 -34 6 0 3 -72 15 -160 25 -16 2 -52 7 -80 10 -27 4 -72 9
-100 11 -61 6 -531 15 -536 10z"/>
</g>
</svg>
