<?xml version="1.0" encoding="utf-8"?>
<!-- Generator: Adobe Illustrator 23.0.2, SVG Export Plug-In . SVG Version: 6.00 Build 0)  -->
<svg version="1.1" id="Layer_1" xmlns="http://www.w3.org/2000/svg" xmlns:xlink="http://www.w3.org/1999/xlink" x="0px" y="0px"
	 viewBox="0 0 272 96" style="enable-background:new 0 0 272 96;" xml:space="preserve">
<style type="text/css">
	.st0{fill:none;}
	.st1{fill:#FFDE39;}
	.st2{fill:#044B84;}
</style>
<rect x="0.1" y="4.7" class="st0" width="272" height="87.3"/>
<g>
	<path class="st1" d="M4.5,88.6c0,0,150.6-33.4,262.1-9.9l0.4-1.1c0,0-97.4-25.9-260.6,5.7"/>
	<path class="st2" d="M76.6,23.1v5.5c0.6-1.1,1.3-2.6,3.2-4c2.1-1.6,5-2.5,8-2.5c1.5,0,3,0.2,4.5,0.7c4.7,1.6,6,4.9,6.5,6.3
		c3.6-6.1,9.4-7,12.4-7c3.8,0,7.1,1.3,9.3,3.2c3.9,3.5,4.1,7.3,4.1,16.8V64H113V44.7c0-6.6-0.2-7.9-1.3-9.6
		c-1.3-1.9-3.1-2.3-4.8-2.3c-3.2,0-4.7,2-5,2.4c-1.3,2-1.3,5.4-1.3,8.7V64H89V43.4c0-4.4,0-6.4-1.2-8.2c-0.9-1.3-2.6-2.5-4.7-2.5
		c-1,0-2.1,0.2-3,0.7c-3.4,1.7-3.5,4.7-3.5,12.5V64H65.1V23.1"/>
	<polyline class="st2" points="170.6,23.1 182.4,23.1 170.6,64 159.8,64 153,36.4 146.2,64 135.2,64 123.4,23.1 135.2,23.1 
		141.5,48.7 147.8,23.1 158.1,23.1 164.4,48.7 	"/>
	<path class="st2" d="M207.4,64h11.4V23h-11.1v5.3c-2.1-4-5.6-6.2-10.1-6.2c-7.7,0-17.8,6-17.8,22.1c0,12.8,7.3,20.7,16.9,20.7
		c6.6,0,9.3-3.5,10.7-5.4 M206.8,43.1c0,3.7-0.6,7.3-3,10c-2.1,2.1-4.3,2.3-5,2.3c-2.3,0-4.9-1.3-6.5-4.8c-0.9-2-1.3-4.5-1.3-7
		c0-3.2,0.5-6.4,2.4-9c1.4-1.8,3.6-3,5.8-3c1.7,0,3.5,0.8,4.6,2C205.3,35,206.8,37.8,206.8,43.1z"/>
	<path class="st2" d="M245.5,23.1h11.8l-13,40.6c-0.9,2.8-2.4,7.5-4.7,9.8c-2.1,2.1-4.6,3-14,3c-1.3,0-1.9-0.1-3.1-0.2v-9.1h3.1
		c1.1,0,3.7,0,4.9-1c0.9-0.7,1.7-2.5,1.7-4.1c0-0.9-0.5-2.5-0.9-3.5l-12.6-35.5h12.6l7.4,27.6"/>
	<path class="st2" d="M31.8,8.1L12.4,64h14.3l3.6-11.9h18.3L52.3,64h14.4L46.4,8.1 M39.2,20.4l6.2,21.5H33.3L39.2,20.4z"/>
</g>
</svg>
