<?xml version="1.0" encoding="utf-8"?>
<!-- Generator: Adobe Illustrator 23.0.2, SVG Export Plug-In . SVG Version: 6.00 Build 0)  -->
<svg version="1.1" id="Layer_1" xmlns="http://www.w3.org/2000/svg" xmlns:xlink="http://www.w3.org/1999/xlink" x="0px" y="0px"
	 viewBox="0 0 192 80" style="enable-background:new 0 0 192 80;" xml:space="preserve">
<style type="text/css">
	.st0{fill-rule:evenodd;clip-rule:evenodd;fill:#3058D8;}
	.st1{fill-rule:evenodd;clip-rule:evenodd;fill:#FFFFFF;}
</style>
<g>
	<polygon class="st0" points="157.2,36.5 157.2,7.3 182,29 182,8.6 186,8.6 186,37.6 161.1,16.3 161.1,36.5 	"/>
	<polygon class="st0" points="78.3,8.6 68.1,29.3 58.2,8.6 53.5,8.6 68.1,37.6 82.8,8.6 	"/>
	<path class="st0" d="M128.5,12.5c3.3,2.8,4.9,6.4,4.9,10.4s-1.6,7.4-4.9,10.3c-3.2,3-7.1,4.4-11.6,4.4c-4.6,0-8.4-1.4-11.5-4.4
		c-3.3-2.9-4.9-6.3-4.9-10.3s1.6-7.7,4.9-10.4c3.1-2.9,6.9-4.3,11.5-4.3C121.4,8.3,125.3,9.6,128.5,12.5L128.5,12.5z M116.9,11.6
		c-3.3,0-6.3,1.1-8.8,3.4c-2.4,2.1-3.7,4.8-3.7,8c0,3,1.3,5.6,3.7,8c2.5,2.3,5.4,3.4,8.8,3.4c3.4,0,6.4-1.1,8.7-3.4
		c2.4-2.3,3.7-5,3.7-8c0-3.2-1.3-5.9-3.7-8C123.3,12.6,120.4,11.6,116.9,11.6L116.9,11.6z"/>
	<path class="st0" d="M37.1,36.6L21.9,7.3L7,36.6h4.4l3.1-6h14.7l3.1,6H37.1L37.1,36.6z M16.1,27.2l5.9-12l5.8,12H16.1L16.1,27.2z"
		/>
	<path class="st1" d="M14.1,53v2.5h-0.6v1.1h0.6v5.1h1.3v-5.1h1v-1.1h-1V53H14.1L14.1,53z M18.8,49.9v11.7h1.3v-2.8
		c0-1,0-1.5,0.2-1.8c0.1-0.5,0.5-0.8,1.1-0.8c0.5,0,1,0.2,1.3,0.4c0.2,0.1,0.2,0.6,0.2,1.4v3.5H24v-3.7c0-1.7-0.6-2.7-2.2-2.7
		c-0.9,0-1.5,0.4-1.8,1v-6.3L18.8,49.9L18.8,49.9z M31,56.7c0.2,0.1,0.3,0.5,0.5,1.1h-3.5c0.1-0.5,0.3-1,0.6-1.1
		c0.2-0.4,0.5-0.5,1-0.5C30.3,56.2,30.7,56.3,31,56.7L31,56.7z M27.7,61c0.5,0.5,1.3,0.8,2.1,0.8c0.7,0,1.3-0.2,1.8-0.3
		c0.5-0.4,0.8-0.8,1.3-1.3l-1-0.8c-0.5,1-1,1.3-2,1.3c-0.5,0-0.8-0.2-1.1-0.5c-0.4-0.5-0.5-1.1-0.5-1.6h4.7v-0.2
		c0-0.8-0.2-1.7-0.7-2.2c-0.5-0.5-1.4-1-2.3-1c-0.8,0-1.7,0.4-2.2,1s-0.7,1.4-0.7,2.5C26.9,59.5,27.2,60.4,27.7,61L27.7,61z"/>
	<path class="st1" d="M44.4,56.3c0.7,0,1.3,0.4,1.8,1v-1.6c-0.5-0.2-1-0.4-1.8-0.4c-0.8,0-1.7,0.4-2.2,1c-0.7,0.5-1,1.4-1,2.5
		c0,0.8,0.3,1.6,1,2.3c0.5,0.5,1.4,0.8,2.2,0.8l1.8-0.3v-1.6c-0.5,0.5-1,0.8-1.8,0.8c-0.5,0-1-0.2-1.6-0.8c-0.3-0.3-0.5-0.8-0.5-1.6
		c0-0.5,0.2-1.1,0.5-1.4C43.4,56.5,43.9,56.3,44.4,56.3L44.4,56.3z M53.3,57c0.5,0.3,0.7,0.8,0.7,1.4c0,0.5-0.2,1.1-0.7,1.6
		c-0.3,0.5-0.8,0.8-1.6,0.8c-0.5,0-1-0.2-1.4-0.8c-0.5-0.5-0.7-1.1-0.7-1.6c0-0.5,0.2-1.1,0.7-1.4c0.3-0.5,0.8-0.8,1.4-0.8
		C52.5,56.3,53,56.5,53.3,57L53.3,57z M49.5,61c0.6,0.5,1.4,0.8,2.2,0.8c0.9,0,1.8-0.3,2.5-0.8c0.5-0.8,0.8-1.6,0.8-2.6
		c0-0.8-0.3-1.7-0.8-2.2c-0.7-0.5-1.6-1-2.5-1c-0.8,0-1.6,0.4-2.2,1c-0.5,0.5-0.9,1.4-0.9,2.2C48.6,59.4,49,60.2,49.5,61L49.5,61z
		 M59,55.4h-1v6.2h1v-3c0-1.6,0.5-2.3,1.5-2.3c0.5,0,0.8,0.2,1,0.8c0.1,0.2,0.1,0.8,0.1,1.3v3.3h1.3v-3l0.2-1.6
		c0.1-0.5,0.5-0.8,1-0.8c0.8,0,1.2,0.5,1.2,1.8v3.5h1.3v-3.7c0-1.7-0.7-2.7-2.1-2.7l-1,0.2l-0.8,0.8c-0.5-0.6-1-1.1-1.8-1.1
		c-0.7,0-1.3,0.4-1.8,1L59,55.4L59,55.4z M69.7,55.4v9.8h1.3v-4.7c0.5,1,1.2,1.3,2.1,1.3c0.8,0,1.7-0.3,2.2-1.1
		c0.5-0.5,0.7-1.4,0.7-2.3c0-0.8-0.2-1.7-0.7-2.2c-0.5-0.5-1.2-1-2.1-1c-0.8,0-1.7,0.4-2.2,1.1v-0.8H69.7L69.7,55.4z M70.9,58.4
		l0.5-1.6c0.3-0.3,0.8-0.5,1.4-0.5c0.5,0,1,0.2,1.4,0.5c0.4,0.5,0.5,1.1,0.5,1.6c0,0.8-0.1,1.3-0.5,1.6c-0.3,0.5-0.8,0.8-1.4,0.8
		c-0.5,0-1.1-0.2-1.4-0.8C71.1,59.7,70.9,59.1,70.9,58.4L70.9,58.4z M83,56.8c0.3,0.5,0.5,1.1,0.5,1.6c0,0.8-0.2,1.3-0.5,1.6
		c-0.5,0.5-1,0.8-1.6,0.8c-0.5,0-1-0.2-1.5-0.8c-0.3-0.3-0.5-0.8-0.5-1.6l0.5-1.6c0.4-0.3,0.9-0.5,1.5-0.5S82.4,56.5,83,56.8
		L83,56.8z M78.9,60.7c0.5,0.8,1.5,1.1,2.3,1.1s1.6-0.3,2.1-1.3v1.1h1.3v-6.2h-1.3v0.8c-0.5-0.6-1.3-1.1-2.1-1.1s-1.6,0.4-2.1,1
		s-0.8,1.4-0.8,2.2C78.3,59.4,78.4,60.2,78.9,60.7L78.9,60.7z M87.8,55.4v6.2H89v-2.8c0-1,0-1.5,0.2-1.8c0.1-0.5,0.5-0.8,1.2-0.8
		c0.5,0,1,0.2,1.3,0.4c0.2,0.1,0.2,0.6,0.2,1.4v3.5H93v-3.7c0-1.7-0.6-2.7-2.2-2.7c-0.9,0-1.5,0.4-1.8,1v-0.8L87.8,55.4L87.8,55.4z
		 M96.7,55.4h-1.4l2.8,5.1l-2.5,4.7h1.5l5-9.8h-1.4l-2,3.9L96.7,55.4L96.7,55.4z"/>
	<path class="st1" d="M113.6,49.9l-0.7-0.1c-1.4,0-2.1,0.8-2.1,2.5v3.2h-0.5v1.1h0.5v5.1h1.3v-5.1h1.6v-1.1H112v-2.9l0.2-1.1
		c0.1-0.3,0.3-0.5,0.6-0.5l0.7,0.2V49.9L113.6,49.9z M120.2,57c0.5,0.3,0.7,0.8,0.7,1.4c0,0.5-0.2,1.1-0.7,1.6
		c-0.3,0.5-0.8,0.8-1.6,0.8c-0.5,0-1.1-0.2-1.4-0.8c-0.5-0.5-0.7-1.1-0.7-1.6c0-0.5,0.2-1.1,0.7-1.4c0.3-0.5,0.8-0.8,1.4-0.8
		C119.3,56.3,119.8,56.5,120.2,57L120.2,57z M116.4,61c0.6,0.5,1.4,0.8,2.2,0.8c0.9,0,1.8-0.3,2.5-0.8c0.5-0.8,0.8-1.6,0.8-2.6
		c0-0.8-0.3-1.7-0.8-2.2c-0.7-0.5-1.6-1-2.5-1c-0.8,0-1.6,0.4-2.2,1c-0.5,0.5-0.9,1.4-0.9,2.2C115.5,59.4,115.9,60.2,116.4,61
		L116.4,61z M125.9,55.4h-1.2v6.2h1.2v-3c0-1.6,0.5-2.3,1.5-2.3l0.6,0.2l0.7-1.1l-1-0.2c-0.8,0-1.4,0.4-1.8,1.1L125.9,55.4
		L125.9,55.4z"/>
	<path class="st1" d="M137.6,55.4h-1.4l3.1,6.4l1.7-4l2,4l3.1-6.4h-1.5l-1.7,3.9l-2-4.3l-1.7,4.3L137.6,55.4L137.6,55.4z M152.6,57
		c0.5,0.3,0.7,0.8,0.7,1.4c0,0.5-0.2,1.1-0.7,1.6c-0.3,0.5-0.8,0.8-1.6,0.8c-0.5,0-1-0.2-1.4-0.8c-0.5-0.5-0.7-1.1-0.7-1.6
		c0-0.5,0.2-1.1,0.7-1.4c0.3-0.5,0.8-0.8,1.4-0.8C151.7,56.3,152.3,56.5,152.6,57L152.6,57z M148.8,61c0.6,0.5,1.4,0.8,2.2,0.8
		c0.9,0,1.8-0.3,2.5-0.8c0.5-0.8,0.8-1.6,0.8-2.6c0-0.8-0.3-1.7-0.8-2.2c-0.7-0.5-1.6-1-2.5-1c-0.8,0-1.6,0.4-2.2,1
		c-0.5,0.5-0.9,1.4-0.9,2.2C147.9,59.4,148.3,60.2,148.8,61L148.8,61z M158.3,55.4h-1v6.2h1v-3c0-1.6,0.5-2.3,1.5-2.3
		c0.5,0,0.8,0.2,1,0.8c0.1,0.2,0.1,0.8,0.1,1.3v3.3h1.3v-3l0.2-1.6c0.1-0.5,0.5-0.8,1-0.8c0.8,0,1.1,0.5,1.1,1.8v3.5h1.3v-3.7
		c0-1.7-0.7-2.7-2.1-2.7l-1,0.2l-0.8,0.8c-0.5-0.6-1-1.1-1.8-1.1c-0.7,0-1.3,0.4-1.8,1L158.3,55.4L158.3,55.4z M172.6,56.7
		c0.2,0.1,0.3,0.5,0.5,1.1h-3.4c0.1-0.5,0.3-1,0.6-1.1c0.2-0.4,0.5-0.5,1-0.5C171.9,56.2,172.3,56.3,172.6,56.7L172.6,56.7z
		 M169.3,61c0.5,0.5,1.3,0.8,2.1,0.8c0.7,0,1.3-0.2,1.8-0.3c0.5-0.4,0.8-0.8,1.3-1.3l-1.1-0.8c-0.5,1-1,1.3-2,1.3
		c-0.5,0-0.8-0.2-1.1-0.5c-0.4-0.5-0.5-1.1-0.5-1.6h4.7v-0.2c0-0.8-0.2-1.7-0.7-2.2c-0.5-0.5-1.4-1-2.3-1c-0.8,0-1.7,0.4-2.2,1
		s-0.7,1.4-0.7,2.5C168.4,59.5,168.8,60.4,169.3,61L169.3,61z M177.1,55.4v6.2h1.3v-2.8c0-1,0-1.5,0.2-1.8c0.1-0.5,0.5-0.8,1.1-0.8
		c0.5,0,1,0.2,1.3,0.4c0.2,0.1,0.2,0.6,0.2,1.4v3.5h1.1v-3.7c0-1.7-0.6-2.7-2.2-2.7c-0.9,0-1.5,0.4-1.8,1v-0.8L177.1,55.4
		L177.1,55.4z"/>
</g>
</svg>
