<?xml version="1.0" encoding="utf-8"?>
<!-- Generator: Adobe Illustrator 23.0.2, SVG Export Plug-In . SVG Version: 6.00 Build 0)  -->
<svg version="1.1" id="Layer_1" xmlns="http://www.w3.org/2000/svg" xmlns:xlink="http://www.w3.org/1999/xlink" x="0px" y="0px"
	 viewBox="0 0 201 65" style="enable-background:new 0 0 201 65;" xml:space="preserve">
<style type="text/css">
	.st0{fill-rule:evenodd;clip-rule:evenodd;fill:#76DB26;}
	.st1{fill:#76DB26;}
</style>
<g>
	<path class="st0" d="M39.5,27.3c0,0-0.1-17.1-0.1-20.1s-2.2-3.4-3.7-3.5c-1.8,0-1.6-0.8-0.2-0.8l13.8,0c0,0,5.7-0.2,8.6,2.2
		c2.8,2.5,1.8,5.9,0.4,7.2c-1.4,1.3-4.3,2.2-4.3,2.2s3.9,0.5,5.7,2.2s2.6,4.7,0.6,7.5c-2.4,3.5-14.1,3.3-14.1,3.3L39.5,27.3
		L39.5,27.3z M43.7,13.7l0-7.6c0,0-0.1-1.4,1.5-1.5c1.7-0.1,3.2-0.1,5.3,0.2s4,1.7,4.2,3.3s0,3.7-1.8,4.6c-1.9,0.9-3.3,1-5.5,1.1
		C45.1,13.8,43.7,13.7,43.7,13.7L43.7,13.7z M43.7,15.2l0,8.9c0,0-0.2,1.7,1.8,1.8c1.9,0.1,3.8,0.1,6.1-0.2s4.7-2,4.8-3.8
		c0.2-1.8-0.1-3.9-2.3-5.2c-2.2-1.3-3.7-1.4-6.3-1.5C45.3,15,43.7,15.2,43.7,15.2L43.7,15.2z"/>
	<path class="st0" d="M3.3,10.4c1-1.9,2.8-3.3,4.9-3.9s3.5-1.1,6.8-1.1s5.6,0.5,7.7,1.4s4.4,2.8,5,5.8c0.7,2.9,0.5,4.7,0.3,7
		c-0.3,2.3-1.4,5-4.4,6.5s-7.6,2.1-12,1.5c-4.4-0.6-8.2-2.5-9-6.8C1.9,17.1,1.5,13.7,3.3,10.4L3.3,10.4z M7.7,11
		c0.6-1.7,1.7-2.9,3-3.5s2.2-1,4.3-1s3.5,0.5,4.9,1.3c1.4,0.8,2.7,2.5,3.2,5.2c0.4,2.6,0.4,4.2,0.1,6.3c-0.2,2.1-0.9,4.5-2.8,5.9
		c-1.9,1.4-4.8,1.9-7.5,1.3s-5.2-2.3-5.7-6.1C6.8,17.1,6.6,14,7.7,11L7.7,11z"/>
	<path class="st0" d="M64.4,14.6c1.1-2.1,2.2-3.2,3.9-3.7S71,10,73.6,10s4.2,0.6,5.9,1.3c1.7,0.7,3.6,2.2,4.1,4.6s0.6,3.5,0.3,5.4
		s-1.1,3.9-3.5,5.2c-2.4,1.2-5.8,1.6-9.3,1.1c-3.5-0.5-6.7-2.8-7.3-6.1C63.3,18.6,63.3,16.6,64.4,14.6L64.4,14.6z M68.2,14.9
		c0.5-1.2,1.3-2.2,2.3-2.6s1.7-0.7,3.2-0.7s2.6,0.3,3.7,0.9c1,0.6,2.1,1.9,2.4,3.8c0.3,1.9,0.3,3.1,0.1,4.6s-0.7,3.3-2.1,4.3
		c-1.4,1-3.6,1.4-5.7,1c-2.1-0.4-3.9-1.7-4.3-4.5C67.5,19.4,67.3,17.1,68.2,14.9L68.2,14.9z"/>
	<path class="st0" d="M92.4,5c0.1,3.1,0.1,4.6,0.1,5.4h5.9v1.2h-5.8c0,0.8,0,2.2-0.1,12c0,0-0.2,2.4,2.8,2.6c3,0.3,3.3,0,3.3,0
		l0.1,1.3c0,0-4.8,0.2-6.3,0s-3.3-0.8-3.5-3.8c-0.1-1.9-0.2-8-0.2-12.2h-3.9v-1.2h3.9c0-1.8,0-3,0-3L92.4,5L92.4,5z"/>
	<path class="st0" d="M104.7,2.5c1.6,0,2.9,0.9,2.9,2s-1.3,2-2.9,2s-2.9-0.9-2.9-2S103.1,2.5,104.7,2.5L104.7,2.5z M103,27.3h3.7
		V10.1L99.3,11l0.1,0.6c2,0.1,3.4,0.6,3.6,2.3V27.3L103,27.3z"/>
	<path class="st0" d="M167.7,2.5c1.6,0,2.9,0.9,2.9,2s-1.3,2-2.9,2s-2.9-0.9-2.9-2S166.1,2.5,167.7,2.5L167.7,2.5z M166,27.3h3.7
		V10.1l-7.4,0.8l0.1,0.6c2,0.1,3.4,0.6,3.6,2.3V27.3L166,27.3z"/>
	<path class="st0" d="M173.3,14.6c1.1-2.1,2.2-3.2,3.9-3.7s2.8-0.9,5.3-0.9s4.2,0.6,5.9,1.3c1.7,0.7,3.6,2.2,4.1,4.6
		s0.6,3.5,0.3,5.4c-0.2,1.8-1.1,3.9-3.5,5.2c-2.4,1.2-5.8,1.6-9.3,1.1c-3.5-0.5-6.7-2.8-7.3-6.1C172.2,18.6,172.2,16.6,173.3,14.6
		L173.3,14.6z M177.1,14.9c0.5-1.2,1.3-2.2,2.3-2.6c1-0.4,1.6-0.7,3.2-0.7c1.5,0,2.6,0.3,3.6,0.9c1,0.6,2.1,1.9,2.4,3.8
		c0.3,1.9,0.3,3.1,0.1,4.6s-0.7,3.3-2.1,4.3c-1.4,1-3.6,1.4-5.6,1c-2.1-0.4-3.9-1.7-4.3-4.5C176.4,19.4,176.3,17.1,177.1,14.9
		L177.1,14.9z"/>
	<path class="st0" d="M123.2,14.7c0,0,0.1-3.1-4-3.1c-4.1,0-5.1,2.7-5.3,4.4c-0.2,1.7,0.1,5.1,1.8,7s3.5,3.2,6.7,3.3
		c3.2,0.1,4.4,0.1,4.4,0.1v0.8c0,0-4.1,1.1-8.5,0.4s-6.9-2.7-8.2-6c-1.3-3.3-0.3-6.8,1-8.2c1.3-1.4,2.4-2.7,6.1-3.1s6.1-0.1,8.5,1.3
		c2.4,1.4,2.2,3.2,2.2,3.2L123.2,14.7L123.2,14.7z"/>
	<path class="st0" d="M132.8,14.6l-4.3,0.1c0,0,0.3-3.4,4.6-4.2c4.3-0.8,7.8-0.3,9.3,0.6c1.5,0.8,2.5,2.2,2.5,5s-0.1,11.4-0.1,11.4
		l-3.5,0l-0.1-2c0,0,0-0.3-0.9,0.5s-3.8,2-5.7,2s-5-0.4-6-3c-1-2.5,0.3-5,1.8-5.8c1.5-0.9,3.5-1.4,6.6-1.7c3-0.3,4.3-0.2,4.3-0.2
		s0.1-2.8-0.1-3.5c-0.2-0.7-0.8-1.9-2.5-2.1c-1.6-0.3-3.1-0.1-3.1,0.1C135.5,11.7,133.1,11.7,132.8,14.6L132.8,14.6z M141.1,18.5
		c0,0,0.5,2.3-0.2,4.2s-2.1,3.1-4,3.4c-1.9,0.2-4-0.5-4.3-2.4c-0.3-1.9,0.3-3.8,2.3-4.4c1.6-0.5,2.6-0.6,3.5-0.7
		C139.3,18.5,141.1,18.5,141.1,18.5L141.1,18.5z"/>
	<path class="st0" d="M136.7,7.6l0.7-4.2c0,0,0.2-1.5,1.9-1.5c1.7,0,2.3,0.3,2.4,1s-1.3,1.9-1.3,1.9L136.7,7.6L136.7,7.6z"/>
	<path class="st0" d="M150.6,27.3h3.7v-8.6c0.2-1.5,0.8-3.6,2-4.6c1.9-1.5,3.6-1.2,3.6-1.2l1.7,0.2l0-2.9c0,0-2.3-0.3-4.5,0.9
		c-1.4,0.8-2.3,2.4-2.8,3.5v-4.5l-7.4,0.8l0.1,0.6c2,0.1,3.4,0.6,3.6,2.3V27.3L150.6,27.3z"/>
	<path class="st0" d="M196.7,6c1.8,0,3.3,1.4,3.3,3.1s-1.5,3.1-3.3,3.1c-1.8,0-3.3-1.4-3.3-3.1C193.4,7.4,194.9,6,196.7,6L196.7,6z
		 M198.2,10.9h-0.9l-0.9-1.6v1.6h-0.8V7.5h1.1c0.4,0,0.8,0.1,1,0.2s0.3,0.4,0.3,0.7c0,0.2-0.1,0.4-0.2,0.6s-0.3,0.3-0.6,0.3
		L198.2,10.9L198.2,10.9z M196.4,8.9h0.1c0.3,0,0.5,0,0.6-0.1c0.1-0.1,0.1-0.2,0.1-0.3c0-0.2-0.1-0.3-0.2-0.4
		C197,8.1,196.8,8,196.5,8h-0.1L196.4,8.9L196.4,8.9z M196.7,6.6c1.5,0,2.7,1.2,2.7,2.6c0,1.4-1.2,2.6-2.7,2.6s-2.7-1.2-2.7-2.6
		C194,7.8,195.2,6.6,196.7,6.6L196.7,6.6z"/>
	<path class="st0" d="M4,34.6c-0.3,0.1,21.9,6,73.8,0c52-6,90-4.1,100.6-2.4s14.9,3.5,14.9,3.5s2.3,0.8,0.4,1.8s-3.2,0.5-4.4,0.3
		c-1.2-0.2-4.3-1.1-6.4-1.5c-2.1-0.4-11.3-2.2-17.9-2.8c-6.5-0.6-20.9-1.6-43.8-0.5s-55.5,4.5-72.7,4.9C11.1,38.8,4.4,34.5,4,34.6
		L4,34.6z"/>
	<path class="st1" d="M6.7,59H8l3-6.5H9.7l-2.3,5.2l-2.6-5.2H3.4L6.7,59L6.7,59z M15.6,59.2c2.5,0,3.7-1.2,3.7-3.4
		c0-2.1-1.2-3.5-3.7-3.5S12,53.8,12,55.8C12,58,13.1,59.2,15.6,59.2L15.6,59.2z M13.5,55.9c0-1.4,0.3-3,2.1-3c1.8,0,2.2,1.5,2.2,3
		c0,1.3-0.4,2.8-2.2,2.8C13.8,58.7,13.5,57.2,13.5,55.9L13.5,55.9z M27,58.4c-0.5,0.1-0.8,0.2-1.4,0.2c-2.5,0-3.2-1.8-3.2-3.2
		c0-1.1,0.4-2.4,1.9-2.4c1.5,0,1.5,1.1,1.5,1.6h1.5c0-1.2-0.8-2.2-2.9-2.2c-2.1,0-3.5,1.1-3.5,3.2c0,2,1.1,3.6,4.2,3.6
		c0.8,0,1.3-0.1,1.9-0.2L27,58.4L27,58.4z M29.6,51.4h1.1l1.2-1.1l1.1,1.1h1.1l-1.6-1.8h-1.3L29.6,51.4L29.6,51.4z M34.8,58.3
		c-0.5,0.1-0.8,0.2-1.5,0.2c-2.6,0-3.3-2.1-3.3-3.5h5c0-0.5,0-2.6-3-2.6c-2.5,0-3.4,1.4-3.4,3.2c0,2.4,1.7,3.6,4.2,3.6
		c1,0,1.4-0.1,2.1-0.3L34.8,58.3L34.8,58.3z M30,54.4c0-0.4,0.3-1.5,1.8-1.5c1.5,0,1.7,0.9,1.7,1.5H30L30,54.4z M41.7,62H43v-4.1h0
		c0.2,0.4,0.7,1.3,2.3,1.3c2.2,0,3.1-1.5,3.1-3.3c0-2.1-0.9-3.5-3-3.5c-1.4,0-2.2,0.9-2.3,1.4h0v-1.3h-1.3V62L41.7,62z M43,55.7
		c0-1.3,0.9-2.7,2-2.7c1.2,0,1.8,1.2,1.8,2.8c0,1.2-0.4,2.7-1.8,2.7C43.5,58.5,43,56.7,43,55.7L43,55.7z M53.6,59.2
		c2.5,0,3.7-1.2,3.7-3.4c0-2.1-1.2-3.5-3.7-3.5S50,53.8,50,55.8C50,58,51.1,59.2,53.6,59.2L53.6,59.2z M51.5,55.9c0-1.4,0.3-3,2.1-3
		c1.8,0,2.2,1.5,2.2,3c0,1.3-0.4,2.8-2.2,2.8C51.8,58.7,51.5,57.2,51.5,55.9L51.5,55.9z M64.3,59h1.3v-9.5h-1.3v4.1h0
		c-0.2-0.4-0.7-1.3-2.3-1.3c-2.1,0-3,1.6-3,3.4c0,1.8,0.6,3.4,2.9,3.4c1.6,0,2.3-1,2.5-1.4h0L64.3,59L64.3,59z M60.5,55.9
		c0-1.4,0.4-2.8,1.8-2.8c1.6,0,2.1,1.9,2.1,2.6c0,1.6-0.9,2.9-2.2,2.9C60.8,58.5,60.5,57.1,60.5,55.9L60.5,55.9z M74.2,58.3
		c-0.5,0.1-0.8,0.2-1.6,0.2c-2.6,0-3.3-2.1-3.3-3.5h5c0-0.5,0-2.6-3-2.6c-2.5,0-3.4,1.4-3.4,3.2c0,2.4,1.7,3.6,4.2,3.6
		c1,0,1.4-0.1,2.1-0.3L74.2,58.3L74.2,58.3z M69.4,54.4c0-0.4,0.3-1.5,1.8-1.5s1.7,0.9,1.7,1.5H69.4L69.4,54.4z M85.1,52.6
		c-0.3-0.1-1.1-0.2-2-0.2c-1.9,0-2.9,0.7-2.9,1.8c0,1.1,1.2,1.5,2.3,1.9c1,0.5,1.8,0.7,1.8,1.4c0,0.7-0.8,1.1-1.8,1.1
		c-1.1,0-2.2-0.5-2.4-0.6v1c0.4,0.1,1.1,0.3,2.3,0.3c2.2,0,3.2-0.9,3.2-1.9c0-0.9-0.6-1.4-1.5-1.8c-1.5-0.7-2.7-0.9-2.7-1.7
		c0-0.5,0.7-0.8,1.5-0.8c1,0,1.9,0.4,2.2,0.5V52.6L85.1,52.6z M93.1,58.3c-0.5,0.1-0.8,0.2-1.6,0.2c-2.6,0-3.3-2.1-3.3-3.5h5
		c0-0.5,0-2.6-3-2.6c-2.5,0-3.4,1.4-3.4,3.2c0,2.4,1.7,3.6,4.2,3.6c1,0,1.4-0.1,2.1-0.3L93.1,58.3L93.1,58.3z M88.3,54.4
		c0-0.4,0.3-1.5,1.8-1.5s1.7,0.9,1.7,1.5H88.3L88.3,54.4z M95.4,59h1.3V56c0-1.2,0.5-2.4,2.4-2.4h0.4v-1.2c-1.4,0-2.3,1-2.7,1.7h0
		v-1.5h-1.3V59L95.4,59z M109,59.2c2.5,0,3.7-1.2,3.7-3.4c0-2.1-1.2-3.5-3.7-3.5s-3.6,1.4-3.6,3.5C105.4,58,106.4,59.2,109,59.2
		L109,59.2z M106.8,55.9c0-1.4,0.3-3,2.1-3c1.8,0,2.2,1.5,2.2,3c0,1.3-0.4,2.8-2.2,2.8C107.2,58.7,106.8,57.2,106.8,55.9L106.8,55.9
		z M124.3,62h1.3v-9.5h-1.3v1.3h0c-0.2-0.5-1-1.4-2.4-1.4c-2,0-3,1.4-3,3.5c0,1.8,0.9,3.3,3.1,3.3c1.6,0,2.1-0.9,2.3-1.3h0L124.3,62
		L124.3,62z M120.4,55.8c0-1.6,0.6-2.8,1.8-2.8c1.2,0,2.1,1.4,2.1,2.7c0,1-0.5,2.8-2.1,2.8C120.8,58.5,120.4,57.1,120.4,55.8
		L120.4,55.8z M133.5,59h1.3v-6.5h-1.3v2.8c0,1.3-0.7,3-2.2,3c-1.1,0-1.5-0.9-1.5-1.6v-4.2h-1.3v4.7c0,0.8,0.6,2,2,2
		c1.7,0,2.2-0.4,3.1-1.8h0L133.5,59L133.5,59z M143.4,58.3c-0.5,0.1-0.8,0.2-1.6,0.2c-2.6,0-3.3-2.1-3.3-3.5h5c0-0.5,0-2.6-3-2.6
		c-2.5,0-3.4,1.4-3.4,3.2c0,2.4,1.7,3.6,4.2,3.6c1,0,1.4-0.1,2.1-0.3L143.4,58.3L143.4,58.3z M138.6,54.4c0-0.4,0.3-1.5,1.8-1.5
		s1.7,0.9,1.7,1.5H138.6L138.6,54.4z M155.1,62h1.3v-9.5h-1.3v1.3h0c-0.2-0.5-1-1.4-2.4-1.4c-2,0-3,1.4-3,3.5c0,1.8,0.9,3.3,3.1,3.3
		c1.6,0,2.1-0.9,2.3-1.3h0L155.1,62L155.1,62z M151.2,55.8c0-1.6,0.6-2.8,1.8-2.8c1.2,0,2.1,1.4,2.1,2.7c0,1-0.5,2.8-2.1,2.8
		C151.6,58.5,151.2,57.1,151.2,55.8L151.2,55.8z M164.3,59h1.3v-6.5h-1.3v2.8c0,1.3-0.7,3-2.2,3c-1.1,0-1.5-0.9-1.5-1.6v-4.2h-1.3
		v4.7c0,0.8,0.6,2,2,2c1.7,0,2.2-0.4,3.1-1.8h0L164.3,59L164.3,59z M168.6,59h1.3v-6.5h-1.3V59L168.6,59z M168.5,50.8h1.5v-1.2h-1.5
		V50.8L168.5,50.8z M176.8,52.6c-0.3-0.1-1.1-0.2-2-0.2c-1.9,0-2.9,0.7-2.9,1.8c0,1.1,1.2,1.5,2.3,1.9c1,0.5,1.8,0.7,1.8,1.4
		c0,0.7-0.8,1.1-1.8,1.1c-1.1,0-2.2-0.5-2.4-0.6v1c0.4,0.1,1.1,0.3,2.3,0.3c2.2,0,3.2-0.9,3.2-1.9c0-0.9-0.6-1.4-1.5-1.8
		c-1.5-0.7-2.7-0.9-2.7-1.7c0-0.5,0.7-0.8,1.5-0.8c1,0,1.9,0.4,2.2,0.5L176.8,52.6L176.8,52.6z M184.7,58.3
		c-0.5,0.1-0.8,0.2-1.6,0.2c-2.6,0-3.3-2.1-3.3-3.5h5c0-0.5,0-2.6-3-2.6c-2.5,0-3.4,1.4-3.4,3.2c0,2.4,1.7,3.6,4.2,3.6
		c1,0,1.4-0.1,2.1-0.3L184.7,58.3L184.7,58.3z M180,54.4c0-0.4,0.3-1.5,1.8-1.5s1.7,0.9,1.7,1.5H180L180,54.4z M187.1,59h1.3V56
		c0-1.2,0.5-2.4,2.4-2.4h0.4v-1.2c-1.4,0-2.3,1-2.7,1.7h0v-1.5h-1.3L187.1,59L187.1,59z"/>
</g>
</svg>
