<?xml version="1.0" encoding="utf-8"?>
<!-- Generator: Adobe Illustrator 23.0.2, SVG Export Plug-In . SVG Version: 6.00 Build 0)  -->
<svg version="1.1" id="Layer_1" xmlns="http://www.w3.org/2000/svg" xmlns:xlink="http://www.w3.org/1999/xlink" x="0px" y="0px"
	 viewBox="0 0 192 130" style="enable-background:new 0 0 192 130;" xml:space="preserve">
<style type="text/css">
	.st0{fill-rule:evenodd;clip-rule:evenodd;fill:#5DED00;}
	.st1{fill-rule:evenodd;clip-rule:evenodd;fill:#FFFFFF;}
</style>
<g>
	<path class="st0" d="M95.3,35.1c-1.2,8-7.7,8.5-11.6,1C68.3,8.7,45.5,25.1,69.8,48c4.3,3.4,3.6,6.1-1.7,5.8
		c-26-9.5-20.9,6.4,5.7,12.9c4-0.6,6.9,1.9,3.6,4.4c-3.5,5.3,16.8,8.8,22.4,0.8c22.2,5.4,34.2-5.9,21.4-6.4
		c-5.4-0.8-3.4-4.9,0.7-5.4c26.7-9.1,26.5-30.3,0.6-14.4c-6.4,4.1-11,2.1-8.2-3.5C131.4,16.3,101.9,0.9,95.3,35.1L95.3,35.1z
		 M102.3,74.8c-6.1,6.1-34,4.2-31.9-6.1c-31.9-10.4-34-32.1-9.5-22c-25.1-31,6.2-51,27.4-16.7c4.7-38,49.9-30.4,36.2,7.6
		c26-15.8,36,6.3,4,24.3C144.3,62.3,120.8,80.7,102.3,74.8L102.3,74.8z"/>
	<path class="st1" d="M128.4,97.6h-6v14.6c-2.3,11-15,9-15.8,0l-0.1-14.8H100l0.1,14.2c0.5,12.5,25.4,15.4,28.3,1.3V97.6L128.4,97.6
		z M16.3,121.5h6.3v-14.6c0.3-10.3,16-10,15.5,0.7v14.1h6.6v-14.6c-3-13.7-24.5-13.7-28.3-1.7L16.3,121.5L16.3,121.5z M70.9,122h6.2
		v-13.8c-1-17.4-36.3-13.6-26.3,8.6c3.7,6.1,13,7.2,18.4,3.5v-2.3c-5.7,1.3-9.9,2.6-13-4.1c-5.5-16,14.8-19.3,14.5-5.7L70.9,122
		L70.9,122z M170.3,122.9h6.2v-13.8c-1-17.4-36.3-13.6-26.3,8.6c3.7,6.1,13.1,7.2,18.4,3.5v-2.3c-5.6,1.3-9.9,2.6-13-4.1
		c-5.5-16,14.8-19.3,14.5-5.7L170.3,122.9L170.3,122.9z M148,97.9c0,0.7,0,1.4,0,2.2c-4.8-0.4-7.3,1.6-7.6,6l-0.4,16.4h-5.8
		c0-5.7,0-11,0-16.6C135.8,98.6,141,96.3,148,97.9L148,97.9z M89.5,97.2h5.8l-0.2,4.1h-5.3c0,5.5,0,11.1,0,16.5
		c0.3,4.5,3,5.7,6.8,5.5c0,0.7,0,1.5,0,2.2c-7.2,0.9-12.4-0.9-13.5-8.9V86.5h6.4L89.5,97.2L89.5,97.2z"/>
</g>
</svg>
