<?xml version="1.0" encoding="utf-8"?>
<!-- Generator: Adobe Illustrator 23.0.2, SVG Export Plug-In . SVG Version: 6.00 Build 0)  -->
<svg version="1.1" id="Layer_1" xmlns="http://www.w3.org/2000/svg" xmlns:xlink="http://www.w3.org/1999/xlink" x="0px" y="0px"
	 viewBox="0 0 192 192" style="enable-background:new 0 0 192 192;" xml:space="preserve">
<style type="text/css">
	.st0{fill-rule:evenodd;clip-rule:evenodd;fill:#CA0538;}
</style>
<g>
	<path class="st0" d="M182.32,44.39c-1.97-4.53-7.21-6.14-11-6.5c-7.04-0.66-15.2,2.01-21.94,4.82l-10.03,4.44
		c-8.17,3.47-16.32,6.93-25.86,7.04c-12.99,0.46-23.25-5.65-34.07-10.42c-9.89-4.57-18.88-11.31-30.28-12.19
		c-8.22-0.31-16.14,1.38-21.4,7.46c-2.24,2.59-1.91,4.44-3.62,7c-2,2.99-5.89,4.47-6.93,9.81c-0.36,1.86,0.4,3.46-0.64,4.81
		c-2.51,3.26-9.08,6.25-9.05,8.05c0.05,2.56,4.25,3.11,4.19,4.34c-0.1,1.9-2.57,2.94-2.56,4.13c0.02,1.39,3.54,1.4,3.72,2.43
		c0.11,0.59-2.21,1.07-2.83,1.84c-1.1,1.35,1.69,3.13,1.71,4.62c0.01,1.17-1.38,2.25-1.84,4.35c-1.27,5.8,7.66,5.33,10.58,5.29
		c7.02-0.1,13.86-0.36,19.27-0.44c3.79-0.05,6.24-0.11,8.8,4.14c2.59,4.29,1.62,12.04,1.49,15.21c-0.12,3,1.24,2.63,2.54,0.44
		c2.88-4.84,4.93-13.37,0.99-20.21c-2.72-4.73-8.01-6.58-14.05-6.47c-4.39,0.08-10.68,0.72-15.29,0.73
		c-2.88,0.01-6.3,0.05-6.16-2.34c0.13-2.07,1.92-2.28,1.92-3.98c0-0.8-1.82-1.73-1.69-2.62c0.14-1.01,2.33-1.23,2.33-2.18
		c0-0.89-3.13-1.18-3.17-2.24c-0.04-0.95,1.48-1.68,1.22-2.81c-0.3-1.31-3.11-1.71-3.26-3.13c-0.24-2.2,9.19-4.32,8.38-10.21
		c-0.54-3.93,3.73-7.1,4.8-8.43c1.12-1.4,1.39-5.18,3.98-7.23c7.17-5.69,19.36-5.44,29.91-0.01c9.51,4.89,24.6,12.12,24.6,12.12
		c6.34,3.09,12.81,5.92,19.81,7.42c9.92,1.94,20.03-0.09,28.42-4.02c0,0,10.4-4.73,17-7.84c21.56-10.16,29.2-0.37,29.94-0.1
		c0.21,0.08,0.43,0.02,0.59-0.11c0.18-0.14,0.22-0.32,0.29-0.55c0.05-0.17,0.04-0.3,0.05-0.44
		C183.36,47.93,183.06,46.42,182.32,44.39L182.32,44.39z"/>
	<path class="st0" d="M178.85,76.25c-7.13-3.49-15.41-0.33-21.88,2.38l-14.51,6.74c-6.21,2.65-12.43,5.26-19.19,6.56
		c-13.85,2.43-25.56-1.54-42.82-12.2c-2.87-1.64-5.84-3.38-9.18-4.86c-2.91-1.29-6.34-2.48-9.85-1.37c-1.11,0.27-1.19,1.1-0.27,1.37
		c7.73,2.27,13.14,7.1,20.67,12.9c7.88,6.07,14.97,11.46,24,13.4c12.23,2.74,24.8,0.07,35.31-4.66l10-4.35l8.44-3.71
		c6.12-2.34,13.31-5.88,20.11-2.98c0.95,0.41,1.44,0.67,2.15,1.25c0.29,0.23,0.6,0.3,0.82,0.19c0.17-0.08,0.36-0.25,0.41-0.59
		c0.03-0.17,0.06-0.28,0.07-0.44C183.36,81.98,182.52,78.14,178.85,76.25L178.85,76.25z"/>
	<path class="st0" d="M176.2,114.64c-0.46,0-3.56-0.24-5.93,4.16l-22.84,42.4l5.43-0.01c1.03,0,1.87-0.6,2.35-1.51l5.58-10.41h12.38
		l0.02,8.11c0.01,3.28,1.3,3.8,4.21,3.8h5.77l0-46.55H176.2L176.2,114.64z M173.01,143.56h-9.59l9.59-18.39V143.56L173.01,143.56z"
		/>
	<path class="st0" d="M149.56,114.62h-6.1c-2.14,0-4.36,0.99-5.64,4.2l-15.46,38.73c-0.14,0.34-0.22,0.64-0.22,1.06
		c0.01,1.47,1.26,2.59,2.73,2.59l17.36,0c0.71,0,2.1-0.35,2.62-1.79l1.49-4.14h-12.88L149.56,114.62L149.56,114.62z"/>
	<path class="st0" d="M115.65,114.62c-2.14,0-4.36,0.99-5.64,4.2l-15.46,38.73c-0.14,0.34-0.22,0.64-0.22,1.06
		c0.01,1.47,1.26,2.59,2.73,2.59l17.36,0c0.71,0,2.1-0.35,2.62-1.79l1.49-4.14h-12.88l16.12-40.66H115.65L115.65,114.62z"/>
	<path class="st0" d="M85.4,120.31h13.01c1.09-0.09,2.38-0.94,2.67-1.79c0.56-1.49,1.44-3.91,1.44-3.91H81.38
		c-2.14,0-4.37,0.99-5.64,4.2l-15.32,38.67c-0.13,0.33-0.23,0.62-0.24,1.04c-0.02,1.51,1.28,2.68,2.79,2.68h22.84
		c0.53-0.01,1.87-0.29,2.62-1.79c0.62-1.48,1.57-4.3,1.57-4.3H71.63l6.21-15.59h12.17c1.36,0.09,2.41-0.91,2.66-1.77
		c0.55-1.49,1.39-3.81,1.39-3.81H79.93L85.4,120.31L85.4,120.31z"/>
	<path class="st0" d="M87.11,74.13c5.37,3.18,10.82,6.16,16.78,7.88c14.07,4.24,28.16-0.68,39.93-6.62l11.28-5.3
		c6.98-3.18,16.24-6.8,23.98-2.43c1.3,0.74,2.51,2.03,3.29,1.97c0.36-0.03,0.58-0.58,0.64-1.06c0.46-3.73-0.51-8.15-4.09-10.34
		c-8.13-4.42-17.97-0.64-25.48,2.5l-13.71,6.25c-4.22,1.77-8.39,3.6-12.83,4.81c-13.69,4.17-27.83-0.15-39.22-6.29l-15.75-8.7
		c-5.53-3.02-12.67-7.09-18.89-6.87c-2.45,0.08-8.06,0.9-9.52,4.1c-0.63,1.4,2.6,0.58,3.83,0.34c9.19-1.81,15.92,4.28,22.94,8.68
		L87.11,74.13L87.11,74.13z"/>
	<path class="st0" d="M61.61,114.63c-2.17,0-3.22,1.43-4.14,3.77l-11.14,28.36l-3.15-32.11l-7.8,0c-3.93,0.03-4.44,2.49-5.17,4.15
		l-12.4,28.29v-26.54c0,0,0.53-5.89-3.71-5.89H7.64v46.57h9.31c0.92,0,2.4-1.04,2.89-2.14l14.93-33.94l2.69,36.08h7.59
		c1.6,0,2.96-1.4,3.4-2.5l17.35-44.09H61.61L61.61,114.63z"/>
</g>
<g>
</g>
<g>
</g>
<g>
</g>
<g>
</g>
<g>
</g>
<g>
</g>
<g>
</g>
<g>
</g>
<g>
</g>
<g>
</g>
<g>
</g>
<g>
</g>
<g>
</g>
<g>
</g>
<g>
</g>
</svg>
