<svg id="Слой_1" data-name="Слой 1" xmlns="http://www.w3.org/2000/svg" xmlns:xlink="http://www.w3.org/1999/xlink" viewBox="0 0 2500.66 740.94"><defs><style>.cls-1{fill:#fff;}.cls-2{fill:#a6a6a6;}.cls-3{fill:url(#Безымянный_градиент);}</style><linearGradient id="Безымянный_градиент" x1="1185.25" y1="303.24" x2="1185.25" y2="339.28" gradientTransform="matrix(74.17, 0, 0, -74.13, -86081.4, 23223.23)" gradientUnits="userSpaceOnUse"><stop offset="0" stop-color="#1a1a1a" stop-opacity="0.1"/><stop offset="0.12" stop-color="#212121" stop-opacity="0.15"/><stop offset="0.31" stop-color="#353535" stop-opacity="0.23"/><stop offset="0.53" stop-color="#575757" stop-opacity="0.32"/><stop offset="0.78" stop-color="#858585" stop-opacity="0.42"/><stop offset="1" stop-color="#b3b3b3" stop-opacity="0.51"/></linearGradient></defs><title>app-store</title><path class="cls-1" d="M2484.08,653.5a71,71,0,0,1-71,71H87.64a71.08,71.08,0,0,1-71.15-71V87.58A71.17,71.17,0,0,1,87.64,16.52H2413a71.06,71.06,0,0,1,71.06,71v0l0,565.92Z" transform="translate(0 -0.03)"/><path class="cls-2" d="M2413,741H87.64A87.65,87.65,0,0,1,0,653.5V87.6A87.7,87.7,0,0,1,87.64,0H2413a87.75,87.75,0,0,1,87.65,87.57V653.5c0,48.24-39.35,87.47-87.63,87.47Z" transform="translate(0 -0.03)"/><path d="M2484.08,653.5a71,71,0,0,1-71,71H87.64a71.08,71.08,0,0,1-71.15-71V87.58A71.17,71.17,0,0,1,87.64,16.52H2413a71.06,71.06,0,0,1,71.06,71v0l0,565.92Z" transform="translate(0 -0.03)"/><path class="cls-1" d="M558.38,366.6c-.54-59.72,48.91-88.77,51.17-90.12-28-40.82-71.41-46.4-86.67-46.84-36.45-3.84-71.81,21.8-90.38,21.8-18.94,0-47.54-21.43-78.36-20.8-39.66.61-76.77,23.57-97.12,59.21-42,72.69-10.67,179.51,29.56,238.26,20.13,28.8,43.65,60.91,74.43,59.78,30.12-1.23,41.37-19.18,77.71-19.18,36,0,46.58,19.18,78,18.45,32.33-.5,52.68-28.9,72.1-57.94,23.26-33,32.6-65.46,33-67.12-.74-.26-62.75-23.94-63.38-95.5ZM499.07,191c16.2-20.26,27.28-47.81,24.2-75.77-23.44,1-52.76,16.22-69.64,36-14.94,17.46-28.29,46.06-24.84,73,26.34,2,53.38-13.29,70.28-33.22Z" transform="translate(0 -0.03)"/><path class="cls-3" d="M2413,0H1167.48L1655.33,741H2413a87.7,87.7,0,0,0,87.64-87.53V87.6A87.72,87.72,0,0,0,2413,0Z" transform="translate(0 -0.03)"/><path class="cls-1" d="M994.6,583.75H952.51l-23.06-72.42H849.31l-22,72.42h-41l79.42-246.57h49L994.6,583.75ZM922.5,480.94l-20.85-64.39q-3.3-9.85-12.43-46.45h-.74q-3.68,15.73-11.72,46.45l-20.5,64.39Zm275.93,11.73q0,45.36-24.65,71.68-22.08,23.43-54.82,23.43-35.34,0-50.78-25.22v93.29h-39.52V464.39q0-28.49-1.46-58.44H1062l2.2,28.19h.75q19.75-31.86,60-31.85,31.47,0,52.5,24.86t21,65.52Zm-40.26,1.44q0-26-11.71-42.82-12.81-17.54-34.4-17.54a41.1,41.1,0,0,0-26.52,9.69A44.94,44.94,0,0,0,1070,468.88a51.5,51.5,0,0,0-1.83,12v29.67q0,19.37,11.9,32.75T1111,556.68c14.88,0,26.47-5.76,34.75-17.19S1158.17,512.9,1158.17,494.11ZM1403,492.67q0,45.36-24.65,71.68-22.1,23.43-54.84,23.43-35.33,0-50.78-25.22v93.29H1233.2V464.39q0-28.49-1.47-58.44h34.75l2.21,28.19h.74q19.74-31.86,60-31.85,31.44,0,52.53,24.86t21,65.52Zm-40.27,1.44q0-26-11.73-42.82-12.82-17.54-34.36-17.54a41.26,41.26,0,0,0-26.56,9.69,44.92,44.92,0,0,0-15.53,25.44,52.49,52.49,0,0,0-1.86,12v29.67c0,12.91,4,23.82,11.88,32.75s18.24,13.36,31,13.36c14.9,0,26.48-5.76,34.75-17.19S1362.71,512.9,1362.71,494.11Zm269,20.48q0,31.49-21.93,51.23-24.08,21.57-67.18,21.58-39.81,0-63.87-15.36l9.14-32.92a110,110,0,0,0,57.08,15.38q22.35,0,34.75-10.06c8.29-6.71,12.47-15.68,12.47-26.87a34.41,34.41,0,0,0-10.26-25.25c-6.84-6.82-18.15-13.18-34-19q-64.77-24.17-64.79-70.64,0-30.35,22.87-49.74t60.56-19.4q33.68,0,56,11.71l-9.91,32.2q-21-11.34-47.39-11.34c-13.94,0-24.87,3.43-32.7,10.25a29.32,29.32,0,0,0-9.91,22.34,30.18,30.18,0,0,0,11.36,24.14q9.84,8.76,35.84,19,31.86,12.84,46.84,30c10.06,11.45,15.07,25.74,15.07,42.77Zm131-79h-43.55v86.32q0,32.94,23.05,32.91a69.58,69.58,0,0,0,17.56-1.83l1.09,30q-11.68,4.37-30.73,4.38-23.41,0-36.6-14.29t-13.18-47.93V435.53h-26V405.88h26V373.33l38.81-11.71v44.26h43.55V435.6Zm196.12,57.79q0,41-23.42,67.31-24.49,27.1-65.13,27.08-39.2,0-62.4-25.94t-23.24-65.48q0-41.34,24-67.67t64.61-26.35q39.13,0,62.92,26,22.74,25.19,22.7,65.07Zm-41,.91q0-24.43-10.58-41.95-12.42-21.18-35.51-21.18c-15.83,0-28,7.06-36.23,21.18q-10.62,17.53-10.6,42.69,0,24.45,10.6,42c8.54,14.12,20.46,21.17,35.9,21.17q22.65,0,35.51-21.53c7.26-12,10.91-26,10.91-42.35Zm169.46-53.6a68.48,68.48,0,0,0-12.46-1.1q-20.85,0-32.21,15.75-9.84,13.9-9.86,35.11v93.29h-39.51V462q0-28-1.15-56h34.41l1.45,34H2029c4.19-11.69,10.75-21.12,19.76-28.18a47.73,47.73,0,0,1,28.56-9.52,63.92,63.92,0,0,1,9.88.72l0,37.69ZM2264,486.44a92.75,92.75,0,0,1-1.44,17.92H2144c.44,17.56,6.19,31,17.2,40.28q15,12.39,38.77,12.41,26.33,0,48-8.39l6.19,27.41q-25.24,11-59.62,11-41.37,0-65-24.31t-23.59-65.29q0-40.18,22-66.93,23-28.51,62.18-28.51,38.45,0,58.21,28.51Q2264,453.13,2264,486.44Zm-37.68-10.24c.28-11.73-2.31-21.83-7.67-30.37-6.84-11-17.37-16.49-31.47-16.49-12.92,0-23.44,5.35-31.45,16.1-6.58,8.54-10.49,18.81-11.7,30.72l82.29,0Z" transform="translate(0 -0.03)"/><path class="cls-1" d="M837.92,250a252,252,0,0,1-28.42-1.45V129.34A215.42,215.42,0,0,1,843,126.82c45.31,0,66.18,22.29,66.18,58.63C909.14,227.36,884.49,250,837.92,250Zm6.63-107.89a79.27,79.27,0,0,0-15.64,1.26V234a102.46,102.46,0,0,0,13.12.54c29.69,0,46.59-16.9,46.59-48.55C888.62,157.76,873.33,142.11,844.55,142.11Zm129.62,108.8c-25.53,0-42.09-19.07-42.09-44.95,0-27,16.91-46.21,43.54-46.21,25.17,0,42.09,18.15,42.09,44.78,0,27.31-17.44,46.38-43.54,46.38Zm.75-77c-14,0-23,13.12-23,31.46,0,18,9.17,31.11,22.83,31.11s22.83-14,22.83-31.48c0-17.79-9-31.09-22.64-31.09Zm188.43-12.4L1136,248.92H1118.2L1106.87,211a287.87,287.87,0,0,1-7-28.22h-.37a188.62,188.62,0,0,1-7,28.22l-12,37.94h-18l-25.72-87.38h20l9.89,41.55q3.51,14.83,5.93,28h.38a285,285,0,0,1,7.19-27.87l12.41-41.71h15.83l11.88,40.82c2.87,9.9,5.21,19.6,7,28.78h.51a253.08,253.08,0,0,1,5.93-28.78l10.62-40.82,19.08,0ZM1264,248.92h-19.42V198.75c0-15.45-5.93-23.2-17.63-23.2-11.51,0-19.42,9.9-19.42,21.4v52h-19.42v-62.4c0-7.73-.19-16-.73-25h17.09l.91,13.48h.54c5.22-9.33,15.83-15.26,27.71-15.26,18.34,0,30.39,14,30.39,36.85l0,52.32Zm53.56,0H1298.1V121.45h19.44Zm70.82,2c-25.52,0-42.09-19.07-42.09-44.95,0-27,16.9-46.21,43.52-46.21,25.18,0,42.09,18.15,42.09,44.78,0,27.31-17.44,46.38-43.52,46.38Zm.72-77c-14,0-23,13.12-23,31.46,0,18,9.2,31.11,22.82,31.11s22.83-14,22.83-31.48c0-17.79-9-31.09-22.63-31.09Zm119.38,75-1.41-10.06h-.52c-5.93,8.1-14.59,12-25.56,12-15.66,0-26.78-11-26.78-25.72,0-21.57,18.7-32.72,51.08-32.72v-1.61c0-11.51-6.1-17.27-18.14-17.27a41,41,0,0,0-22.84,6.48l-4-12.76c8.08-5,18.17-7.56,30-7.56,22.83,0,34.36,12,34.36,36.15v32.18a132,132,0,0,0,1.26,20.86l-17.51,0Zm-2.67-43.52c-21.57,0-32.4,5.23-32.4,17.62,0,9.17,5.58,13.66,13.33,13.66,9.88,0,19.07-7.54,19.07-17.79ZM1619,248.92l-.91-14h-.54c-5.58,10.6-14.95,16-28.06,16-21.07,0-36.68-18.53-36.68-44.6,0-27.33,16.18-46.58,38.28-46.58,11.69,0,20,4,24.65,11.88h.39V121.45h19.44V225.38c0,8.44.2,16.36.72,23.54Zm-2.88-51.41c0-12.23-8.09-22.66-20.46-22.66-14.4,0-23.2,12.76-23.2,30.74,0,17.62,9.14,29.68,22.81,29.68,12.22,0,20.86-10.62,20.86-23.2V197.51Zm142.71,53.4c-25.52,0-42.07-19.07-42.07-44.95,0-27,16.9-46.21,43.52-46.21,25.19,0,42.09,18.15,42.09,44.78,0,27.31-17.42,46.38-43.54,46.38Zm.73-77c-14,0-23,13.12-23,31.46,0,18,9.17,31.11,22.81,31.11s22.83-14,22.83-31.48c0-17.79-9-31.09-22.64-31.09Zm147.26,75h-19.44V198.75c0-15.45-5.93-23.2-17.62-23.2-11.51,0-19.41,9.9-19.41,21.4v52h-19.44v-62.4c0-7.73-.19-16-.72-25h17.08l.91,13.48h.54c5.21-9.33,15.83-15.28,27.69-15.28,18.35,0,30.41,14,30.41,36.85Zm130.68-72.81h-21.37v42.43c0,10.8,3.75,16.19,11.31,16.19a38.13,38.13,0,0,0,8.62-.91l.53,14.75c-3.76,1.45-8.8,2.17-15.06,2.17-15.31,0-24.47-8.45-24.47-30.57V176.11h-12.75V161.54h12.75v-16l19.07-5.77v21.76h21.37v14.58Zm102.83,72.81H2121v-49.8c0-15.64-5.91-23.55-17.62-23.55-10.07,0-19.45,6.84-19.45,20.68v52.67h-19.4V121.45h19.4v52.49h.39c6.12-9.52,15-14.21,26.28-14.21,18.5,0,29.81,14.38,29.81,37.22v52Zm105.34-39h-58.29c.37,16.55,11.33,25.89,27.54,25.89a65.83,65.83,0,0,0,23.56-4.13l3,13.49c-8.27,3.59-18,5.39-29.32,5.39-27.34,0-43.52-17.27-43.52-44s16.57-46.93,41.33-46.93c22.34,0,36.35,16.55,36.35,41.54a37.62,37.62,0,0,1-.67,8.8Zm-17.81-13.84c0-13.49-6.8-23-19.22-23-11.16,0-20,9.71-21.24,23Z" transform="translate(0 -0.03)"/></svg>