<svg id="Слой_1" data-name="Слой 1" xmlns="http://www.w3.org/2000/svg" xmlns:xlink="http://www.w3.org/1999/xlink" viewBox="0 0 956.91 1053.51"><defs><style>.cls-1{fill:#6090b7;}.cls-2{fill-rule:evenodd;fill:url(#Безымянный_градиент_2);}</style><linearGradient id="Безымянный_градиент_2" x1="1463.51" y1="-326.41" x2="1463.51" y2="702.6" gradientTransform="matrix(1, 0, 0, -1, -957.38, 702.6)" gradientUnits="userSpaceOnUse"><stop offset="0" stop-color="#16234f"/><stop offset="1" stop-color="#00a7d4"/></linearGradient></defs><title>background-square</title><path class="cls-1" d="M135.69,331.4c-.9.9-11,9.8-22.4,19.7s-27.9,24.1-36.5,31.6-22.4,19.3-30.6,26.5c-22.3,19.2-28.1,26.2-35.5,42.9C3.59,468.4-1,492.4.19,507.2c.2,2.7.7,8.3,1,12.4,2.2,29.6,19.5,73.4,37.4,94.8,12,14.4,54.4,63.7,82.6,96.2,14.7,16.9,61.1,70.6,101,116.9,16.2,18.8,108.8,126,130.7,151.2,14.1,16.3,25.1,26.9,37.9,36.5,27.6,20.6,53.3,31.8,84.9,37a122.18,122.18,0,0,0,59.3-6c10.5-4,19.2-9.6,32.7-21.2,13.3-11.4,43.8-37.8,92-79.5,16.2-14.1,39.7-34.3,52.1-45l41-35.4c10.1-8.8,26.5-23,36.4-31.5s24.4-21,32-27.6,29.5-25.6,48.5-41.9,36.7-31.9,39.5-34.5,8.3-7.9,12.4-11.6c15.2-14.2,23.7-30.3,29.1-54.9,4.1-19,2.4-49.7-4.1-71.9a215.4,215.4,0,0,0-33.1-67.5c-3.4-4.7-15.2-19.4-26.2-32.6-25.5-30.6-30.3-36.4-46.8-56.5-7.5-9.1-20.6-25-29.2-35.4s-16-19.4-16.4-20.1-3.9-1.5-8.4-2c-6.9-.6-7.8-.5-7.8,1,0,.9-.9,11.2-2,22.8-3.3,34-4.8,49.9-6.7,70.9l-1.7,19.8H205.69l-.2-78.7-.3-78.8-31.5-2.2C136.19,329.3,137.59,329.3,135.69,331.4Z"/><path id="Прямоугольник_скругл._углы_12" data-name="Прямоугольник скругл. углы 12" class="cls-2" d="M441.54,31C493.41-18.49,573.31-7.55,620,55.43l304.42,410.5c46.71,63,42.52,154.14-9.35,203.61L570.73,998c-51.87,49.48-131.77,38.53-178.48-24.44L87.83,563.08c-46.7-63-42.52-154.14,9.35-203.61L441.54,31"/></svg>