<svg id="Layer_1" data-name="Layer 1" xmlns="http://www.w3.org/2000/svg" xmlns:xlink="http://www.w3.org/1999/xlink" viewBox="0 0 2500 740.74"><defs><style>.cls-1{fill:#a6a6a6;}.cls-10,.cls-2,.cls-3{fill:#fff;}.cls-2{stroke:#fff;stroke-miterlimit:10;stroke-width:0.2px;}.cls-4{fill:url(#Безымянный_градиент);}.cls-5{fill:url(#Безымянный_градиент_2);}.cls-6{fill:url(#Безымянный_градиент_3);}.cls-7{fill:url(#Безымянный_градиент_4);}.cls-8{opacity:0.2;}.cls-10,.cls-8,.cls-9{isolation:isolate;}.cls-9{opacity:0.12;}.cls-10{opacity:0.25;}</style><linearGradient id="Безымянный_градиент" x1="1180.65" y1="344.02" x2="1163.86" y2="360.8" gradientTransform="translate(-21460.19 -6209.43) scale(18.52)" gradientUnits="userSpaceOnUse"><stop offset="0" stop-color="#00a0ff"/><stop offset="0.01" stop-color="#00a1ff"/><stop offset="0.26" stop-color="#00beff"/><stop offset="0.51" stop-color="#00d2ff"/><stop offset="0.76" stop-color="#00dfff"/><stop offset="1" stop-color="#00e3ff"/></linearGradient><linearGradient id="Безымянный_градиент_2" x1="1192.68" y1="355.37" x2="1168.49" y2="355.37" gradientTransform="translate(-21460.19 -6209.43) scale(18.52)" gradientUnits="userSpaceOnUse"><stop offset="0" stop-color="#ffe000"/><stop offset="0.41" stop-color="#ffbd00"/><stop offset="0.78" stop-color="orange"/><stop offset="1" stop-color="#ff9c00"/></linearGradient><linearGradient id="Безымянный_градиент_3" x1="1183.67" y1="357.6" x2="1160.91" y2="380.36" gradientTransform="translate(-21460.19 -6209.43) scale(18.52)" gradientUnits="userSpaceOnUse"><stop offset="0" stop-color="#ff3a44"/><stop offset="1" stop-color="#c31162"/></linearGradient><linearGradient id="Безымянный_градиент_4" x1="1166.11" y1="335.53" x2="1176.27" y2="345.69" gradientTransform="translate(-21460.19 -6209.43) scale(18.52)" gradientUnits="userSpaceOnUse"><stop offset="0" stop-color="#32a071"/><stop offset="0.07" stop-color="#2da771"/><stop offset="0.48" stop-color="#15cf74"/><stop offset="0.8" stop-color="#06e775"/><stop offset="1" stop-color="#00f076"/></linearGradient></defs><title>play-market</title><path d="M2407.41,740.87H92.59C40.74,740.87,0,700.13,0,648.28V92.72C0,40.87,40.74.13,92.59.13H2407.41c51.85,0,92.59,40.74,92.59,92.59V648.28C2500,700.13,2459.26,740.87,2407.41,740.87Z" transform="translate(0 -0.13)"/><path class="cls-1" d="M2407.41,14.94c42.59,0,77.78,35.19,77.78,77.78V648.28c0,42.59-35.19,77.78-77.78,77.78H92.59c-42.59,0-77.78-35.19-77.78-77.78V92.72c0-42.59,35.19-77.78,77.78-77.78H2407.41m0-14.81H92.59C40.74.13,0,42.72,0,92.72V648.28c0,51.85,40.74,92.59,92.59,92.59H2407.41c51.85,0,92.59-40.74,92.59-92.59V92.72C2500,42.72,2459.26.13,2407.41.13Z" transform="translate(0 -0.13)"/><path class="cls-2" d="M877.78,189c0,14.81-3.71,27.78-13,37-11.11,11.11-24.07,16.66-40.74,16.66s-29.63-5.55-40.74-16.66S766.67,202,766.67,185.31s5.55-29.62,16.66-40.74,24.08-16.66,40.74-16.66a49.38,49.38,0,0,1,22.23,5.55c7.4,3.71,13,7.41,16.66,13l-9.26,9.26c-7.4-9.26-16.66-13-29.63-13-11.11,0-22.22,3.71-29.63,13-9.25,7.4-13,18.51-13,31.48s3.71,24.07,13,31.48,18.52,13,29.63,13c13,0,22.23-3.7,31.49-13a30.68,30.68,0,0,0,9.25-22.22H824.07V181.61h53.71V189ZM963,142.72H913v35.19h46.3v13H913v35.19h50v14.81H898.15V129.76H963Zm61.11,98.15h-14.81V142.72H977.78v-13h77.78v13h-31.49Zm85.19,0V129.76h14.81V240.87Zm77.78,0h-14.82V142.72h-31.48v-13h75.93v13h-31.48v98.15ZM1363,226.06c-11.11,11.11-24.07,16.66-40.74,16.66s-29.63-5.55-40.74-16.66-16.67-24.08-16.67-40.75,5.56-29.62,16.67-40.74,24.08-16.66,40.74-16.66,29.63,5.55,40.74,16.66,16.67,24.08,16.67,40.74S1374.07,214.94,1363,226.06Zm-70.37-9.26c7.41,7.4,18.52,13,29.63,13s22.22-3.7,29.63-13a44.68,44.68,0,0,0,13-31.49c0-13-3.7-24.07-13-31.48-7.41-7.4-18.52-13-29.63-13s-22.22,3.7-29.63,13a44.71,44.71,0,0,0-13,31.48C1279.63,198.28,1283.33,209.39,1292.59,216.8ZM1400,240.87V129.76h16.67l53.7,87v-87h14.82V240.87h-14.82L1413,150.13v90.74Z" transform="translate(0 -0.13)"/><path class="cls-3" d="M1261.11,403.83c-44.44,0-79.63,33.34-79.63,79.63a79,79,0,0,0,79.63,79.63c44.45,0,79.63-33.33,79.63-79.63C1340.74,435.31,1305.56,403.83,1261.11,403.83Zm0,125.93c-24.07,0-44.44-20.37-44.44-48.15s20.37-48.15,44.44-48.15,44.45,18.52,44.45,48.15C1305.56,509.39,1285.19,529.76,1261.11,529.76ZM1088.89,403.83c-44.45,0-79.63,33.34-79.63,79.63a79,79,0,0,0,79.63,79.63c44.44,0,79.63-33.33,79.63-79.63C1168.52,435.31,1133.33,403.83,1088.89,403.83Zm0,125.93c-24.08,0-44.45-20.37-44.45-48.15s20.37-48.15,44.45-48.15,44.44,18.52,44.44,48.15C1133.33,509.39,1113,529.76,1088.89,529.76ZM883.33,427.91v33.33H963c-1.85,18.52-9.26,33.33-18.52,42.59-11.11,11.11-29.63,24.08-61.11,24.08-50,0-87-38.89-87-88.89s38.89-88.89,87-88.89c25.93,0,46.3,11.11,61.11,24.07l24.08-24.07c-20.37-18.52-46.3-33.33-83.33-33.33-66.67,0-124.08,55.55-124.08,122.22s57.41,122.22,124.08,122.22c37,0,63-11.11,85.18-35.18,22.22-22.23,29.63-53.71,29.63-77.78,0-7.41,0-14.82-1.85-20.37Zm840.74,25.92c-7.4-18.52-25.92-50-66.66-50s-74.08,31.48-74.08,79.63c0,44.45,33.34,79.63,77.78,79.63,35.19,0,57.41-22.22,64.82-35.18L1700,509.39c-9.26,13-20.37,22.22-38.89,22.22s-29.63-7.41-38.89-24.07l105.56-44.45-3.71-9.26Zm-107.4,25.93c0-29.63,24.07-46.3,40.74-46.3,13,0,25.92,7.41,29.63,16.67l-70.37,29.63Zm-87,75.93h35.18V324.2h-35.18ZM1474.07,420.5c-9.26-9.26-24.07-18.52-42.59-18.52-38.89,0-75.92,35.19-75.92,79.63s35.18,77.78,75.92,77.78c18.52,0,33.33-9.26,40.74-18.52h1.85V552c0,29.63-16.66,46.3-42.59,46.3-20.37,0-35.18-14.82-38.89-27.78l-29.63,13c9.26,20.37,31.48,46.3,70.37,46.3,40.74,0,74.08-24.07,74.08-81.48V407.54h-33.34v13Zm-40.74,109.26c-24.07,0-44.44-20.37-44.44-48.15s20.37-48.15,44.44-48.15,42.6,20.37,42.6,48.15S1457.41,529.76,1433.33,529.76ZM1885.19,324.2h-83.34V555.69H1837v-87h48.15c38.88,0,75.92-27.78,75.92-72.22S1924.07,324.2,1885.19,324.2ZM1887,435.31h-50V355.69h50c25.92,0,40.74,22.22,40.74,38.88-1.85,20.37-16.67,40.74-40.74,40.74ZM2100,402c-25.93,0-51.85,11.11-61.11,35.19l31.48,13c7.41-13,18.52-16.67,31.48-16.67,18.52,0,35.19,11.11,37,29.63v1.85c-5.56-3.7-20.37-9.25-35.19-9.25-33.33,0-66.66,18.51-66.66,51.85,0,31.48,27.77,51.85,57.4,51.85,24.08,0,35.19-11.11,44.45-22.22h1.85v18.52h33.33V466.8c-3.7-40.74-35.18-64.82-74.07-64.82Zm-3.7,127.78c-11.11,0-27.78-5.56-27.78-20.37,0-18.52,20.37-24.08,37-24.08,14.81,0,22.22,3.71,31.48,7.41C2133.33,514.94,2114.81,529.76,2096.3,529.76Zm194.44-122.22-38.89,100H2250l-40.74-100h-37l61.11,140.74-35.18,77.78h35.18l94.45-218.52ZM1979.63,555.69h35.19V324.2h-35.19Z" transform="translate(0 -0.13)"/><path class="cls-4" d="M192.59,139c-5.55,5.55-7.4,14.81-7.4,25.92V574.2c0,11.11,3.7,20.37,9.25,25.93L196.3,602,425.93,372.35v-3.7Z" transform="translate(0 -0.13)"/><path class="cls-5" d="M500,450.13,424.07,374.2v-5.55L500,292.72l1.85,1.85,90.74,51.86c25.93,14.81,25.93,38.88,0,53.7Z" transform="translate(0 -0.13)"/><path class="cls-6" d="M501.85,448.28,424.07,370.5,192.59,602c9.26,9.26,22.22,9.26,38.89,1.85L501.85,448.28" transform="translate(0 -0.13)"/><path class="cls-7" d="M501.85,292.72,231.48,139c-16.67-9.26-29.63-7.41-38.89,1.85L424.07,370.5l77.78-77.78Z" transform="translate(0 -0.13)"/><path class="cls-8" d="M500,446.43,231.48,598.28c-14.81,9.26-27.78,7.41-37,0l-1.85,1.85,1.85,1.85c9.26,7.41,22.23,9.26,37,0Z" transform="translate(0 -0.13)"/><path class="cls-9" d="M192.59,598.28c-5.55-5.56-7.4-14.82-7.4-25.93v1.85c0,11.11,3.7,20.37,9.25,25.93v-1.85Zm400-203.71L500,446.43l1.85,1.85,90.74-51.85c13-7.41,18.52-16.67,18.52-25.93C611.11,379.76,603.7,387.17,592.59,394.57Z" transform="translate(0 -0.13)"/><path class="cls-10" d="M231.48,140.87,592.59,346.43c11.11,7.4,18.52,14.81,18.52,24.07,0-9.26-5.55-18.52-18.52-25.93L231.48,139c-25.92-14.82-46.29-3.71-46.29,25.92v1.86C185.19,139,205.56,126.06,231.48,140.87Z" transform="translate(0 -0.13)"/></svg>