<?xml version="1.0" encoding="utf-8"?>
<!-- Generator: Adobe Illustrator 23.0.2, SVG Export Plug-In . SVG Version: 6.00 Build 0)  -->
<svg version="1.1" id="a362b3e3-fc97-4dd4-b682-5ebc0f1e57cb"
	 xmlns="http://www.w3.org/2000/svg" xmlns:xlink="http://www.w3.org/1999/xlink" x="0px" y="0px" viewBox="0 0 124.2 122.9"
	 style="enable-background:new 0 0 124.2 122.9;" xml:space="preserve">
<style type="text/css">
	.st0{opacity:0.97;}
	.st1{fill:#0F436F;}
</style>
<title>slider-arrow-left3</title>
<g id="a36c0843-fc4c-438e-9e11-06a13fa9aba7">
	<g class="st0">
	</g>
	<path class="st1" d="M44.8,61.1c0,0.9,0.4,1.8,1,2.4l20.8,20.7c1.3,1.3,3.5,1.3,4.8,0c1.3-1.3,1.3-3.4,0-4.7c0,0,0,0,0,0l0,0l0,0
		L53,61.1l18.4-18.3c1.3-1.3,1.3-3.4,0-4.7c0,0,0,0,0,0l0,0c-1.3-1.3-3.5-1.3-4.8,0L45.8,58.7C45.1,59.3,44.8,60.2,44.8,61.1z"/>
</g>
</svg>
