<?xml version="1.0" encoding="utf-8"?>
<!-- Generator: Adobe Illustrator 23.0.2, SVG Export Plug-In . SVG Version: 6.00 Build 0)  -->
<svg version="1.1" id="fe8e4b81-f4e9-4634-a001-80b77b2f0b5e"
	 xmlns="http://www.w3.org/2000/svg" xmlns:xlink="http://www.w3.org/1999/xlink" x="0px" y="0px" viewBox="0 0 126.9 24.6"
	 style="enable-background:new 0 0 126.9 24.6;" xml:space="preserve">
<style type="text/css">
	.st0{fill:#3EB21D;}
	.st1{fill:#FF671F;}
</style>
<path class="st0" d="M63,1.2h6c4.4,0,8,3.6,8,8v6c0,4.4-3.6,8-8,8h-6c-4.4,0-8-3.6-8-8v-6C55,4.8,58.6,1.2,63,1.2z"/>
<path class="st0" d="M14.3,4.3v3.4h-3.5v12H7.3v-12H3.8V4.3H14.3z"/>
<path class="st0" d="M19.4,16.3h5.7v3.4h-9.2V4.3H25v3.4h-5.7v2.6h5.1v3.3h-5.1V16.3z"/>
<path class="st0" d="M39,19.7h-4l-2.5-4.4L30,19.7h-4l4.5-7.9l-4.3-7.5h4l2.3,4l2.3-4h4l-4.3,7.5L39,19.7z"/>
<path class="st0" d="M48.4,4.3h3.5v15.4h-3.5v-6.2H44v6.2h-3.5V4.3H44v5.8h4.4L48.4,4.3z"/>
<circle class="st1" cx="66" cy="12.2" r="6.9"/>
<g>
	<path class="st0" d="M95.4,4.3v15.4h-3.5v-9.4l-3,7h-2.4l-3-7v9.4H80V4.3h3.5h0.4l3.7,8.9l3.7-8.9H95.4z"/>
	<path class="st0" d="M106.2,19.7v-8.6l-5.5,8.6H98V4.3h3.5v8.6l5.5-8.6h2.6v15.4H106.2z"/>
	<path class="st0" d="M118.2,4.3c1.5,0,2.8,0.5,3.8,1.5c1,1,1.6,2.3,1.6,3.7c0,1.5-0.5,2.7-1.6,3.7c-1,1-2.3,1.5-3.8,1.5h-2.3v4.8
		h-3.5V4.3h3.5H118.2z M118.2,11.6c0.5,0,1-0.2,1.3-0.6c0.4-0.4,0.5-0.9,0.5-1.4c0-0.6-0.2-1-0.5-1.4c-0.4-0.4-0.8-0.6-1.3-0.6h-2.3
		v4H118.2z"/>
</g>
</svg>
