<?xml version="1.0" encoding="utf-8"?>
<!-- Generator: Adobe Illustrator 23.0.2, SVG Export Plug-In . SVG Version: 6.00 Build 0)  -->
<svg version="1.1" id="fe8e4b81-f4e9-4634-a001-80b77b2f0b5e"
	 xmlns="http://www.w3.org/2000/svg" xmlns:xlink="http://www.w3.org/1999/xlink" x="0px" y="0px" viewBox="0 0 151.9 24.6"
	 style="enable-background:new 0 0 151.9 24.6;" xml:space="preserve">
<style type="text/css">
	.st0{fill:#FFFFFF;}
	.st1{fill:#3EB21D;}
	.st2{font-family:'Qanelas-ExtraBold';}
	.st3{font-size:12.3761px;}
	.st4{fill:#FF671F;}
</style>
<title>Безымянный-1</title>
<path class="st0" d="M87.3,6.2h3.4c2.5,0,4.5,2,4.5,4.5v3.4c0,2.5-2,4.5-4.5,4.5h-3.4c-2.5,0-4.5-2-4.5-4.5v-3.4
	C82.8,8.3,84.8,6.2,87.3,6.2z"/>
<path class="st1" d="M123.8,21.7l-71.6,2.6c-0.6,0-2-0.1-2-0.7l0.2-19c0-0.6,0.4-1.1,1-1.1L123,0.9c0.6,0,2,0.1,2,0.7l-0.2,19
	C124.8,21.2,124.3,21.7,123.8,21.7z"/>
<path class="st0" d="M59.9,8v1.9h-2v6.8h-2V9.9h-2V8H59.9z"/>
<path class="st0" d="M62.7,14.7h3.2v1.9h-5.2V8h5.2v1.9h-3.2v1.5h2.9v1.9h-2.9V14.7z"/>
<path class="st0" d="M73.8,16.6h-2.3l-1.4-2.5l-1.4,2.5h-2.3l2.5-4.4L66.6,8h2.3l1.3,2.3L71.4,8h2.3l-2.4,4.2L73.8,16.6z"/>
<path class="st0" d="M79.1,8h2v8.7h-2v-3.5h-2.5v3.5h-2V8h2v3.3h2.5V8z"/>
<circle class="st0" cx="89" cy="12.4" r="3.9"/>
<text transform="matrix(1 0 0 1 96.0967 16.6431)" class="st0 st2 st3">МИР</text>
<path class="st4" d="M89,6.1L89,6.1c3.4,0,6.2,2.8,6.2,6.2v0c0,3.4-2.8,6.2-6.2,6.2h0c-3.4,0-6.2-2.8-6.2-6.2v0
	C82.8,8.9,85.6,6.1,89,6.1z"/>
<circle class="st0" cx="89" cy="12.4" r="3.9"/>
</svg>
