<?xml version="1.0" encoding="utf-8"?><svg xmlns="http://www.w3.org/2000/svg" xmlns:xlink="http://www.w3.org/1999/xlink"><symbol viewBox="0 0 512 512" id="bathroom" xmlns="http://www.w3.org/2000/svg"><path d="M487 262.75V49.25c0-15.164-12.337-27.5-27.5-27.5h-35c-15.163 0-27.5 12.336-27.5 27.5v18.396c-14.037 3.385-24.5 16.042-24.5 31.104v3.922c-8.105 2.555-14 10.14-14 19.078 0 11.028 8.972 20 20 20h52c11.028 0 20-8.972 20-20 0-8.938-5.895-16.523-14-19.078V98.75c0-15.062-10.463-27.718-24.5-31.104V49.25c0-6.893 5.607-12.5 12.5-12.5h35c6.893 0 12.5 5.607 12.5 12.5v213.5H310v-226h12.077c2.598 4.476 7.433 7.5 12.97 7.5 8.271 0 15-6.729 15-15s-6.729-15-15-15c-5.538 0-10.372 3.024-12.97 7.5H57.394c-2.708-3.922-7.229-6.5-12.346-6.5-8.271 0-15 6.729-15 15s6.729 15 15 15c5.941 0 11.07-3.48 13.498-8.5H70v198.5c0 4.142 3.357 7.5 7.5 7.5s7.5-3.358 7.5-7.5V36.75h30v321c0 8.271-6.729 15-15 15s-15-6.729-15-15v-87.5a7.5 7.5 0 0 0-7.5-7.5H25c-13.785 0-25 11.215-25 25s11.215 25 25 25v57.5c0 37.22 30.28 67.5 67.5 67.5h10.207l-2.542 15H90.5c-12.406 0-22.5 10.093-22.5 22.5s10.094 22.5 22.5 22.5h19.851a32.407 32.407 0 0 0 32.051-27.113l5.528-32.887h154.32c4.143 0 7.5-3.358 7.5-7.5s-3.357-7.5-7.5-7.5H92.5c-28.948 0-52.5-23.551-52.5-52.5v-57.5h30v45c0 16.542 13.458 30 30 30 8.954 0 16.999-3.948 22.5-10.189 5.501 6.241 13.546 10.189 22.5 10.189s16.999-3.948 22.5-10.189c5.501 6.241 13.546 10.189 22.5 10.189s16.999-3.948 22.5-10.189c5.501 6.241 13.546 10.189 22.5 10.189s16.999-3.948 22.5-10.189c5.501 6.241 13.546 10.189 22.5 10.189 16.542 0 30-13.458 30-30v-45h162v57.5c0 28.949-23.552 52.5-52.5 52.5h-82.25c-4.143 0-7.5 3.358-7.5 7.5s3.357 7.5 7.5 7.5h26.821l5.528 32.887a32.407 32.407 0 0 0 32.051 27.113h19.85c12.406 0 22.5-10.093 22.5-22.5s-10.094-22.5-22.5-22.5h-9.664l-2.542-15H419.5c37.22 0 67.5-30.28 67.5-67.5v-57.5c13.785 0 25-11.215 25-25s-11.215-25-25-25zm-56.5-136h-52c-2.757 0-5-2.243-5-5s2.243-5 5-5h52c2.757 0 5 2.243 5 5s-2.243 5-5 5zm-9-28v3h-34v-3c0-9.374 7.626-17 17-17s17 7.626 17 17zm-293.892 369.4a17.45 17.45 0 0 1-17.258 14.6H90.5c-4.136 0-7.5-3.364-7.5-7.5s3.364-7.5 7.5-7.5h11.776c6.117 0 11.3-4.378 12.324-10.411l3.32-19.589h14.797zM70 297.75H25c-5.514 0-10-4.486-10-10s4.486-10 10-10h45zm327.399 159.591a12.469 12.469 0 0 0 12.324 10.409H421.5c4.136 0 7.5 3.364 7.5 7.5s-3.364 7.5-7.5 7.5h-19.851a17.45 17.45 0 0 1-17.258-14.6l-5.11-30.4h14.797zM145 372.75c-8.271 0-15-6.729-15-15v-321h30v321c0 8.271-6.729 15-15 15zm45 0c-8.271 0-15-6.729-15-15v-321h30v321c0 8.271-6.729 15-15 15zm45 0c-8.271 0-15-6.729-15-15v-321h30v321c0 8.271-6.729 15-15 15zm60-15c0 8.271-6.729 15-15 15s-15-6.729-15-15v-321h30zm192-60H310v-20h177c5.514 0 10 4.486 10 10s-4.486 10-10 10z"/><path d="M374.5 189.25a7.5 7.5 0 0 0 7.5-7.5v-13c0-4.142-3.357-7.5-7.5-7.5s-7.5 3.358-7.5 7.5v13a7.5 7.5 0 0 0 7.5 7.5zm30 0a7.5 7.5 0 0 0 7.5-7.5v-13c0-4.142-3.357-7.5-7.5-7.5s-7.5 3.358-7.5 7.5v13a7.5 7.5 0 0 0 7.5 7.5zm30 0a7.5 7.5 0 0 0 7.5-7.5v-13c0-4.142-3.357-7.5-7.5-7.5s-7.5 3.358-7.5 7.5v13a7.5 7.5 0 0 0 7.5 7.5zm-67.5 35.5c0 4.142 3.357 7.5 7.5 7.5s7.5-3.358 7.5-7.5v-13c0-4.142-3.357-7.5-7.5-7.5s-7.5 3.358-7.5 7.5zm30 0c0 4.142 3.357 7.5 7.5 7.5s7.5-3.358 7.5-7.5v-13c0-4.142-3.357-7.5-7.5-7.5s-7.5 3.358-7.5 7.5zm30 0c0 4.142 3.357 7.5 7.5 7.5s7.5-3.358 7.5-7.5v-13c0-4.142-3.357-7.5-7.5-7.5s-7.5 3.358-7.5 7.5z"/></symbol><symbol viewBox="0 0 511.999 511.999" id="big-busket" xmlns="http://www.w3.org/2000/svg"><path d="M214.685 402.828c-24.829 0-45.029 20.2-45.029 45.029 0 24.829 20.2 45.029 45.029 45.029s45.029-20.2 45.029-45.029c-.001-24.829-20.201-45.029-45.029-45.029zm0 64.914c-10.966 0-19.887-8.922-19.887-19.887 0-10.966 8.922-19.887 19.887-19.887s19.887 8.922 19.887 19.887c0 10.967-8.922 19.887-19.887 19.887zm157.945-64.914c-24.829 0-45.029 20.2-45.029 45.029 0 24.829 20.2 45.029 45.029 45.029s45.029-20.2 45.029-45.029c-.001-24.829-20.201-45.029-45.029-45.029zm0 64.914c-10.966 0-19.887-8.922-19.887-19.887 0-10.966 8.922-19.887 19.887-19.887 10.966 0 19.887 8.922 19.887 19.887 0 10.967-8.922 19.887-19.887 19.887zm11.086-301.987H203.567c-6.943 0-12.571 5.628-12.571 12.571s5.629 12.571 12.571 12.571h180.149c6.943 0 12.571-5.628 12.571-12.571 0-6.944-5.628-12.571-12.571-12.571zm-9.805 65.28H213.373c-6.943 0-12.571 5.628-12.571 12.571s5.628 12.571 12.571 12.571H373.91c6.943 0 12.571-5.628 12.571-12.571 0-6.942-5.628-12.571-12.57-12.571z"/><path d="M506.341 109.744a25.04 25.04 0 0 0-19.489-9.258H95.278L87.37 62.097a25.173 25.173 0 0 0-14.614-17.989l-55.177-23.95c-6.37-2.767-13.773.156-16.536 6.524-2.766 6.37.157 13.774 6.524 16.537L62.745 67.17l60.826 295.261c2.396 11.628 12.752 20.068 24.625 20.068h301.166c6.943 0 12.571-5.628 12.571-12.571s-5.628-12.571-12.571-12.571H148.197l-7.399-35.916H451.69c11.872 0 22.229-8.44 24.624-20.068l35.163-170.675a25.043 25.043 0 0 0-5.136-20.954zM451.69 296.301H135.619l-35.161-170.674 386.393.001-35.161 170.673z"/></symbol><symbol viewBox="0 0 510 510" id="busket" xmlns="http://www.w3.org/2000/svg"><path d="M153 408c-28.05 0-51 22.95-51 51s22.95 51 51 51 51-22.95 51-51-22.95-51-51-51zM0 0v51h51l91.8 193.8-35.7 61.2c-2.55 7.65-5.1 17.85-5.1 25.5 0 28.05 22.95 51 51 51h306v-51H163.2c-2.55 0-5.1-2.55-5.1-5.1v-2.551l22.95-43.35h188.7c20.4 0 35.7-10.2 43.35-25.5L504.9 89.25c5.1-5.1 5.1-7.65 5.1-12.75 0-15.3-10.2-25.5-25.5-25.5H107.1L84.15 0H0zm408 408c-28.05 0-51 22.95-51 51s22.95 51 51 51 51-22.95 51-51-22.95-51-51-51z"/></symbol><symbol viewBox="0 0 484.955 484.955" id="busket-full" xmlns="http://www.w3.org/2000/svg"><path d="M258.005 218.355c2.3 2.3 5.4 3.5 8.5 3.5s6.1-1.2 8.5-3.5l73.9-73.9c4.7-4.7 4.7-12.3 0-17s-12.3-4.7-17 0l-65.4 65.5-26.4-26.4c-4.7-4.7-12.3-4.7-17 0s-4.7 12.3 0 17l34.9 34.8z"/><path d="M145.005 318.355h268.9c29.7 0 53.8-24.2 53.8-53.8v-113.3c0-6.6-5.4-12-12-12s-12 5.4-12 12v113.2c0 16.5-13.4 29.8-29.8 29.8h-268.9c-16.5 0-29.8-13.4-29.8-29.8v-221.2c0-.4 0-.9-.1-1.3v-.3c0-.3-.1-.6-.1-.8s-.1-.5-.2-.7c0-.1-.1-.3-.1-.4-.1-.3-.2-.5-.3-.8 0-.1-.1-.2-.1-.3-.1-.2-.2-.5-.3-.7-.1-.1-.1-.3-.2-.4l-.3-.6c-.1-.2-.2-.3-.3-.5-.1-.1-.2-.3-.3-.4-.1-.2-.3-.4-.4-.5l-.3-.3c-.2-.2-.3-.4-.5-.6-.1-.1-.2-.2-.3-.2-.2-.2-.4-.4-.6-.5l-.3-.3c-.2-.1-.4-.3-.6-.4-.2-.2-.5-.3-.7-.5-.1 0-.2-.1-.2-.2l-1.2-.6-73.9-31c-6.1-2.6-13.1.3-15.7 6.4-2.6 6 .3 13.1 6.4 15.7l66.5 28.1v297.6c0 28.2 21.7 51.3 49.3 53.6-5.6 8.4-8.9 18.5-8.9 29.4 0 29.3 23.9 53.2 53.2 53.2s53.2-23.9 53.2-53.2c0-10.8-3.2-20.8-8.7-29.2h127.3c-5.5 8.4-8.7 18.4-8.7 29.2 0 29.3 23.9 53.2 53.2 53.2s53.2-23.9 53.2-53.2-23.9-53.2-53.2-53.2h-256c-16.5 0-29.8-13.4-29.8-29.8v-39.5c8.5 5.7 18.8 9.1 29.8 9.1zm68.9 113.4c0 16.1-13.1 29.2-29.2 29.2s-29.2-13.1-29.2-29.2 13.1-29.2 29.2-29.2 29.2 13.1 29.2 29.2zm216.2 0c0 16.1-13.1 29.2-29.2 29.2s-29.2-13.1-29.2-29.2 13.1-29.2 29.2-29.2 29.2 13.1 29.2 29.2z"/></symbol><symbol viewBox="0 0 937.5 937.5" id="card" xmlns="http://www.w3.org/2000/svg"><path d="M781.25 165.531V78.125C781.195 35 746.25.055 703.125 0h-625C35 .055.055 35 0 78.125v343.75c.121 39.902 30.367 73.273 70.063 77.32l58.734 152.465c15.516 40.258 60.726 60.313 100.988 44.817l366.777-141.29c-25.343 66.2-18.132 140.461 19.461 200.551L625 770.094v151.781c0 8.633 6.992 15.625 15.625 15.625h281.25c8.633 0 15.625-6.992 15.625-15.625V406.113a204.484 204.484 0 0 0-59.863-144.023zm0 93.446l47.422 123.101c9.293 24.164-2.75 51.277-26.91 60.578l-27.106 10.469a78.145 78.145 0 0 0 6.594-31.25zm-750 162.898V78.125c0-25.883 20.992-46.875 46.875-46.875h625C729.008 31.25 750 52.242 750 78.125v99.313h-.137l.137.355v244.082a47.447 47.447 0 0 1-1.063 8.094l-143.125-143.14c-32.171-31.43-83.46-31.673-115.921-.571-32.47 31.12-34.418 82.37-4.391 115.847l61.016 66.645H78.125c-25.883 0-46.875-20.992-46.875-46.875zM231.422 500l-111.11 42.777L103.876 500zm-12.875 167.309c-24.156 9.312-51.285-2.73-60.594-26.887l-26.36-68.547L318.11 500v-.094h257.047l20.309 22.14zM906.25 906.25h-250v-125h250zm0-156.25H649.297l-6.777-10.828c-38.098-60.883-39.614-137.781-3.957-200.11a15.618 15.618 0 0 0-2.047-18.312L508.473 381.062c-19.094-20.898-18.02-53.207 2.422-72.78 20.449-19.579 52.773-19.259 72.82.71l248.988 248.93 22.094-22.094-57.813-57.812 16.032-6.25c40.226-15.52 60.273-60.692 44.797-100.942l-52.887-137.328 50.617 50.723a173.037 173.037 0 0 1 50.707 121.894zm0 0"/><path d="M178.125 218.75c22.438 0 40.625-18.188 40.625-40.625v-75c0-22.438-18.188-40.625-40.625-40.625h-75C80.687 62.5 62.5 80.688 62.5 103.125v75c0 22.438 18.188 40.625 40.625 40.625zM93.75 178.125V156.25H125V125H93.75v-21.875c0-5.176 4.2-9.375 9.375-9.375h75c5.176 0 9.375 4.2 9.375 9.375V125h-31.25v31.25h31.25v21.875c0 5.176-4.2 9.375-9.375 9.375h-75c-5.176 0-9.375-4.2-9.375-9.375zm-15.625 87.5h62.5v31.25h-62.5zm0 93.75h62.5v31.25h-62.5zm281.25 0h62.5v31.25h-62.5zm-187.5-93.75h62.5v31.25h-62.5zm93.75 0h62.5v31.25h-62.5zm93.75 0h62.5v31.25h-62.5zm296.875-187.5h31.25V125h-31.25zm-62.5 0H625V125h-31.25zm-62.5 0h31.25V125h-31.25zm-62.5 0H500V125h-31.25zM687.5 812.5h31.25v31.25H687.5zm0 0"/></symbol><symbol viewBox="0 0 96.124 96.123" id="facebook" xmlns="http://www.w3.org/2000/svg"><path d="M72.089.02L59.624 0C45.62 0 36.57 9.285 36.57 23.656v10.907H24.037a1.96 1.96 0 0 0-1.96 1.961v15.803a1.96 1.96 0 0 0 1.96 1.96H36.57v39.876a1.96 1.96 0 0 0 1.96 1.96h16.352a1.96 1.96 0 0 0 1.96-1.96V54.287h14.654a1.96 1.96 0 0 0 1.96-1.96l.006-15.803a1.963 1.963 0 0 0-1.961-1.961H56.842v-9.246c0-4.444 1.059-6.7 6.848-6.7l8.397-.003a1.96 1.96 0 0 0 1.959-1.96V1.98A1.96 1.96 0 0 0 72.089.02z"/></symbol><symbol viewBox="0 0 499.42 499.42" id="general" xmlns="http://www.w3.org/2000/svg"><path d="M277.087 180.337c12.604-13.077 19.558-30.285 19.558-48.467 0-38.499-31.31-69.81-69.809-69.81-38.496 0-69.809 31.311-69.809 69.81 0 18.176 6.945 35.39 19.564 48.467 2.226 2.313 2.17 5.998-.143 8.229a5.807 5.807 0 0 1-4.034 1.635c-1.528 0-3.042-.6-4.183-1.784-14.724-15.256-22.834-35.342-22.834-56.547 0-44.914 36.532-81.452 81.452-81.452 44.917 0 81.452 36.538 81.452 81.452 0 21.205-8.104 41.291-22.828 56.547-2.223 2.32-5.9 2.375-8.227.149a5.8 5.8 0 0 1-.159-8.229zm-136.284 43.848a5.828 5.828 0 0 0 .091-8.232c-22.116-22.597-34.3-52.458-34.3-84.082 0-66.296 53.938-120.236 120.236-120.236 66.295 0 120.234 53.94 120.234 120.236 0 31.63-12.179 61.491-34.301 84.088a5.813 5.813 0 0 0 .092 8.227 5.81 5.81 0 0 0 4.067 1.662 5.834 5.834 0 0 0 4.159-1.744c24.265-24.786 37.618-57.546 37.618-92.232C358.7 59.153 299.543 0 226.83 0 154.114 0 94.96 59.153 94.96 131.87c0 34.687 13.363 67.44 37.616 92.227 2.247 2.292 5.937 2.332 8.227.088zM383.654 473.81l-6.681 21.495a5.856 5.856 0 0 1-5.596 4.115h-.006l-124.414-.182a5.858 5.858 0 0 1-5.486-3.807 5.839 5.839 0 0 1 1.632-6.467c-.018 0 .993-1.113.911-3.111-.085-1.961-1.315-6.187-8.574-12.403-2.268-2.149-51.055-48.445-71.843-84.657-5.742-8.08-48.241-69.216-38.06-96.1 2.408-6.369 7.419-10.644 14.529-12.379 3.206-1.139 6.479-1.717 9.733-1.717 18.669 0 32.516 18.328 42.624 31.706 2.226 2.959 5.033 6.667 7.134 8.976.91-4.074 1.888-13.208 1.79-33.686 0-.207.006-.426.03-.646.037-.305 3.105-30.957 3.285-128.828-1.184-.244-2.338-.761-3.203-1.735a33.875 33.875 0 0 1-8.549-22.521c0-18.712 15.22-33.938 33.932-33.938s33.932 15.226 33.932 33.938c0 7.389-2.502 14.428-6.901 20.283.124 1.184.249 2.415.387 3.742 1.142 11.305 2.368 26.101 3.659 41.763 1.692 20.584 3.897 47.246 5.614 59.542 5.078-2.594 12.306-5.352 20.137-5.352 8.616 0 20.222 3.349 28.832 18.371 4.007-1.529 9.768-3.179 16.1-3.179 10.218 0 23.748 4.183 31.664 23.479 7.185 1.279 23.047 5.389 33.381 17.756 7.246 8.665 10.363 19.547 9.292 32.37.899 8.046 8.122 80.33-19.285 133.172zM204.532 131.87c0 2.362.438 4.664 1.16 6.872 3.574-21.062 12.607-25.815 19.966-25.815 9.931 0 19.129 9.252 23.352 17.747-.643-11.731-10.291-21.103-22.18-21.103-12.303-.006-22.298 10.002-22.298 22.299zm186.672 209.568a6.18 6.18 0 0 1-.012-1.261c.92-9.84-1.267-18.023-6.516-24.332-10.235-12.331-29.015-14.157-29.21-14.176-2.302-.213-4.286-1.747-5.035-3.927-4.402-12.781-11.552-18.986-21.854-18.986-8.378 0-15.795 4.158-15.868 4.201a5.857 5.857 0 0 1-4.725.481 5.828 5.828 0 0 1-3.532-3.167c-5.042-11.24-11.85-16.708-20.807-16.708-10.382 0-20.21 7.331-20.308 7.41a5.856 5.856 0 0 1-5.236.968c-5.413-1.607-5.985-1.777-11.886-73.328-1.34-16.146-2.887-34.924-4.196-46.829-.076-.387-.137-.749-.131-1.136-.53-4.683-1.017-8.205-1.428-9.819a5.953 5.953 0 0 1-.804-1.951c-1.212-5.624-8.948-14.237-14.018-14.237-3.318 0-7.721 5.913-9.28 22.56-.006 101.366-2.947 134.848-3.321 138.647.131 31.943-2.128 40.511-6.086 44.487-1.677 1.687-3.766 2.575-6.049 2.575-6.129 0-10.799-6.18-17.869-15.533-8.625-11.423-20.429-27.048-33.265-27.048-1.985 0-4.022.378-6.038 1.12-.225.08-.459.146-.697.207-4.472 1.035-5.849 3.312-6.567 5.188-6.092 16.1 19.342 60.916 36.809 85.376.119.152.216.322.317.499 19.848 34.727 69.182 81.552 69.672 82.015 8.162 6.99 12.415 14.213 12.452 21.275 0 .524-.024 1.023-.061 1.511l111.386.164 5.56-17.865c.104-.335.23-.664.396-.98 27.048-51.579 18.31-126.647 18.207-127.401z"/></symbol><symbol viewBox="0 0 60 60" id="house" xmlns="http://www.w3.org/2000/svg"><path d="M14 36.182h14v-10H14v10zm2-2v-3h10v3H16zm10-6v1H16v-1h10zm-12 12v12h14v-12H14zm6 2v3h-4v-3h4zm-4 5h4v3h-4v-3zm6 3v-3h4v3h-4zm4-5h-4v-3h4v3zm6-9h14v-10H32v10zm2-2v-1h10v1H34zm10-6v3H34v-3h10z"/><path d="M59 48.182a1 1 0 0 0-1 1v1h-1v-1a1 1 0 1 0-2 0v1h-1V29.978a3.975 3.975 0 0 0 1.626.363 4.01 4.01 0 0 0 3.984-4.322 4.017 4.017 0 0 0-1.522-2.833L32.722 3.345 30 .818 27.343 3.29 1.913 23.186a4.01 4.01 0 0 0-1.522 2.833 4.01 4.01 0 0 0 1.057 3.038 3.968 3.968 0 0 0 4.553.922v20.204H5v-1a1 1 0 1 0-2 0v1H2v-1a1 1 0 1 0-2 0v9a1 1 0 1 0 2 0v-1h1v1a1 1 0 1 0 2 0v-1h1v2h48v-2h1v1a1 1 0 1 0 2 0v-1h1v1a1 1 0 1 0 2 0v-9a1 1 0 0 0-1-1.001zM2.912 27.695a1.977 1.977 0 0 1-.527-1.518 1.975 1.975 0 0 1 .761-1.416L28.64 4.811l1.361-1.265 1.424 1.319 25.43 19.896c.446.349.716.852.761 1.416a1.979 1.979 0 0 1-.527 1.518 1.99 1.99 0 0 1-2.686.223l-.403-.31-24-18.5-23.61 18.2-.001.001-.791.609a1.99 1.99 0 0 1-2.686-.223zM2 55.182v-3h1v3H2zm3 0v-3h1v3H5zm29 2v-15h10v15H34zm18 0h-6v-17H32v17H8V28.591l22-16.959 22 16.959v28.591zm2-2v-3h1v3h-1zm3 0v-3h1v3h-1z"/></symbol><symbol viewBox="0 0 512 512" id="instagram" xmlns="http://www.w3.org/2000/svg"><path d="M352 0H160C71.648 0 0 71.648 0 160v192c0 88.352 71.648 160 160 160h192c88.352 0 160-71.648 160-160V160C512 71.648 440.352 0 352 0zm112 352c0 61.76-50.24 112-112 112H160c-61.76 0-112-50.24-112-112V160C48 98.24 98.24 48 160 48h192c61.76 0 112 50.24 112 112v192z"/><path d="M256 128c-70.688 0-128 57.312-128 128s57.312 128 128 128 128-57.312 128-128-57.312-128-128-128zm0 208c-44.096 0-80-35.904-80-80 0-44.128 35.904-80 80-80s80 35.872 80 80c0 44.096-35.904 80-80 80z"/><circle cx="393.6" cy="118.4" r="17.056"/></symbol><symbol viewBox="0 0 33 33" id="lamp" xmlns="http://www.w3.org/2000/svg"><path d="M28.194 22.282H4.806a.5.5 0 0 1-.5-.5V15.03c0-1.139.926-2.064 2.063-2.064h20.26c1.139 0 2.064.926 2.064 2.064v6.752a.498.498 0 0 1-.499.5zm-22.888-1h22.388V15.03c0-.587-.478-1.064-1.064-1.064H6.37c-.586 0-1.063.478-1.063 1.064v6.252z"/><path d="M26.629 30.488H6.37a2.066 2.066 0 0 1-2.063-2.064v-6.752a.5.5 0 0 1 .5-.5h23.388a.5.5 0 0 1 .5.5v6.752a2.068 2.068 0 0 1-2.066 2.064zM5.306 22.172v6.252c0 .587.478 1.064 1.063 1.064h20.26c.587 0 1.064-.478 1.064-1.064v-6.252H5.306z"/><path d="M8.03 33a.5.5 0 0 1-.462-.691l1.04-2.512a.5.5 0 0 1 .924.382l-1.04 2.512A.5.5 0 0 1 8.03 33zm16.939 0a.5.5 0 0 1-.462-.309l-1.039-2.512a.5.5 0 0 1 .924-.382l1.039 2.512a.5.5 0 0 1-.462.691zm-7.3-15.915H15.33a.5.5 0 0 1 0-1h2.339a.5.5 0 0 1 0 1zm0 8.206H15.33a.5.5 0 0 1 0-1h2.339a.5.5 0 0 1 0 1zm-.419-11.325H10.6a.5.5 0 0 1-.5-.5V11.44a.5.5 0 0 1 .5-.5h6.65a.5.5 0 0 1 .5.5v2.025a.5.5 0 0 1-.5.501zm-6.151-1h5.65V11.94h-5.65v1.026zm7.218-6.603H9.531a.5.5 0 0 1-.476-.652L10.771.348A.499.499 0 0 1 11.247 0h5.354c.218 0 .41.141.477.348l1.716 5.363a.505.505 0 0 1-.072.447.505.505 0 0 1-.405.205zm-8.102-1h7.417L16.236 1h-4.624l-1.397 4.363z"/><path d="M13.924 11.94a.5.5 0 0 1-.5-.5V5.863a.5.5 0 0 1 1 0v5.577c0 .277-.223.5-.5.5zM16.5 8.079a.5.5 0 0 1-.5-.5V5.863a.5.5 0 0 1 1 0v1.716a.5.5 0 0 1-.5.5z"/></symbol><symbol viewBox="0 0 467.211 467.211" id="laptop" xmlns="http://www.w3.org/2000/svg"><path d="M413.917 96.775H53.295c-6.369 0-11.551 5.181-11.551 11.55v213.182c0 6.369 5.182 11.55 11.551 11.55h360.622c6.368 0 11.55-5.181 11.55-11.55V108.326c0-6.369-5.182-11.551-11.55-11.551zm1.55 224.732c0 .855-.695 1.55-1.55 1.55H53.295a1.553 1.553 0 0 1-1.551-1.55V108.326c0-.855.695-1.55 1.551-1.55h360.622c.854 0 1.55.696 1.55 1.55v213.181z"/><path d="M459.711 340.558h-11.744V102.843c0-15.752-12.815-28.568-28.568-28.568H47.813c-15.753 0-28.568 12.815-28.568 28.568v237.714H7.5a7.5 7.5 0 0 0-7.5 7.5v20.605c0 13.384 10.889 24.272 24.272 24.272h418.666c13.384 0 24.272-10.889 24.272-24.272v-20.605a7.498 7.498 0 0 0-7.499-7.499zM34.244 102.843c0-7.481 6.087-13.568 13.568-13.568h371.586c7.481 0 13.568 6.086 13.568 13.568v237.714H34.244V102.843zm177.361 252.715h44v3.922a3.188 3.188 0 0 1-3.184 3.184h-37.633a3.187 3.187 0 0 1-3.184-3.184v-3.922zm240.607 13.105c0 5.113-4.159 9.272-9.272 9.272H24.273c-5.113 0-9.272-4.16-9.272-9.272v-13.105h186.605v3.922c0 7.27 5.914 13.184 13.184 13.184h37.633c7.27 0 13.184-5.914 13.184-13.184v-3.922h186.605v13.105z"/></symbol><symbol viewBox="0 0 45.917 45.917" id="location" xmlns="http://www.w3.org/2000/svg"><path d="M33.523 28.334a109.305 109.305 0 0 1-2.344 3.608c7.121 1.065 10.766 3.347 10.766 4.481 0 1.511-6.459 5.054-18.986 5.054-12.528 0-18.988-3.543-18.988-5.054 0-1.135 3.645-3.416 10.768-4.481a107.787 107.787 0 0 1-2.345-3.608C5.365 29.661 0 32.385 0 36.424c0 5.925 11.551 9.024 22.959 9.024s22.958-3.1 22.958-9.024c0-4.039-5.364-6.763-12.394-8.09z"/><path d="M22.96 36.047a3.236 3.236 0 0 0 2.613-1.325c3.905-5.33 10.813-15.508 10.813-20.827 0-7.416-6.012-13.427-13.427-13.427-7.417 0-13.427 6.011-13.427 13.427 0 5.318 6.906 15.497 10.812 20.827a3.246 3.246 0 0 0 2.616 1.325zM17.374 13.63a5.584 5.584 0 1 1 11.168 0 5.584 5.584 0 0 1-11.168 0z"/></symbol><symbol viewBox="0 0 60 60" id="notebook" xmlns="http://www.w3.org/2000/svg"><path d="M40.004.004H1V54h4v5.868l4-2.666 4 2.666V54h27.004A4.001 4.001 0 0 0 44 50.004V4A4.001 4.001 0 0 0 40.004.004zM3 2.004h28V17.01H3V2.004zM31 35.01H3v-16h28v16zM11 56.132l-2-1.334-2 1.334V54h4v2.132zM13 52H3V37.01h28V52H13zm20 0V2.004h3V52h-3zm5-32.99h4v16h-4v-16zm4 30.994c0 1.1-.896 1.996-1.996 1.996H38V37.01h4v12.994zM38 17.01V2.004h2.004C41.104 2.004 42 2.899 42 4v13.01h-4zM56.015 0h-4.029A2.989 2.989 0 0 0 49 2.985v47.281l4 7V59a1 1 0 1 0 2 0v-1.734l4-7V2.985A2.988 2.988 0 0 0 56.015 0zM51 9h6v2h-6V9zm3 45.984L51.723 51h4.554L54 54.984zM57 49h-6V13h6v36zM51 7V2.985c0-.543.442-.985.985-.985h4.029c.544 0 .986.442.986.985V7h-6z"/></symbol><symbol viewBox="0 0 488.1 488.1" id="price-tag" xmlns="http://www.w3.org/2000/svg"><path d="M360.8 174.6l-98.1-85.9c-5.2-4.5-11.8-7-18.7-7-6.9 0-13.5 2.5-18.7 7l-34.8 30.5c-2-7.4-3.1-15.2-3.1-23.3 0-19.6 6.2-38 17.4-51.7C215.4 31.2 229.4 24 244 24c31.2 0 56.6 32.2 56.6 71.9 0 6.6 5.4 12 12 12s12-5.4 12-12C324.6 43 288.4 0 244 0c-22 0-42.5 10.3-57.8 29-14.7 18-22.8 41.7-22.8 66.9 0 14.2 2.6 27.9 7.5 40.5l-43.6 38.2c-10.9 9.6-17.2 23.4-17.2 37.9v215.4c0 33.2 27 60.2 60.2 60.2h147.5c33.2 0 60.2-27 60.2-60.2V212.5c0-14.5-6.3-28.3-17.2-37.9zM354 427.9c0 20-16.2 36.2-36.2 36.2H170.2c-20 0-36.2-16.2-36.2-36.2V212.5c0-7.6 3.3-14.9 9-19.9l39.5-34.6 3.6 4.8c15.3 18.7 35.8 29 57.8 29 6.6 0 12-5.4 12-12s-5.4-12-12-12c-14.7 0-28.6-7.2-39.2-20.2-1.4-1.8-2.8-3.6-4.1-5.5l40.4-35.4c1-.9 2.1-1.1 2.9-1.1s1.9.2 2.9 1.1l98.1 85.9c5.7 5 9 12.3 9 19.9v215.4h.1z"/><path d="M257.2 303.5h-26.4c-9.3 0-16.9-7.6-16.9-16.9s7.6-16.9 16.9-16.9h46.5c6.6 0 12-5.4 12-12s-5.4-12-12-12H256v-15.6c0-6.6-5.4-12-12-12s-12 5.4-12 12v15.6h-1.2c-22.6 0-40.9 18.4-40.9 40.9 0 22.6 18.4 40.9 40.9 40.9h26.4c9.3 0 16.9 7.6 16.9 16.9s-7.6 16.9-16.9 16.9h-47.4c-6.6 0-12 5.4-12 12s5.4 12 12 12H232v15.9c0 6.6 5.4 12 12 12s12-5.4 12-12v-15.9h1.7c22.3-.3 40.4-18.5 40.4-40.9 0-22.6-18.4-40.9-40.9-40.9z"/></symbol><symbol viewBox="0 0 563.43 563.43" id="profile" xmlns="http://www.w3.org/2000/svg"><path d="M280.79 314.559c83.266 0 150.803-67.538 150.803-150.803S364.055 13.415 280.79 13.415 129.987 80.953 129.987 163.756s67.537 150.803 150.803 150.803zm0-261.824c61.061 0 111.021 49.959 111.021 111.021s-49.96 111.02-111.021 111.02-111.021-49.959-111.021-111.021 49.959-111.02 111.021-111.02zM19.891 550.015h523.648c11.102 0 19.891-8.789 19.891-19.891 0-104.082-84.653-189.198-189.198-189.198H189.198C85.116 340.926 0 425.579 0 530.124c0 11.102 8.789 19.891 19.891 19.891zm169.307-169.307h185.034c75.864 0 138.313 56.436 148.028 129.524H41.17c9.714-72.625 72.164-129.524 148.028-129.524z"/></symbol><symbol viewBox="0 -20 512.004 512" id="return" xmlns="http://www.w3.org/2000/svg"><path d="M256.004 472.004c-105.914 0-198.305-71.54-224.692-173.977-1.101-4.273 1.481-8.64 5.762-9.746 4.238-1.07 8.64 1.48 9.742 5.762 24.555 95.36 110.579 161.96 209.188 161.96 119.101 0 216-96.898 216-216 0-4.425 3.574-8 8-8 4.422 0 8 3.575 8 8 0 127.919-104.082 232-232 232zm-224-232c-4.426 0-8-3.578-8-8 0-127.922 104.078-232 232-232 105.91 0 198.3 71.535 224.687 173.973 1.102 4.273-1.48 8.64-5.761 9.746-4.215 1.113-8.633-1.48-9.742-5.762C440.633 82.6 354.609 16.004 256.004 16.004c-119.106 0-216 96.894-216 216 0 4.422-3.578 8-8 8zm0 0"/><path d="M32.004 240.004a7.965 7.965 0 0 1-5.656-2.348l-24-24a7.985 7.985 0 0 1 0-11.308 7.985 7.985 0 0 1 11.308 0l24 24a7.985 7.985 0 0 1 0 11.308 7.963 7.963 0 0 1-5.652 2.348zm0 0"/><path d="M32.004 240.004a7.965 7.965 0 0 1-5.656-2.348 7.985 7.985 0 0 1 0-11.308l24-24a7.985 7.985 0 0 1 11.308 0 7.985 7.985 0 0 1 0 11.308l-24 24a7.963 7.963 0 0 1-5.652 2.348zm472 24a7.965 7.965 0 0 1-5.656-2.348l-24-24a7.985 7.985 0 0 1 0-11.308 7.985 7.985 0 0 1 11.308 0l24 24a7.985 7.985 0 0 1 0 11.308 7.963 7.963 0 0 1-5.652 2.348zm0 0"/><path d="M456.004 264.004a7.965 7.965 0 0 1-5.656-2.348 7.985 7.985 0 0 1 0-11.308l24-24a7.985 7.985 0 0 1 11.308 0 7.985 7.985 0 0 1 0 11.308l-24 24a7.963 7.963 0 0 1-5.652 2.348zm-344.02 155.559c-4.421 0-8-3.579-8-8V207.922c0-4.426 3.579-8 8-8 4.426 0 8 3.574 8 8v203.64c0 4.422-3.574 8-8 8zm288.036.015a7.99 7.99 0 0 1-8-8V207.922c0-4.426 3.574-8 8-8 4.421 0 8 3.574 8 8v203.656c0 4.426-3.579 8-8 8zm0 0"/><path d="M400.02 215.922H111.984c-4.421 0-8-3.574-8-8s3.579-8 8-8H400.02c4.421 0 8 3.574 8 8s-3.579 8-8 8zm0 0"/><path d="M111.977 215.922a7.928 7.928 0 0 1-4.11-1.145c-3.793-2.27-5.015-7.183-2.746-10.976l24-40.016c2.266-3.781 7.176-5.015 10.977-2.742 3.793 2.27 5.015 7.184 2.746 10.977l-24 40.015a7.977 7.977 0 0 1-6.867 3.887zm288.05 0a7.987 7.987 0 0 1-6.867-3.879l-24-40.016c-2.27-3.793-1.047-8.707 2.746-10.976a8.006 8.006 0 0 1 10.977 2.742l24 40.016c2.27 3.793 1.047 8.707-2.746 10.976a8.014 8.014 0 0 1-4.11 1.137zm0 0"/><path d="M376.02 175.906H135.984c-4.422 0-8-3.578-8-8 0-4.426 3.578-8 8-8H376.02c4.421 0 8 3.574 8 8 0 4.422-3.579 8-8 8zm0 0"/><path d="M223.992 215.922a7.53 7.53 0 0 1-1.574-.16 7.995 7.995 0 0 1-6.273-9.414l8-40.02c.859-4.324 5.035-7.176 9.417-6.27a7.995 7.995 0 0 1 6.274 9.415l-8 40.015c-.762 3.809-4.106 6.434-7.844 6.434zm64 0c-3.734 0-7.078-2.625-7.832-6.434l-8-40.015a8.005 8.005 0 0 1 6.274-9.414c4.39-.899 8.55 1.945 9.418 6.27l8 40.019a8.005 8.005 0 0 1-6.274 9.414c-.535.113-1.07.16-1.586.16zm0 0"/><path d="M223.984 263.922c-4.422 0-8-3.574-8-8v-48c0-4.426 3.578-8 8-8 4.426 0 8 3.574 8 8v48c0 4.426-3.574 8-8 8zm64.02 0a7.99 7.99 0 0 1-8-8v-48c0-4.426 3.574-8 8-8 4.422 0 8 3.574 8 8v48c0 4.426-3.578 8-8 8zm0 0"/><path d="M288.012 263.922c-.64 0-1.297-.078-1.946-.238l-32-8c-4.289-1.075-6.894-5.418-5.824-9.7 1.063-4.293 5.399-6.91 9.696-5.824l32 8c4.289 1.074 6.898 5.418 5.824 9.7a7.987 7.987 0 0 1-7.75 6.062zm0 0"/><path d="M223.977 263.922a8 8 0 0 1-7.75-6.063c-1.082-4.28 1.527-8.625 5.824-9.699l32.015-8c4.274-1.094 8.625 1.531 9.696 5.824 1.082 4.282-1.528 8.625-5.824 9.7l-32.016 8a8.131 8.131 0 0 1-1.945.238zm104.058 96.016H183.97c-4.422 0-8-3.575-8-8 0-4.422 3.578-8 8-8h144.066c4.422 0 8 3.578 8 8 0 4.425-3.578 8-8 8zm0-31.934H183.97c-4.422 0-8-3.578-8-8 0-4.426 3.578-8 8-8h144.066c4.422 0 8 3.574 8 8 0 4.422-3.578 8-8 8zm-40.015 63.949h-64.036c-4.422 0-8-3.574-8-8 0-4.422 3.578-8 8-8h64.036c4.421 0 8 3.578 8 8 0 4.426-3.579 8-8 8zm0 0"/></symbol><symbol viewBox="0 1 512 511" id="return-product" xmlns="http://www.w3.org/2000/svg"><path d="M506.813 111.23L307.405 1.734a10.005 10.005 0 0 0-9.625 0l-75.16 41.27a10.029 10.029 0 0 0-4.293 2.36L98.378 111.23a9.994 9.994 0 0 0-5.187 8.766v132.43c-20.234 6.328-38.777 17.488-54.195 32.91C-1.19 325.52-11.438 386.809 13.5 437.844c2.422 4.96 8.41 7.02 13.371 4.594 4.965-2.426 7.02-8.415 4.598-13.375-21.188-43.364-12.48-95.438 21.668-129.586 21.355-21.356 49.746-33.118 79.945-33.118s58.59 11.762 79.945 33.118c21.352 21.351 33.114 49.742 33.114 79.941s-11.762 58.59-33.118 79.945c-34.148 34.149-86.222 42.856-129.585 21.668-4.961-2.426-10.95-.367-13.372 4.594-2.425 4.965-.37 10.953 4.594 13.375a132.667 132.667 0 0 0 58.336 13.5c34.543-.004 68.625-13.45 94.172-38.996 11.715-11.715 20.973-25.23 27.523-39.922l43.09 23.66a9.987 9.987 0 0 0 9.625 0L506.812 347.75a10.003 10.003 0 0 0 5.188-8.766v-69.496c0-5.523-4.477-10-10-10s-10 4.477-10 10v63.578l-179.375 98.497V235.39l59.2-32.508v51.531a9.996 9.996 0 0 0 10 10 9.99 9.99 0 0 0 4.82-1.238l42.73-23.52a9.992 9.992 0 0 0 5.176-8.758v-62.46L492 136.895v52.597c0 5.524 4.477 10 10 10s10-4.476 10-10v-69.496a9.998 9.998 0 0 0-5.188-8.766zm-204.22-89.324l178.63 98.09-56.348 30.942-178.629-98.09zm0 196.176l-178.628-98.086 58.414-32.078 178.633 98.086zm79.192-43.484L203.156 76.512l22.313-12.254 178.633 98.086zM227.168 285.336c-25.133-25.133-58.547-38.973-94.086-38.973-6.723 0-13.363.496-19.89 1.469V136.895l179.437 98.53v196.173l-31.145-17.102c3.067-11.289 4.653-23.062 4.653-35.078 0-35.54-13.84-68.953-38.969-94.082zm187.387-60.348l-22.73 12.512v-45.598l22.73-12.48zm0 0"/><path d="M502 219.441a10.08 10.08 0 0 0-7.07 2.93 10.073 10.073 0 0 0-2.93 7.07 10.07 10.07 0 0 0 2.93 7.067c1.86 1.863 4.441 2.93 7.07 2.93s5.21-1.067 7.07-2.93a10.07 10.07 0 0 0 2.93-7.067c0-2.632-1.07-5.21-2.93-7.07a10.08 10.08 0 0 0-7.07-2.93zM99.457 389.418a9.973 9.973 0 0 0 7.07-2.926c3.907-3.906 3.907-10.238 0-14.144l-6.925-6.93h59.101c14.336 0 26 11.664 26 26s-11.664 26-26 26h-35.02c-5.523 0-10 4.477-10 10 0 5.52 4.477 9.996 10 9.996h35.02c25.363 0 46-20.633 46-45.996s-20.637-45.996-46-45.996H99.602l6.925-6.93c3.907-3.906 3.907-10.238 0-14.144-3.902-3.903-10.234-3.903-14.14 0l-24 24c-3.903 3.906-3.903 10.238 0 14.144l24 23.996a9.968 9.968 0 0 0 7.07 2.93zM46.074 476.45a9.953 9.953 0 0 1-7.64-3.56l-.02-.023c-3.555-4.226-3.008-10.531 1.219-14.086 4.226-3.558 10.535-3.011 14.09 1.215 3.55 4.23 3.015 10.547-1.211 14.102a9.979 9.979 0 0 1-6.438 2.351zm0 0"/></symbol><symbol viewBox="0 0 512 512" id="sale" xmlns="http://www.w3.org/2000/svg"><path d="M456.828 0H338.355c-26.007 0-60.789 14.406-79.175 32.797L16.11 275.863C5.718 286.25 0 300.102 0 314.871c0 14.77 5.723 28.621 16.11 39.008L158.116 495.89c10.388 10.387 24.239 16.11 39.009 16.11 14.766 0 28.621-5.723 39.012-16.11l243.066-243.07C497.593 234.434 512 199.652 512 173.645V55.165C511.996 24.745 487.246 0 456.828 0zM482 173.645c0 18.09-11.219 45.175-24.008 57.964l-243.07 243.067c-4.723 4.722-11.043 7.324-17.797 7.324s-13.07-2.602-17.793-7.32L37.324 332.664C32.602 327.941 30 321.621 30 314.871c0-6.754 2.598-13.074 7.32-17.793l243.07-243.07C293.18 41.218 320.267 30 338.356 30h118.473c13.879 0 25.168 11.29 25.172 25.164zm0 0"/><path d="M139.309 331.492c-5.454-5.449-4.09-13.402 4.086-21.586 9.546-9.543 16.476-7.84 20-11.36 4.09-4.089.68-11.136-1.934-13.745-7.5-7.5-23.973 5.793-30.676 12.496-13.066 13.066-21.812 33.402-4.887 50.332 26.926 26.926 58.172-14.77 75.215 2.273 6.817 6.817 3.977 15.79-2.84 22.61-11.59 11.586-23.406 5.906-28.062 10.562-3.524 3.524-1.703 11.25 1.476 14.434 6.59 6.59 25.45 2.726 40.333-12.16 15.68-15.676 18.632-35.45 2.386-51.696-29.426-29.422-61.011 11.934-75.097-2.16zm158.828-48.847l-93.395-49.536c-4.43-2.386-10.226.227-14.543 4.547-4.203 4.2-6.816 9.996-4.43 14.43l49.536 93.39c.34.567.683 1.133.91 1.364 3.637 3.633 11.476.793 15.45-3.184 2.5-2.496 3.64-5.226 2.046-7.953l-10.793-19.426 26.02-26.02 19.425 10.798c2.73 1.586 5.453.453 7.953-2.047 3.977-3.977 6.704-11.934 3.18-15.453-.336-.34-.793-.57-1.36-.91zm-63.739 18.976l-24.996-44.77 44.766 25zm108.61-75.211l-27.723 27.723-65.555-65.559c-3.183-3.18-8.292-.793-11.93 2.84-3.745 3.75-6.023 8.75-2.84 11.934l73.849 73.851c3.07 3.067 7.84 1.477 11.136-1.82l36.016-36.016c2.953-2.953 1.137-7.726-2.047-10.906-3.293-3.297-7.95-5.004-10.906-2.047zm59.418-59.418l-32.153 32.153-22.836-22.836 17.27-17.27c3.18-3.18 1.59-7.726-1.023-10.34-3.067-3.066-7.614-4.199-10.567-1.246l-17.27 17.266-22.722-22.723 32.152-32.148c2.953-2.957 1.59-7.727-1.93-11.25-3.07-3.067-7.84-4.887-11.023-1.707L291.88 137.34c-3.293 3.293-4.887 8.066-1.817 11.133l73.739 73.734c3.066 3.07 7.836 1.48 11.133-1.816l40.445-40.446c3.183-3.18 1.363-7.953-1.703-11.02-3.524-3.523-8.297-4.886-11.25-1.933zm15.043-86.594c-3.95 0-7.82 1.602-10.61 4.391a15.114 15.114 0 0 0-4.39 10.61 15.09 15.09 0 0 0 4.39 10.601c2.79 2.8 6.66 4.398 10.61 4.398s7.808-1.597 10.601-4.398a15.084 15.084 0 0 0 4.399-10.602c0-3.949-1.602-7.82-4.399-10.609a15.103 15.103 0 0 0-10.601-4.39zm0 0"/></symbol><symbol viewBox="0 0 56.966 56.966" id="search" xmlns="http://www.w3.org/2000/svg"><path d="M55.146 51.887L41.588 37.786A22.926 22.926 0 0 0 46.984 23c0-12.682-10.318-23-23-23s-23 10.318-23 23 10.318 23 23 23c4.761 0 9.298-1.436 13.177-4.162l13.661 14.208c.571.593 1.339.92 2.162.92.779 0 1.518-.297 2.079-.837a3.004 3.004 0 0 0 .083-4.242zM23.984 6c9.374 0 17 7.626 17 17s-7.626 17-17 17-17-7.626-17-17 7.626-17 17-17z"/></symbol><symbol viewBox="-41 0 374 374.106" id="security" xmlns="http://www.w3.org/2000/svg"><path d="M287.664 75.746L147.06.824a6.986 6.986 0 0 0-6.657.04L3.688 75.784a7 7 0 0 0-3.633 6.14v97.868c.082 80.45 47.746 153.23 121.457 185.46l18.976 8.27a6.992 6.992 0 0 0 5.57.008l21.383-9.234c75.079-31.531 123.922-105.016 123.93-186.445V81.926a7.003 7.003 0 0 0-3.707-6.18zm-10.293 102.106c-.016 75.816-45.504 144.226-115.41 173.566l-.047.023-18.621 8.04-16.18-7.06C58.5 322.422 14.13 254.68 14.051 179.794V86.07l129.762-71.117L277.37 86.121zm0 0"/><path d="M92.168 175.254a7 7 0 0 0-9.871-.777 6.995 6.995 0 0 0-.777 9.867l36.976 43.3a6.998 6.998 0 0 0 9.738.887l86.118-70.062a7 7 0 0 0-8.836-10.86l-80.813 65.743zm0 0"/></symbol><symbol viewBox="0 0 492.004 492.004" id="shevron-right" xmlns="http://www.w3.org/2000/svg"><path d="M382.678 226.804L163.73 7.86C158.666 2.792 151.906 0 144.698 0s-13.968 2.792-19.032 7.86l-16.124 16.12c-10.492 10.504-10.492 27.576 0 38.064L293.398 245.9l-184.06 184.06c-5.064 5.068-7.86 11.824-7.86 19.028 0 7.212 2.796 13.968 7.86 19.04l16.124 16.116c5.068 5.068 11.824 7.86 19.032 7.86s13.968-2.792 19.032-7.86L382.678 265c5.076-5.084 7.864-11.872 7.848-19.088.016-7.244-2.772-14.028-7.848-19.108z"/></symbol><symbol viewBox="0 0 35 35" id="smartphone-call" xmlns="http://www.w3.org/2000/svg"><path d="M25.302 0H9.698a2.37 2.37 0 0 0-2.364 2.364v30.271A2.371 2.371 0 0 0 9.698 35h15.604a2.37 2.37 0 0 0 2.364-2.364V2.364A2.37 2.37 0 0 0 25.302 0zM15.004 1.704h4.992a.286.286 0 0 1 0 .573h-4.992a.286.286 0 1 1 0-.573zM17.5 33.818a1.182 1.182 0 1 1 0-2.364 1.182 1.182 0 0 1 0 2.364zm8.521-3.193H8.979V3.749h17.042v26.876z"/></symbol><symbol viewBox="0 0 64 64" id="stove" xmlns="http://www.w3.org/2000/svg"><path d="M61 35h-8v-3a1 1 0 0 0-1-1H38a1 1 0 0 0-1 1v3H27v-3a1 1 0 0 0-1-1H12a1 1 0 0 0-1 1v3H3a1 1 0 0 0-1 1v4a1 1 0 0 0 1 1h1v20a1 1 0 0 0 1 1h54a1 1 0 0 0 1-1V41h1a1 1 0 0 0 1-1v-4a1 1 0 0 0-1-1zm-22-2h12v2H39zm-26 0h12v2H13zm-7 8h25v19H6zm52 19H33V41h25zm2-21H4v-2h56zM10 18h44a1 1 0 0 0 1-1v-6a1 1 0 0 0-.445-.832L49 6.465V3a1 1 0 0 0-1-1H16a1 1 0 0 0-1 1v3.465l-5.555 3.7A1 1 0 0 0 9 11v6a1 1 0 0 0 1 1zM47 4v2H17V4zM16.3 8h31.4l3 2H13.3zM11 12h42v4H11z"/><path d="M15 13h4v2h-4zm6 0h4v2h-4zm6 0h4v2h-4zm6 0h4v2h-4zm6 0h4v2h-4zm6 0h4v2h-4zM27 47h2v4h-2zm8 0h2v4h-2z"/></symbol><symbol viewBox="0 0 300 300" id="telegram" xmlns="http://www.w3.org/2000/svg"><path d="M5.299 144.645l69.126 25.8 26.756 86.047c1.712 5.511 8.451 7.548 12.924 3.891l38.532-31.412a11.496 11.496 0 0 1 14.013-.391l69.498 50.457c4.785 3.478 11.564.856 12.764-4.926L299.823 29.22c1.31-6.316-4.896-11.585-10.91-9.259L5.218 129.402c-7.001 2.7-6.94 12.612.081 15.243zm91.57 12.066l135.098-83.207c2.428-1.491 4.926 1.792 2.841 3.726L123.313 180.87a23.112 23.112 0 0 0-7.163 13.829l-3.798 28.146c-.503 3.758-5.782 4.131-6.819.494l-14.607-51.325c-1.673-5.854.765-12.107 5.943-15.303z"/></symbol><symbol viewBox="0 0 512 512" id="truck" xmlns="http://www.w3.org/2000/svg"><path d="M476.158 231.363l-13.259-53.035c3.625-.77 6.345-3.986 6.345-7.839v-8.551c0-18.566-15.105-33.67-33.67-33.67h-60.392V110.63c0-9.136-7.432-16.568-16.568-16.568H50.772c-9.136 0-16.568 7.432-16.568 16.568V256a8.017 8.017 0 0 0 16.034 0V110.63c0-.295.239-.534.534-.534h307.841c.295 0 .534.239.534.534v145.372a8.017 8.017 0 0 0 16.034 0v-9.088h94.569l.021.002.022-.001c11.637.008 21.518 7.646 24.912 18.171h-24.928a8.017 8.017 0 0 0-8.017 8.017v17.102c0 13.851 11.268 25.119 25.119 25.119h9.086v35.273h-20.962c-6.886-19.883-25.787-34.205-47.982-34.205s-41.097 14.322-47.982 34.205h-3.86v-60.393a8.017 8.017 0 0 0-16.034 0v60.391H192.817c-6.886-19.883-25.787-34.205-47.982-34.205s-41.097 14.322-47.982 34.205H50.772a.534.534 0 0 1-.534-.534v-17.637h34.739a8.017 8.017 0 0 0 0-16.034H8.017a8.017 8.017 0 0 0 0 16.034h26.188v17.637c0 9.136 7.432 16.568 16.568 16.568h43.304c-.002.178-.014.355-.014.534 0 27.996 22.777 50.772 50.772 50.772s50.772-22.776 50.772-50.772c0-.18-.012-.356-.014-.534h180.67c-.002.178-.014.355-.014.534 0 27.996 22.777 50.772 50.772 50.772 27.995 0 50.772-22.776 50.772-50.772 0-.18-.012-.356-.014-.534h26.203a8.017 8.017 0 0 0 8.017-8.017v-85.511c.001-21.112-15.576-38.653-35.841-41.738zm-100.976-87.062h60.392c9.725 0 17.637 7.912 17.637 17.637v.534h-78.029v-18.171zm0 86.58v-52.376h71.235l13.094 52.376h-84.329zM144.835 401.904c-19.155 0-34.739-15.583-34.739-34.739s15.584-34.739 34.739-34.739c19.155 0 34.739 15.583 34.739 34.739s-15.584 34.739-34.739 34.739zm282.188 0c-19.155 0-34.739-15.583-34.739-34.739s15.584-34.739 34.739-34.739c19.155 0 34.739 15.583 34.739 34.739s-15.584 34.739-34.739 34.739zm68.944-102.614h-9.086c-5.01 0-9.086-4.076-9.086-9.086v-9.086h18.171v18.172z"/><path d="M144.835 350.597c-9.136 0-16.568 7.432-16.568 16.568 0 9.136 7.432 16.568 16.568 16.568 9.136 0 16.568-7.432 16.568-16.568 0-9.136-7.432-16.568-16.568-16.568zm282.188 0c-9.136 0-16.568 7.432-16.568 16.568 0 9.136 7.432 16.568 16.568 16.568 9.136 0 16.568-7.432 16.568-16.568 0-9.136-7.432-16.568-16.568-16.568zm-94.063-34.204H213.244a8.017 8.017 0 0 0 0 16.034H332.96a8.017 8.017 0 0 0 0-16.034zm-205.227-34.205H25.119a8.017 8.017 0 0 0 0 16.034h102.614a8.017 8.017 0 0 0 0-16.034zM278.771 173.37a8.017 8.017 0 0 0-11.337.001l-71.292 71.291-37.087-37.087a8.016 8.016 0 0 0-11.337 0 8.016 8.016 0 0 0 0 11.337l42.756 42.756c1.565 1.566 3.617 2.348 5.668 2.348s4.104-.782 5.668-2.348l76.96-76.96a8.018 8.018 0 0 0 .001-11.338z"/></symbol><symbol viewBox="0 0 512 512" id="twitter" xmlns="http://www.w3.org/2000/svg"><path d="M512 97.248c-19.04 8.352-39.328 13.888-60.48 16.576 21.76-12.992 38.368-33.408 46.176-58.016-20.288 12.096-42.688 20.64-66.56 25.408C411.872 60.704 384.416 48 354.464 48c-58.112 0-104.896 47.168-104.896 104.992 0 8.32.704 16.32 2.432 23.936-87.264-4.256-164.48-46.08-216.352-109.792-9.056 15.712-14.368 33.696-14.368 53.056 0 36.352 18.72 68.576 46.624 87.232-16.864-.32-33.408-5.216-47.424-12.928v1.152c0 51.008 36.384 93.376 84.096 103.136-8.544 2.336-17.856 3.456-27.52 3.456-6.72 0-13.504-.384-19.872-1.792 13.6 41.568 52.192 72.128 98.08 73.12-35.712 27.936-81.056 44.768-130.144 44.768-8.608 0-16.864-.384-25.12-1.44C46.496 446.88 101.6 464 161.024 464c193.152 0 298.752-160 298.752-298.688 0-4.64-.16-9.12-.384-13.568 20.832-14.784 38.336-33.248 52.608-54.496z"/></symbol><symbol viewBox="0 0 55 55" id="user" xmlns="http://www.w3.org/2000/svg"><path d="M55 27.5C55 12.337 42.663 0 27.5 0S0 12.337 0 27.5c0 8.009 3.444 15.228 8.926 20.258l-.026.023.892.752c.058.049.121.089.179.137.474.393.965.766 1.465 1.127.162.117.324.234.489.348.534.368 1.082.717 1.642 1.048.122.072.245.142.368.212a27.44 27.44 0 0 0 1.88.98l.142.064a27.252 27.252 0 0 0 6.651 2.105l.184.033c.724.125 1.456.225 2.197.292.09.008.18.013.271.021.738.061 1.484.1 2.24.1.749 0 1.488-.039 2.222-.098l.279-.021a27.808 27.808 0 0 0 2.178-.287l.187-.034a27.251 27.251 0 0 0 6.557-2.055c.076-.035.153-.068.229-.104a27.639 27.639 0 0 0 2.25-1.189 27.514 27.514 0 0 0 1.581-1c.185-.126.366-.259.549-.391.439-.316.87-.642 1.289-.983.093-.075.193-.14.284-.217l.915-.764-.027-.023C51.523 42.802 55 35.55 55 27.5zm-53 0C2 13.439 13.439 2 27.5 2S53 13.439 53 27.5c0 7.577-3.325 14.389-8.589 19.063a7.494 7.494 0 0 0-.893-.537l-8.467-4.233a2.217 2.217 0 0 1-1.232-1.993v-2.957c.196-.242.403-.516.617-.817a20.378 20.378 0 0 0 2.616-5.123 3.63 3.63 0 0 0 2.085-3.289v-3.545c0-.867-.318-1.708-.887-2.369v-4.667c.052-.519.236-3.448-1.883-5.864C34.524 9.065 31.541 8 27.5 8s-7.024 1.065-8.867 3.168c-2.119 2.416-1.935 5.345-1.883 5.864v4.667a3.644 3.644 0 0 0-.887 2.369v3.545c0 1.101.494 2.128 1.34 2.821.81 3.173 2.477 5.575 3.093 6.389v2.894a2.23 2.23 0 0 1-1.162 1.958l-7.907 4.313a7.227 7.227 0 0 0-.752.476C5.276 41.792 2 35.022 2 27.5zm40.459 20.632c-.35.254-.706.5-1.067.735-.166.108-.331.216-.5.321-.472.292-.952.57-1.442.83-.108.057-.217.111-.326.167a25.481 25.481 0 0 1-3.488 1.476l-.127.043c-.627.208-1.262.393-1.904.552l-.006.001a25.59 25.59 0 0 1-1.964.402l-.054.01c-.621.101-1.247.174-1.875.229-.111.01-.222.017-.334.025-.621.047-1.245.077-1.872.077a25.43 25.43 0 0 1-1.895-.078c-.109-.008-.218-.015-.326-.025a25.862 25.862 0 0 1-1.89-.233l-.084-.015a25.405 25.405 0 0 1-3.89-.971l-.118-.04a25.86 25.86 0 0 1-1.862-.713l-.013-.006a26.094 26.094 0 0 1-1.705-.816c-.073-.038-.147-.074-.219-.113a25.7 25.7 0 0 1-1.939-1.155 25.417 25.417 0 0 1-1.338-.933l-.133-.104.096-.054 7.907-4.313a4.229 4.229 0 0 0 2.205-3.714l-.001-3.602-.23-.278c-.022-.025-2.184-2.655-3.001-6.216l-.091-.396-.341-.221a1.657 1.657 0 0 1-.769-1.392v-3.545c0-.465.197-.898.557-1.223l.33-.298v-5.57l-.009-.131c-.003-.024-.298-2.429 1.396-4.36C21.583 10.837 24.061 10 27.5 10c3.426 0 5.896.83 7.346 2.466 1.692 1.911 1.415 4.361 1.413 4.381l-.009 5.701.33.298c.359.324.557.758.557 1.223v3.545a1.67 1.67 0 0 1-1.181 1.575l-.497.153-.16.495a18.5 18.5 0 0 1-2.496 5.032c-.262.37-.517.698-.736.949l-.248.283V39.8c0 1.612.896 3.062 2.338 3.782l8.467 4.233.16.083c-.107.081-.217.156-.325.234z"/></symbol><symbol viewBox="0 0 480 480" id="washing-machine" xmlns="http://www.w3.org/2000/svg"><path d="M240 416c56.65-.018 108.026-33.25 131.272-84.912a143.509 143.509 0 0 0 0-118.12c-32.602-72.539-117.837-104.914-190.376-72.312-72.539 32.602-104.914 117.837-72.312 190.376 23.25 51.731 74.7 84.996 131.416 84.968zM123.241 219.512C143.904 173.553 189.61 143.994 240 144c50.386.036 96.07 29.611 116.728 75.568a127.582 127.582 0 0 1 0 104.92c-28.988 64.476-104.756 93.244-169.231 64.255-64.476-28.988-93.244-104.755-64.256-169.231z"/><path d="M416 0H64C50.745 0 40 10.745 40 24v432c0 13.255 10.745 24 24 24h352c13.255 0 24-10.745 24-24V24c0-13.255-10.745-24-24-24zm8 456a8 8 0 0 1-8 8H64a8 8 0 0 1-8-8v-8h368v8zm0-24H56V112h368v320zm0-336H56V24a8 8 0 0 1 8-8h352a8 8 0 0 1 8 8v72z"/><path d="M240 384c3.616 0 7.2-.232 10.752-.576a109.574 109.574 0 0 0 31.4-7.688c.8-.32 1.6-.592 2.4-.928s1.76-.8 2.64-1.256c1.384-.64 2.784-1.256 4.144-1.952 54.998-28.356 76.596-95.928 48.24-150.927a111.87 111.87 0 0 0-60.608-53.689c-.48-.176-.936-.384-1.416-.552a111.797 111.797 0 0 0-26.76-5.864C247.2 160.232 243.616 160 240 160c-61.856 0-112 50.144-112 112s50.144 112 112 112zm88.728-148.448v.056c.176.432.408.848.584 1.28.416 1.064.8 2.144 1.144 3.2.8 2.296 1.552 4.608 2.184 6.952.331 1.211.635 2.427.912 3.648.544 2.4.968 4.8 1.32 7.2.168 1.112.368 2.216.488 3.336a90.336 90.336 0 0 1 0 21.464c-.12 1.112-.32 2.208-.48 3.312-.36 2.4-.8 4.864-1.328 7.256-.28 1.224-.584 2.4-.904 3.632-.64 2.4-1.376 4.68-2.2 6.984-.376 1.064-.72 2.136-1.136 3.2-.176.432-.408.848-.584 1.28-20.103-17.24-22.424-47.513-5.184-67.616a47.876 47.876 0 0 1 5.184-5.184zm-170.127-14.496A95.997 95.997 0 0 1 240 176a95.73 95.73 0 0 1 81.336 45.056c-28.136 21.293-33.683 61.362-12.39 89.498a63.865 63.865 0 0 0 12.39 12.39c-28.136 44.938-87.374 58.559-132.312 30.424-44.938-28.136-58.559-87.374-30.423-132.312z"/><path d="M176 272c.04-35.33 28.67-63.96 64-64a8 8 0 0 0 0-16c-44.163.048-79.951 35.837-80 80a8 8 0 0 0 16 0zM336 40h-32a8 8 0 0 0 0 16h32a8 8 0 0 0 0-16zm0 24h-32a8 8 0 0 0 0 16h32a8 8 0 0 0 0-16zM184 40h-32a8 8 0 0 0 0 16h32a8 8 0 0 0 0-16zm0 24h-32a8 8 0 0 0 0 16h32a8 8 0 0 0 0-16zm216-24h-32a8 8 0 0 0 0 16h32a8 8 0 0 0 0-16zm0 24h-32a8 8 0 0 0 0 16h32a8 8 0 0 0 0-16zM256 24c-17.673 0-32 14.327-32 32s14.327 32 32 32c17.673 0 32-14.327 32-32s-14.327-32-32-32zm0 48c-8.837 0-16-7.163-16-16s7.163-16 16-16 16 7.163 16 16-7.163 16-16 16zM104 24c-17.673 0-32 14.327-32 32s14.327 32 32 32 32-14.327 32-32-14.327-32-32-32zm0 48c-8.837 0-16-7.163-16-16s7.163-16 16-16 16 7.163 16 16-7.163 16-16 16z"/></symbol></svg>