<?xml version="1.0" encoding="utf-8"?>
<!-- Generator: Adobe Illustrator 23.0.2, SVG Export Plug-In . SVG Version: 6.00 Build 0)  -->
<svg version="1.1" id="Capa_1" xmlns="http://www.w3.org/2000/svg" xmlns:xlink="http://www.w3.org/1999/xlink" x="0px" y="0px"
	 viewBox="0 0 455.7 455.7" style="enable-background:new 0 0 455.7 455.7;" xml:space="preserve">
<style type="text/css">
	.st0{fill:#07991B;}
	.st1{fill:#F0F2F0;}
</style>
<g>
	<rect class="st0" width="455.7" height="455.7"/>
	<g>
		<path class="st1" d="M83.7,372l20.2-71.6c-13-22-19.8-47.1-19.8-72.8c0-79.3,64.6-143.8,143.9-143.8S372,148.2,372,227.5
			s-64.6,143.8-143.9,143.8c-24.7,0-49-6.3-70.4-18.3L83.7,372z M161.5,326.8l4.4,2.7c18.7,11.4,40.2,17.4,62.2,17.4
			c65.9,0,119.5-53.6,119.5-119.4S294,108.1,228.1,108.1s-119.5,53.6-119.5,119.4c0,22.9,6.5,45.2,18.9,64.4l3,4.6l-11.6,41.2
			L161.5,326.8z"/>
		<path class="st1" d="M187.6,160.6l-9.3-0.5c-2.9-0.2-5.8,0.8-8,2.7c-4.5,3.9-11.8,11.5-14,21.4c-3.3,14.8,1.8,32.8,15.1,50.9
			c13.3,18.1,38,47,81.7,59.3c14.1,4,25.2,1.3,33.7-4.2c6.8-4.3,11.4-11.3,13.1-19.1l1.5-7c0.5-2.2-0.7-4.5-2.7-5.4l-31.6-14.5
			c-2-0.9-4.5-0.3-5.9,1.4l-12.4,16c-0.9,1.2-2.5,1.7-4,1.2c-8.5-3-36.9-14.9-52.5-44.9c-0.7-1.3-0.5-2.9,0.5-4l11.8-13.7
			c1.2-1.4,1.5-3.4,0.8-5.1l-13.6-31.8C191.1,161.8,189.5,160.7,187.6,160.6z"/>
	</g>
</g>
</svg>
