<?xml version="1.0" encoding="utf-8"?>
<!-- Generator: Adobe Illustrator 22.0.1, SVG Export Plug-In . SVG Version: 6.00 Build 0)  -->
<svg version="1.1" id="Слой_1" xmlns="http://www.w3.org/2000/svg" xmlns:xlink="http://www.w3.org/1999/xlink" x="0px" y="0px"
	 viewBox="0 0 100 100" style="enable-background:new 0 0 100 100;" xml:space="preserve">
<style type="text/css">
	.st0{fill:#DC4844;}
	.st1{fill:#34495E;}
	.st2{fill:#E9EDF2;}
</style>
<ellipse class="st0" cx="50.5" cy="50.2" rx="48.5" ry="48.8"/>
<path class="st1" d="M45.8,82H25.7c-2.6,0-4.7-2.1-4.7-4.7V23.7c0-2.6,2.1-4.7,4.7-4.7h20.2c2.6,0,4.7,2.1,4.7,4.7v53.7
	C50.5,79.9,48.4,82,45.8,82z"/>
<path class="st1" d="M68.5,76.8h-17c-1.8,0-3.3-1.5-3.3-3.3V34c0-1.8,1.5-3.3,3.3-3.3h17c1.8,0,3.3,1.5,3.3,3.3v39.5
	C71.8,75.3,70.3,76.8,68.5,76.8z"/>
<path class="st1" d="M80.7,73.7h-4.2c-2.2,0-4.1-1.8-4.1-4.1V57.3c0-2.2,1.8-4.1,4.1-4.1h4.2c2.2,0,4.1,1.8,4.1,4.1v12.4
	C84.8,71.8,82.9,73.7,80.7,73.7z"/>
<path class="st2" d="M28.1,63.8h-3c-1.2,0-2.2-1-2.2-2.2v0c0-1.2,1-2.3,2.2-2.3h3c1.2,0,2.2,1,2.2,2.3v0
	C30.4,62.8,29.3,63.8,28.1,63.8z"/>
<path class="st2" d="M37.1,51.5h-3c-1.2,0-2.2-1-2.2-2.2v0c0-1.2,1-2.2,2.2-2.2h3c1.2,0,2.2,1,2.2,2.2v0
	C39.3,50.5,38.3,51.5,37.1,51.5z"/>
<path class="st2" d="M37.1,57.7h-3c-1.2,0-2.2-1-2.2-2.3v0c0-1.2,1-2.2,2.2-2.2h3c1.2,0,2.2,1,2.2,2.2v0
	C39.3,56.7,38.3,57.7,37.1,57.7z"/>
<path class="st2" d="M28.1,57.7h-3c-1.2,0-2.2-1-2.2-2.3v0c0-1.2,1-2.2,2.2-2.2h3c1.2,0,2.2,1,2.2,2.2v0
	C30.4,56.7,29.3,57.7,28.1,57.7z"/>
<path class="st2" d="M28.1,51.5h-3c-1.2,0-2.2-1-2.2-2.2v0c0-1.2,1-2.2,2.2-2.2h3c1.2,0,2.2,1,2.2,2.2v0
	C30.4,50.5,29.3,51.5,28.1,51.5z"/>
<path class="st2" d="M46,57.7h-3c-1.2,0-2.2-1-2.2-2.3v0c0-1.2,1-2.2,2.2-2.2h3c1.2,0,2.2,1,2.2,2.2v0C48.3,56.7,47.2,57.7,46,57.7z
	"/>
<path class="st2" d="M46,51.5h-3c-1.2,0-2.2-1-2.2-2.2v0c0-1.2,1-2.2,2.2-2.2h3c1.2,0,2.2,1,2.2,2.2v0C48.3,50.5,47.2,51.5,46,51.5z
	"/>
<path class="st2" d="M28.1,45.3h-3c-1.2,0-2.2-1-2.2-2.2v0c0-1.2,1-2.3,2.2-2.3h3c1.2,0,2.2,1,2.2,2.3v0
	C30.4,44.3,29.3,45.3,28.1,45.3z"/>
<path class="st2" d="M37.1,45.3h-3c-1.2,0-2.2-1-2.2-2.2v0c0-1.2,1-2.3,2.2-2.3h3c1.2,0,2.2,1,2.2,2.3v0
	C39.3,44.3,38.3,45.3,37.1,45.3z"/>
<path class="st2" d="M46,45.3h-3c-1.2,0-2.2-1-2.2-2.2v0c0-1.2,1-2.3,2.2-2.3h3c1.2,0,2.2,1,2.2,2.3v0C48.3,44.3,47.2,45.3,46,45.3z
	"/>
<path class="st2" d="M28.1,39.2h-3c-1.2,0-2.2-1-2.2-2.3v0c0-1.2,1-2.2,2.2-2.2h3c1.2,0,2.2,1,2.2,2.2v0
	C30.4,38.2,29.3,39.2,28.1,39.2z"/>
<path class="st2" d="M37.1,39.2h-3c-1.2,0-2.2-1-2.2-2.3v0c0-1.2,1-2.2,2.2-2.2h3c1.2,0,2.2,1,2.2,2.2v0
	C39.3,38.2,38.3,39.2,37.1,39.2z"/>
<path class="st2" d="M46,39.2h-3c-1.2,0-2.2-1-2.2-2.3v0c0-1.2,1-2.2,2.2-2.2h3c1.2,0,2.2,1,2.2,2.2v0C48.3,38.2,47.2,39.2,46,39.2z
	"/>
<path class="st2" d="M28.1,33h-3c-1.2,0-2.2-1-2.2-2.2v0c0-1.2,1-2.2,2.2-2.2h3c1.2,0,2.2,1,2.2,2.2v0C30.4,32,29.3,33,28.1,33z"/>
<path class="st2" d="M37.1,33h-3c-1.2,0-2.2-1-2.2-2.2v0c0-1.2,1-2.2,2.2-2.2h3c1.2,0,2.2,1,2.2,2.2v0C39.3,32,38.3,33,37.1,33z"/>
<path class="st2" d="M46,33h-3c-1.2,0-2.2-1-2.2-2.2v0c0-1.2,1-2.2,2.2-2.2h3c1.2,0,2.2,1,2.2,2.2v0C48.3,32,47.2,33,46,33z"/>
<path class="st2" d="M46,26.8h-3c-1.2,0-2.2-1-2.2-2.2v0c0-1.2,1-2.2,2.2-2.2h3c1.2,0,2.2,1,2.2,2.2v0C48.3,25.8,47.2,26.8,46,26.8z
	"/>
<path class="st2" d="M37.1,26.8h-3c-1.2,0-2.2-1-2.2-2.2v0c0-1.2,1-2.2,2.2-2.2h3c1.2,0,2.2,1,2.2,2.2v0
	C39.3,25.8,38.3,26.8,37.1,26.8z"/>
<path class="st2" d="M28.1,26.8h-3c-1.2,0-2.2-1-2.2-2.2v0c0-1.2,1-2.2,2.2-2.2h3c1.2,0,2.2,1,2.2,2.2v0
	C30.4,25.8,29.3,26.8,28.1,26.8z"/>
<path class="st2" d="M37.3,63.8h-3c-1.2,0-2.2-1-2.2-2.2v0c0-1.2,1-2.3,2.2-2.3h3c1.2,0,2.2,1,2.2,2.3v0
	C39.5,62.8,38.5,63.8,37.3,63.8z"/>
<path class="st2" d="M46,63.8h-3c-1.2,0-2.2-1-2.2-2.2v0c0-1.2,1-2.3,2.2-2.3h3c1.2,0,2.2,1,2.2,2.3v0C48.3,62.8,47.2,63.8,46,63.8z
	"/>
<path class="st2" d="M28.1,70h-3c-1.2,0-2.2-1-2.2-2.3l0,0c0-1.2,1-2.3,2.2-2.3h3c1.2,0,2.2,1,2.2,2.3l0,0C30.4,69,29.3,70,28.1,70z
	"/>
<path class="st2" d="M37.3,70h-3C33,70,32,69,32,67.8l0,0c0-1.2,1-2.3,2.2-2.3h3c1.2,0,2.2,1,2.2,2.3l0,0C39.5,69,38.5,70,37.3,70z"
	/>
<path class="st2" d="M46,70h-3c-1.2,0-2.2-1-2.2-2.3l0,0c0-1.2,1-2.3,2.2-2.3h3c1.2,0,2.2,1,2.2,2.3l0,0C48.3,69,47.2,70,46,70z"/>
<path class="st2" d="M28.1,76.2h-3c-1.2,0-2.2-1-2.2-2.2v0c0-1.2,1-2.3,2.2-2.3h3c1.2,0,2.2,1,2.2,2.3v0
	C30.4,75.2,29.3,76.2,28.1,76.2z"/>
<path class="st2" d="M37.3,76.2h-3c-1.2,0-2.2-1-2.2-2.2v0c0-1.2,1-2.3,2.2-2.3h3c1.2,0,2.2,1,2.2,2.3v0
	C39.5,75.2,38.5,76.2,37.3,76.2z"/>
<path class="st2" d="M46,76.2h-3c-1.2,0-2.2-1-2.2-2.2v0c0-1.2,1-2.3,2.2-2.3h3c1.2,0,2.2,1,2.2,2.3v0C48.3,75.2,47.2,76.2,46,76.2z
	"/>
</svg>
