<?xml version="1.0" encoding="utf-8"?>
<!-- Generator: Adobe Illustrator 22.0.1, SVG Export Plug-In . SVG Version: 6.00 Build 0)  -->
<svg version="1.1" id="Слой_1" xmlns="http://www.w3.org/2000/svg" xmlns:xlink="http://www.w3.org/1999/xlink" x="0px" y="0px"
	 viewBox="0 0 100 100" style="enable-background:new 0 0 100 100;" xml:space="preserve">
<style type="text/css">
	.st0{fill:#88BA41;}
	.st1{fill:#FCB64A;}
	.st2{fill:#152B52;}
</style>
<ellipse class="st0" cx="50.3" cy="50.4" rx="48.7" ry="48.6"/>
<path class="st1" d="M85.1,42.7c-1.1,0-10.3,0-10.3,0l0,33.3H26l0-33.3c0,0-9.2,0-10.3,0c-1.1,0-1.4-0.4-0.6-1l1.2-0.8l34.1-23.3
	l34.1,23.3l1.2,0.8C86.5,42.3,86.2,42.7,85.1,42.7z"/>
<path class="st2" d="M85.1,42.7c-0.1,0-0.3,0-0.6,0L50.4,19.4L16.3,42.7h-0.6c-1.1,0-1.4-0.5-0.6-1l35.3-24.1l35.3,24.1
	C86.5,42.3,86.2,42.7,85.1,42.7z"/>
<rect x="30" y="45.5" class="st2" width="12.3" height="9.7"/>
<rect x="58.8" y="45.5" class="st2" width="12.3" height="9.7"/>
<rect x="44.9" y="60.3" class="st2" width="11" height="15.8"/>
<rect x="59.4" y="21.9" class="st2" width="10" height="12.9"/>
</svg>
