<?xml version="1.0" encoding="utf-8"?>
<!-- Generator: Adobe Illustrator 22.0.1, SVG Export Plug-In . SVG Version: 6.00 Build 0)  -->
<svg version="1.1" id="Слой_1" xmlns="http://www.w3.org/2000/svg" xmlns:xlink="http://www.w3.org/1999/xlink" x="0px" y="0px"
	 viewBox="0 0 100 100" style="enable-background:new 0 0 100 100;" xml:space="preserve">
<style type="text/css">
	.st0{fill:#F57D1F;}
	.st1{fill:#CCE2A1;}
	.st2{fill:#19334B;}
</style>
<circle class="st0" cx="50" cy="50" r="49"/>
<path class="st1" d="M39.5,49.5c-1.7,0.7-3.2,1.6-4.5,2.8c-1.5,1.3-2.7,3-3.7,4.8c-0.1,0.3-0.3,0.7-0.4,0.9H17l1.5-8.6
	c0.7-5,3.5-8.9,7.6-10.3c0.9,0.9,2,1.6,3.2,2c1.2,0.5,2.6,0.8,3.9,0.8c1.4,0,2.7-0.3,3.9-0.7c0,0.4-0.1,0.8-0.1,1.3
	c0,1,0.1,1.9,0.3,2.8c0.2,0.9,0.5,1.8,1,2.6C38.7,48.4,39,49,39.5,49.5z"/>
<path class="st1" d="M41.6,32.2c0,0.3,0,0.6,0,0.8c-0.2,0.2-0.4,0.4-0.7,0.6c-1.2,1.1-2.1,2.4-2.8,3.9c-0.2,0.5-0.4,0.9-0.5,1.4
	c-1.3,0.7-2.7,1.2-4.3,1.2c-2,0-3.8-0.7-5.2-1.7c-1.9-1.5-3.1-3.7-3.1-6.2c0-4.4,3.7-7.9,8.3-7.9S41.6,27.9,41.6,32.2z"/>
<path class="st1" d="M83,58.1H69.2c-0.1-0.2-0.3-0.7-0.4-1c-1.9-3.6-4.7-6.2-8.2-7.6c0.4-0.5,0.8-1.1,1.1-1.7c0.4-0.8,0.8-1.7,1-2.6
	c0.2-0.9,0.3-1.9,0.3-2.8c0-0.4,0-0.8-0.1-1.3c1.2,0.5,2.6,0.7,3.9,0.7c1.4,0,2.7-0.3,3.9-0.8c1.2-0.5,2.3-1.2,3.2-2
	c4.1,1.5,6.9,5.3,7.6,10.4L83,58.1z"/>
<path class="st1" d="M75.1,32.2c0,2.5-1.2,4.7-3.1,6.2c-1.4,1.1-3.2,1.7-5.2,1.7c-1.6,0-3.1-0.4-4.3-1.2c-0.1-0.5-0.3-1-0.5-1.4
	c-0.7-1.5-1.6-2.8-2.8-3.9c-0.2-0.2-0.4-0.4-0.7-0.6c0-0.3,0-0.6,0-0.8c0-4.4,3.7-7.9,8.3-7.9S75.1,27.9,75.1,32.2z"/>
<path class="st2" d="M70.7,75.9H29.3l1.9-11.1c0.3-2.3,1-4.6,2-6.4c0,0,0-0.1,0-0.1c1.7-3.2,4.3-5.6,7.7-6.8c0,0,0,0,0,0
	c0.2,0.2,0.5,0.4,0.7,0.6c0,0,0.1,0,0.1,0.1c0,0,0.1,0.1,0.1,0.1c0,0,0.1,0.1,0.1,0.1c0,0,0.1,0.1,0.1,0.1c0,0,0.1,0.1,0.1,0.1
	c0.9,0.6,1.8,1.1,2.8,1.5c0,0,0,0,0,0c0.5,0.2,1,0.4,1.4,0.5c0,0,0.1,0,0.1,0c0,0,0.1,0,0.1,0c0,0,0,0,0.1,0c0,0,0,0,0.1,0
	c0,0,0.1,0,0.1,0c0,0,0,0,0,0c0.6,0.1,1.3,0.3,1.9,0.3c0,0,0,0,0,0c0.4,0,0.8,0,1.1,0c0.4,0,0.8,0,1.1-0.1c0,0,0,0,0,0
	c0.5,0,1.1-0.1,1.6-0.2c0,0,0,0,0,0c0.1,0,0.2-0.1,0.4-0.1c0.1,0,0.2-0.1,0.4-0.1c0.1,0,0.1,0,0.2-0.1c0,0,0,0,0.1,0
	c0.2-0.1,0.4-0.1,0.6-0.2c0.1,0,0.2-0.1,0.4-0.1c0.1,0,0.2-0.1,0.4-0.1c1.5-0.6,2.9-1.5,4.1-2.6l0,0c0,0,0,0,0,0
	c3.4,1.2,6,3.6,7.7,6.9c1,1.9,1.7,4.2,2,6.5L70.7,75.9z"/>
<path class="st2" d="M60.7,42.4c0,3.2-1.6,6-4,7.9c-1.5,1.1-3.2,1.9-5.2,2.1c-0.5,0.1-1,0.1-1.5,0.1s-1,0-1.5-0.1
	c-1.9-0.3-3.7-1-5.2-2.1c-2.4-1.9-4-4.7-4-7.9c0-1,0.1-1.9,0.4-2.8c1.3-4.2,5.4-7.4,10.2-7.4s9,3.1,10.2,7.4
	C60.5,40.5,60.7,41.4,60.7,42.4z"/>
</svg>
