<?xml version="1.0" encoding="utf-8"?>
<!-- Generator: Adobe Illustrator 22.0.1, SVG Export Plug-In . SVG Version: 6.00 Build 0)  -->
<svg version="1.1" id="Слой_1" xmlns="http://www.w3.org/2000/svg" xmlns:xlink="http://www.w3.org/1999/xlink" x="0px" y="0px"
	 viewBox="0 0 100 100" style="enable-background:new 0 0 100 100;" xml:space="preserve">
<style type="text/css">
	.st0{fill:#DC4844;}
	.st1{fill:#FDFEFE;}
	.st2{fill:#34495E;}
</style>
<ellipse class="st0" cx="50.5" cy="50.2" rx="48.5" ry="48.8"/>
<rect x="33.2" y="48.3" class="st1" width="34.6" height="17.6"/>
<g>
	<g>
		<path class="st2" d="M66.2,42.7c4.8,0,7.7,3.8,6.4,8.5l-5.1,18c-0.3,1.2-1.4,2-2.7,2H35.7c-1.3,0-2.4-0.8-2.7-2l-5.1-18
			c-1.3-4.7,1.6-8.5,6.4-8.5H66.2z M61.4,58c-0.7,4.3-0.4,7.8,0.6,7.8s2.6-3.5,3.6-7.8c1-4.3,0.7-7.8-0.6-7.8S62.1,53.7,61.4,58z
			 M52.9,58c-0.2,4.3,0.5,7.8,1.5,7.8c1,0,2.2-3.5,2.6-7.8c0.4-4.3-0.3-7.8-1.5-7.8C54.2,50.2,53.1,53.7,52.9,58z M44.4,58
			c0.4,4.3,1.5,7.8,2.5,7.8c1,0,1.7-3.5,1.6-7.8c-0.1-4.3-1.2-7.8-2.5-7.8S44,53.7,44.4,58z M35.9,58c0.9,4.3,2.5,7.8,3.5,7.8
			s1.3-3.5,0.7-7.8c-0.6-4.3-2.2-7.8-3.5-7.8C35.3,50.2,35,53.7,35.9,58z"/>
	</g>
</g>
<path class="st2" d="M32.4,44.7L32.4,44.7c-0.3-0.3-0.3-0.9,0-1.2l17.2-18c0.3-0.3,0.8-0.3,1,0l0,0c0.3,0.3,0.3,0.9,0,1.2l-17.2,18
	C33.1,45.1,32.7,45.1,32.4,44.7z"/>
<path class="st2" d="M69.2,44.6L69.2,44.6c0.3-0.3,0.4-0.8,0.2-1.2L55,20.6c-0.2-0.4-0.7-0.5-1-0.2l0,0c-0.3,0.3-0.4,0.8-0.2,1.2
	l14.3,22.8C68.4,44.7,68.8,44.8,69.2,44.6z"/>
</svg>
