<?xml version="1.0" encoding="utf-8"?>
<!-- Generator: Adobe Illustrator 22.0.1, SVG Export Plug-In . SVG Version: 6.00 Build 0)  -->
<svg version="1.1" id="Слой_1" xmlns="http://www.w3.org/2000/svg" xmlns:xlink="http://www.w3.org/1999/xlink" x="0px" y="0px"
	 viewBox="0 0 100 100" style="enable-background:new 0 0 100 100;" xml:space="preserve">
<style type="text/css">
	.st0{fill:#DC4844;}
	.st1{fill:#FCB54A;}
	.st2{fill:#54C1C8;}
</style>
<ellipse class="st0" cx="50.3" cy="50.1" rx="48.7" ry="48.9"/>
<path class="st1" d="M35,39.1l9,6.1c0.6-0.7,1.4-1.4,2.2-1.8c-0.9-2.1-2.5-5.9-3.5-8.5c-2.1-5.2-5.4-8.2-9.2-5.1
	C28,34.2,35,39.1,35,39.1z"/>
<path class="st1" d="M31.5,50.1l10.6-0.3c0.1-1,0.4-2,0.8-2.9c-2-1.2-5.4-3.3-7.7-4.7c-4.7-3-9.2-3.5-10.4,1.2
	C22.9,50.4,31.5,50.1,31.5,50.1z"/>
<path class="st1" d="M48.4,42.5c0.6-0.1,1.2-0.2,1.8-0.2c0.3,0,0.7,0,1,0.1c0.5-2.2,1.6-6.3,2.3-9.1c1.5-5.4,0.6-9.8-4.2-9.6
	c-7.2,0.3-4.5,8.4-4.5,8.4L48.4,42.5z"/>
<path class="st1" d="M55.5,44.3c1.7-1.4,5-4.2,7.2-6C67.1,34.8,69,30.7,65,28c-6-4-8.6,4.2-8.6,4.2l-3.2,10.7
	C54,43.2,54.8,43.7,55.5,44.3z"/>
<path class="st1" d="M56.9,45.9c0.5,0.8,0.9,1.6,1.1,2.6c2.2-0.2,6.5-0.5,9.3-0.6c5.6-0.3,9.5-2.5,7.8-7c-2.5-6.8-9.4-1.7-9.4-1.7
	L56.9,45.9z"/>
<path class="st1" d="M69.2,50.3l-10.9,0.2c0,1-0.2,2-0.6,2.9c2,1.2,5.4,3.4,7.7,4.9c4.7,3.1,9.2,3.6,10.4-1.1
	C77.7,50.2,69.2,50.3,69.2,50.3z"/>
<path class="st1" d="M65.5,61.4l-8.8-6.1c-0.6,0.8-1.4,1.5-2.2,2.1c0.9,2.2,2.4,5.8,3.3,8.3c2,5.3,5.3,8.3,9.1,5.2
	C72.5,66.3,65.5,61.4,65.5,61.4z"/>
<path class="st1" d="M44.7,56.4c-1.8,1.5-4.7,4-6.7,5.6c-4.3,3.6-6.2,7.7-2.1,10.3c6.1,3.9,8.5-4.3,8.5-4.3l2.9-10
	C46.4,57.7,45.4,57.1,44.7,56.4z"/>
<path class="st1" d="M52.5,58.2c-0.8,0.2-1.6,0.4-2.4,0.4c-0.2,0-0.5,0-0.7,0c-0.5,2.3-1.4,6-2.1,8.5c-1.4,5.4-0.5,9.9,4.3,9.6
	c7.2-0.4,4.4-8.5,4.4-8.5L52.5,58.2z"/>
<path class="st1" d="M43.3,54.8c-0.6-0.9-0.9-1.9-1.1-2.9c-2.3,0.2-6.2,0.5-8.8,0.7c-5.6,0.3-9.5,2.6-7.7,7.1
	c2.6,6.7,9.4,1.6,9.4,1.6L43.3,54.8z"/>
<ellipse class="st2" cx="50.2" cy="50.3" rx="6.2" ry="6.3"/>
</svg>
