<?xml version="1.0" encoding="utf-8"?>
<!-- Generator: Adobe Illustrator 22.0.1, SVG Export Plug-In . SVG Version: 6.00 Build 0)  -->
<svg version="1.1" id="Слой_1" xmlns="http://www.w3.org/2000/svg" xmlns:xlink="http://www.w3.org/1999/xlink" x="0px" y="0px"
	 viewBox="0 0 100 100" style="enable-background:new 0 0 100 100;" xml:space="preserve">
<style type="text/css">
	.st0{fill:#88BA41;}
	.st1{fill:#EDF8FE;}
	.st2{fill:#19334B;}
	.st3{fill:#34495E;}
	.st4{opacity:0.21;fill:#74797A;}
</style>
<circle class="st0" cx="50" cy="50" r="49"/>
<path class="st1" d="M67.5,73.9H34.3c9.2-1.8,11-8.7,11-8.7l5.7,0.1l5.7-0.1C56.6,65.2,58.3,72.1,67.5,73.9z"/>
<path class="st1" d="M20.5,59.1v5.1c0,1.4,1.3,2.5,2.8,2.5h55.5c1.5,0,2.7-1.2,2.7-2.5v-5.1H20.5z"/>
<path class="st2" d="M81.4,28.6c0-1.8-1.2-3.2-2.7-3.2H23.2c-1.5,0-2.8,1.4-2.8,3.2v30.5h61V28.6z"/>
<path class="st3" d="M78.9,30.4c0-1.5-1.1-2.8-2.5-2.8H25.5c-1.4,0-2.5,1.2-2.5,2.8V57h56V30.4z"/>
<circle class="st2" cx="51" cy="62.9" r="2.3"/>
<path class="st4" d="M48.3,25.5L28.4,59.1h-7.9l0-30.7c0,0,0.2-2.7,2.5-3L48.3,25.5z"/>
<path class="st1" d="M69.1,72.2H33.2c-0.6,0-1.1,0.5-1.1,1.1v0.3c0,0.6,0.5,1.1,1.1,1.1h35.9c0.6,0,1.1-0.5,1.1-1.1v-0.3
	C70.1,72.7,69.7,72.2,69.1,72.2z"/>
</svg>
