<?xml version="1.0" encoding="utf-8"?>
<!-- Generator: Adobe Illustrator 23.0.2, SVG Export Plug-In . SVG Version: 6.00 Build 0)  -->
<svg version="1.1" id="Capa_1" xmlns="http://www.w3.org/2000/svg" xmlns:xlink="http://www.w3.org/1999/xlink" x="0px" y="0px"
	 viewBox="0 0 35 35" style="enable-background:new 0 0 35 35;" xml:space="preserve">
<style type="text/css">
	.st0{fill:#FFFAFA;}
</style>
<g>
	<path class="st0" d="M26.7,0H9.9C8.5,0,7.3,1.1,7.3,2.4v30.3c0,1.3,1.1,2.4,2.6,2.4h16.8c1.4,0,2.6-1.1,2.6-2.4V2.4
		C29.3,1.1,28.1,0,26.7,0z M15.6,1.7H21c0.2,0,0.3,0.1,0.3,0.3c0,0.2-0.1,0.3-0.3,0.3h-5.4c-0.2,0-0.3-0.1-0.3-0.3
		C15.3,1.8,15.4,1.7,15.6,1.7z M18.3,33.8c-0.7,0-1.3-0.5-1.3-1.2s0.6-1.2,1.3-1.2s1.3,0.5,1.3,1.2S19,33.8,18.3,33.8z M27.5,30.6
		H9.1V3.7h18.4V30.6z"/>
</g>
</svg>
