<?xml version="1.0" encoding="utf-8"?>
<!-- Generator: Adobe Illustrator 23.0.2, SVG Export Plug-In . SVG Version: 6.00 Build 0)  -->
<svg version="1.1" id="Layer_1" xmlns="http://www.w3.org/2000/svg" xmlns:xlink="http://www.w3.org/1999/xlink" x="0px" y="0px"
	 viewBox="0 0 192 50" style="enable-background:new 0 0 192 50;" xml:space="preserve">
<style type="text/css">
	.st0{fill:#3FAB3C;}
	.st1{fill:#FFFFFF;}
</style>
<g>
	<path class="st0" d="M57.66,19.53V16.8c0-1.04-1.13-2.83-3.08-2.83c-2.38,0-3.4,1.79-3.4,2.83v20.07c0,1.04,1.03,2.83,3.4,2.83
		c2.54,0,3.83-1.64,3.83-4.47v-5.32h-3.78v-4.97h9.83v10.73c0,4.72-3.08,8.99-9.88,8.99c-7.51,0-10.21-4.27-10.21-7.75V16.8
		c0-3.53,2.7-7.8,10.21-7.8c6.81,0,9.88,4.27,9.88,7.8v2.73H57.66z"/>
	<path class="st0" d="M80.99,36.13h-6.54l-1.3,8.1h-6.37l7.78-34.78h6.75l7.78,34.78h-6.75L80.99,36.13z M79.91,31.11l-2.05-12.47
		H77.7l-2.11,12.47H79.91z"/>
	<path class="st0" d="M108.32,44.22l-6.43-14.01c-0.92,0-1.89,0-2.16,0v14.01h-6.7V9.45h11.29c6.48,0,9.56,4.37,9.56,9.94
		c0,5.17-2.43,8.5-5.67,9.99l7.13,14.86H108.32z M99.74,24.95h2.16c4.38,0,5.56-0.5,5.56-5.56c0-2.78-0.7-4.97-3.35-4.97h-4.38
		V24.95z"/>
	<path class="st0" d="M139.22,19.38v14.9c0,5.32-2.59,9.94-8.43,9.94h-12.21V9.45h12.21c3.83,0,7.02,2.43,7.89,5.76
		C139.01,16.55,139.22,17.94,139.22,19.38z M129.39,39.26c2.7,0,3.4-2.19,3.4-4.97v-14.9c0-2.78-0.7-4.97-3.4-4.97h-4.05v24.84
		H129.39z"/>
	<path class="st0" d="M150.89,14.42v8.55h6.86v4.97h-6.86v11.33h10.32v4.97h-17.07V9.45h16.31v4.97H150.89z"/>
	<path class="st0" d="M185.41,9.45v34.78h-6.75l-6.64-19.92h-0.11v19.92h-6.75V9.45h7.13l6.27,19.28h0.11V9.45H185.41z"/>
</g>
<g>
	<path class="st0" d="M19.52,47.68c0.49-0.08,2.45-0.04,2.93,0c-0.64-4.54-0.96-9.13-1.09-13.26c-0.18-5.99-0.78-15.57-0.05-23.43
		L21,12.52c-1.06,5.69-1.13,11.96-1.26,17.83C19.52,40.01,19.59,41.84,19.52,47.68z"/>
	<path class="st0" d="M22.09,21.45c-0.68,0.77-1.38,1.59-1.9,2.56c0.13,0.88,0.19,1.75,0.21,2.63c2.33-4.13,4.99-7.93,7.91-11.31
		C26.05,16.98,24.06,19.22,22.09,21.45z"/>
	<path class="st0" d="M20.77,37.95c-0.15-1.21,0.12-2.47,0.59-3.52c0.47-1.05,1.14-1.92,1.83-2.71c1.64-1.88,3.57-3.46,5.71-3.74
		C25.69,30.4,22.88,33.84,20.77,37.95z"/>
	<path class="st0" d="M20.73,37.09c0.15-1.42,0.37-2.1-0.38-3.1c-0.75-1.01-3.16-3.96-4.13-4.53c-0.96-0.57-1.21-0.04-2.08-0.84
		C16.52,31.01,18.7,34.18,20.73,37.09z"/>
	<path class="st0" d="M14.86,14.15c1.91,3.64,3.7,7.41,5.35,11.28c0.29-0.72,0.3-1.6,0.14-2.4c-0.16-0.79-0.47-1.51-0.8-2.2
		C18.31,18.24,16.71,15.96,14.86,14.15z"/>
	<path class="st0" d="M23.39,8.38c1.29-1.27,2.91-1.84,4.16-3.19c0.07,2.34-0.64,4.71-1.89,6.33c-1.25,1.61-3.03,2.45-4.75,2.22
		C21.19,11.61,22.1,9.65,23.39,8.38z"/>
	<path class="st1" d="M26.11,7.2c-0.89,2.74-2.62,4.95-4.69,5.98C23.2,11.54,24.79,9.51,26.11,7.2z"/>
	<path class="st1" d="M24.15,11.16c0.5-0.25,1.02-0.51,1.4-1.03c-0.44,1.16-1.49,1.83-2.43,1.55C23.46,11.5,23.8,11.33,24.15,11.16z
		"/>
	<path class="st1" d="M23.88,8.52c-0.24,1.36-0.52,2.14-0.91,3.16c0.35-0.21,0.31-0.1,0.48-0.56C23.67,10.51,23.97,9.62,23.88,8.52z
		"/>
	<path class="st0" d="M20.87,13.45c0,0,1.5-4.63,0-7.66C20,4.06,18.44,3.16,16.91,2.88c0.16,1.45,0.32,2.9,0.49,4.35
		c0.1,0.93,0.2,1.87,0.46,2.75C18.55,12.36,20.87,13.45,20.87,13.45z"/>
	<path class="st1" d="M18.45,5.06c0.84,2.24,1.62,4.6,2.09,7.03c0.23-1.79-0.49-3.39-1.08-5.02C19.06,5.96,18.45,5.12,18.45,5.06z"
		/>
	<path class="st1" d="M20.44,6.44c0.29,0.98,0.23,2.94-0.03,3.94c-0.05,0.2-0.13-0.25-0.13-0.25C20.47,8.92,20.52,7.67,20.44,6.44z"
		/>
	<path class="st1" d="M20.32,10.09c-0.78-0.82-1.41-1.47-2.19-2.29c0.24,0.66,1.44,2.14,2.18,2.66L20.32,10.09z"/>
	<path class="st0" d="M25.61,21.56c2.12,0.17,4.11-1.65,5.33-4.01c1.21-2.36,1.78-5.22,2.26-8.03c-2.04-0.13-4.2-0.23-6,1.09
		c-1.43,1.04-2.46,2.89-3.14,4.88c-0.68,2-1.04,4.17-1.39,6.32C23.48,21.01,24.6,21.48,25.61,21.56z"/>
	<path class="st1" d="M27.66,16.27c-0.03,0.15-0.06,0.3-0.11,0.44C29,16.6,30.14,16.05,31,14.46
		C29.87,15.55,28.87,15.95,27.66,16.27z"/>
	<path class="st1" d="M26.84,19.47c-0.48-0.07-2.03-0.15-2.08-0.12c0.35-0.51,1.89-0.69,2.84-0.6c0.55,0.05,1.39-0.04,1.82-0.44
		C28.98,19.17,28.2,19.67,26.84,19.47z"/>
	<path class="st1" d="M24.75,19.56c0.69-0.38,1.1-1.38,1.25-2.37c0.15-0.99,0.09-2.02,0.13-3.03
		C25.95,16.07,25.47,17.92,24.75,19.56z"/>
	<path class="st1" d="M27.31,15.71c-0.09,0.47-0.32,1.39-0.51,1.8c0.59-0.43,0.88-1.08,1-2.18c0.1-0.98,0.21-1.83,0.13-3.26
		C27.73,13.48,27.57,14.35,27.31,15.71z"/>
	<path class="st0" d="M12.93,18.75c1.47,0.96,3.18,0.87,4.81,0.75c0.4-2.7,0.78-5.63-0.08-8.12c-0.7-2.01-2.13-3.41-3.65-4.24
		c-1.52-0.83-3.15-1.19-4.75-1.67c-0.05,2.51-0.08,5.06,0.42,7.48C10.17,15.37,11.26,17.67,12.93,18.75z"/>
	<path class="st1" d="M15.94,15.67c-0.03,0.35-0.02,0.79,0.2,0.97c0.4-1.72,0.44-3.58,0.12-5.33
		C16.15,12.77,16.05,14.22,15.94,15.67z"/>
	<path class="st1" d="M15.67,16.17c-1.36,0.18-2.75,0.01-4.07-0.52c0.47,0.65,1.27,0.99,1.73,1.13c0.45,0.15,2.29,0.18,3.03,0.14
		c-0.01-0.03-0.01-0.06-0.02-0.09C16.11,16.69,15.85,16.43,15.67,16.17z"/>
	<path class="st1" d="M14.67,14.13c-1.23,0.03-2.46-0.2-3.63-0.73c0.45,0.67,1.25,1.05,1.69,1.22c0.34,0.13,1.48,0.23,2.34,0.28
		C14.91,14.67,14.77,14.41,14.67,14.13z"/>
	<path class="st1" d="M17.18,18.16c-1.1-2.32-4.23-7.61-5.82-9.87C12.28,11.13,15.29,16.27,17.18,18.16z"/>
	<path class="st1" d="M14.81,9.7c-0.31,0.84-0.21,2.53-0.21,3.48c0,1.22,0.34,1.66,0.49,1.86C15,13.25,14.9,11.48,14.81,9.7z"/>
	<path class="st1" d="M13.85,12.71c-0.08-1.56-0.17-3.13-0.25-4.69c-0.16,0.91-0.19,1.88-0.19,2.83c0,0.49,0.05,0.98,0.15,1.43
		C13.72,12.42,13.73,12.53,13.85,12.71z"/>
	<path class="st1" d="M13.85,12.72c-0.01-0.02-0.02-0.03-0.03-0.05c0.01,0.02,0.01,0.04,0.02,0.06c-0.01-0.04-0.03-0.08-0.05-0.12
		c-0.03-0.06-0.05-0.13-0.08-0.19c-1.07-0.51-2.13-1.03-3.2-1.54c0.96,1.25,2.23,2.06,3.55,2.28
		C13.99,13.03,13.91,12.88,13.85,12.72z"/>
	<path class="st0" d="M34.23,21.01c1.66,0.14,3.4,0.92,4.92,0.01c-1.83,3.09-1.94,7.72-4.09,10.4c-1.3,1.62-3.18,2.22-4.92,1.87
		c-1.74-0.35-3.35-1.56-4.67-3.15c0.4-2.67,1.53-5.13,3.13-6.79C30.19,21.69,32.23,20.84,34.23,21.01z"/>
	<path class="st1" d="M36.7,22.65c-1.64,2.74-5.18,5.61-8,6.88c-0.74,0.33-1.54,0.37-2.3,0.13l-0.01,0
		C29.91,28.65,33.74,25.41,36.7,22.65z"/>
	<path class="st1" d="M30.97,11.14c-0.89,2.81-3.35,6.34-5.48,8.31c-0.56,0.52-1.22,0.81-1.89,0.85l-0.01,0
		C26.35,18.33,28.98,14.4,30.97,11.14z"/>
	<path class="st1" d="M31.4,27.27c0.75-1.28,1.4-2.67,1.94-4.13c0.01,0.89-0.28,2.01-0.6,2.8C32.42,26.71,32.05,27.14,31.4,27.27z"
		/>
	<path class="st1" d="M28.12,29.37c0.68-0.15,1.14-1.05,1.3-1.95c0.17-0.9,0.35-1.65,0.24-2.77C29.37,26.34,28.85,27.95,28.12,29.37
		z"/>
	<path class="st1" d="M30.22,28.25c0.67-0.31,1.03-1.34,1.08-2.31c0.06-0.96,0.15-1.77-0.11-2.89
		C31.12,24.84,30.79,26.62,30.22,28.25z"/>
	<path class="st1" d="M36.12,26.38c-1.42,0.25-2.32,0.01-3.44,0.38c-0.11,0.04-0.23,0.08-0.31,0.19c-0.08,0.11-0.3,0.3-0.23,0.42
		C33.43,27.38,34.9,27.27,36.12,26.38z"/>
	<path class="st1" d="M30.46,27.8c-0.07,0.16-0.15,0.31-0.24,0.45c1.34,0.98,2.36,1.52,4.29,1.39
		C33.02,29.03,31.79,28.66,30.46,27.8z"/>
	<path class="st1" d="M28.6,29.14c-0.09-0.01-0.21,0-0.24,0.12c-0.03,0.11,0.04,0.22,0.1,0.3c1.11,1.38,2.64,2.12,4.15,1.99
		c-0.58-0.26-1.42-0.54-2.03-1.11C29.97,29.88,29.34,29.26,28.6,29.14z"/>
	<path class="st0" d="M8.59,29.73c1.17,1.16,2.61,1.75,4.05,1.89c1.44,0.15,2.89-0.12,4.31-0.53c-0.04-1.95-0.11-3.93-0.54-5.79
		c-0.43-1.86-1.25-3.63-2.48-4.63c-2.59-2.11-6.08-0.32-8.86-1.93c0.13,2.05,0.36,4.12,0.9,6.04C6.5,26.71,7.37,28.51,8.59,29.73z"
		/>
	<path class="st1" d="M10.62,25.59c1.23,1.23,3.08,3.05,4.52,4.22c0.31,0.25,0.65,0.42,1,0.52l0,0c-2.62-3.23-4.87-4.9-8.61-9.12
		C8.23,23.01,9.41,24.37,10.62,25.59z"/>
	<path class="st1" d="M14.9,29.18c-0.37-1.95-0.87-4.08-0.91-6.09c-0.24,1.93,0,3.9,0.25,5.83C14.37,28.95,14.79,29.12,14.9,29.18z"
		/>
	<path class="st1" d="M11.68,21.69c-0.25,1.23-0.11,2.66,0.24,4.76c0.24,0.2,0.57,0.23,0.57,0.23
		C11.92,24.8,11.94,23.58,11.68,21.69z"/>
	<path class="st1" d="M9.56,20.92c-0.15,1.04,0.24,3.05,0.28,3.2c0.13,0.48,0.16,0.12,0.49,0.35C10.07,23.29,9.82,22.1,9.56,20.92z"
		/>
	<path class="st1" d="M9.79,24.13c-1.18,0.14-1.95,0.3-3.26-0.1c1.04,0.94,2.39,1,3.62,0.73c0.02,0,0.03-0.02,0.05-0.02
		C10.04,24.56,9.9,24.36,9.79,24.13z"/>
	<path class="st1" d="M11.6,26.65c-1.18,0.2-2.38,0.01-3.56-0.18c0.67,0.59,1.46,0.89,2.26,0.99c0.79,0.11,1.6,0.04,2.39-0.02
		c0.08-0.32-0.12-0.67-0.35-0.78C12.11,26.55,11.85,26.61,11.6,26.65z"/>
	<path class="st1" d="M14.69,29.36c0.08-0.03,0.17-0.08,0.21-0.18c0.05-0.14-0.02-0.32-0.12-0.39c-0.1-0.07-0.22-0.09-0.34-0.06
		c-1.86,0.53-3.25,0.37-4.82,0.31C11.22,29.91,13.04,30.02,14.69,29.36z"/>
</g>
<g>
</g>
<g>
</g>
<g>
</g>
<g>
</g>
<g>
</g>
<g>
</g>
<g>
</g>
<g>
</g>
<g>
</g>
<g>
</g>
<g>
</g>
<g>
</g>
<g>
</g>
<g>
</g>
<g>
</g>
</svg>
