<?xml version="1.0" encoding="utf-8"?>
<!-- Generator: Adobe Illustrator 23.0.2, SVG Export Plug-In . SVG Version: 6.00 Build 0)  -->
<svg version="1.1" id="Layer_1" xmlns="http://www.w3.org/2000/svg" xmlns:xlink="http://www.w3.org/1999/xlink" x="0px" y="0px"
	 viewBox="0 0 579.4 110.7" style="enable-background:new 0 0 579.4 110.7;" xml:space="preserve">
<style type="text/css">
	.st0{fill:#FFA01A;}
	.st1{font-family:'OpenSans-Semibold';}
	.st2{font-size:77.6656px;}
	.st3{fill:#6D6E71;}
</style>
<g>
	<g>
		<g>
			<g>
				<path class="st0" d="M322.7,35.6c-0.7-2.6-2.9-6.7-1.6-8.6c0.2,0.1,0.4,0.2,0.6,0.3c0.4,0.1,0.7,0.1,1.1,0
					c0.4-0.1,0.7-0.3,1-0.5c-0.3,0.2-0.7,0.4-1,0.4c-0.3,0-0.7,0-1-0.1c-0.2-0.1-0.3-0.1-0.4-0.2c0.2,0,0.3,0,0.5,0
					c0.3,0,0.7-0.1,0.9-0.3c0.3-0.2,0.5-0.5,0.7-0.7c-0.2,0.2-0.4,0.5-0.7,0.6c-0.3,0.1-0.6,0.2-0.9,0.2c-0.1,0-0.3,0-0.4-0.1
					c1.2-1.5,1.1-2.5,1.8-5.4c0.8-3.1,0.5-13,0.5-13c-3.8,14.3-10.6,21.4-27.2,25.7c-13.9,3.6-20.2,22.3-7.6,38.2
					c5.9,7.4,25.2,13.6,20.2,27.1c0,0,7.1-6.6-5.1-17.6c-4.2-3.8-7.6-5.9-10.1-7.8c-4.5-3.4-5.2-10.1-1.2-14c1.3-1.2,2.7-1.8,4-1.8
					c-1.5-1.2-3-2.5-4.3-3.9c-1.1-1.2-2.2-2.5-3-4c-0.4-0.7-0.6-1.6-0.7-2.4c-0.1-0.8,0.1-1.7,0.5-2.4c-0.4,0.7-0.5,1.6-0.4,2.4
					c0.1,0.8,0.4,1.6,0.8,2.3c0.8,1.4,1.9,2.7,3.1,3.8c2.3,2.2,4.9,4,7.5,5.6c1.6,0.9,3.1,1.8,5.1,2.8c2.8,1.4,5.8-0.2,6.8-2.2
					c1-2,0.5-4.7,1-5.2c0.4-0.5,1.5-0.8,2.4-1.9c0.7-0.9,0-1.8-0.3-2.2c-0.7-0.3-2.1-1.2-2.8-1.5c0.7,0.3,2.4,0.7,3.1,1
					c0.5,0,1.1,0.1,1.7-0.4c0.9-0.7,0.8-1.7,0.6-2.6c-0.2-0.9-0.2-2.1,0.5-2.5c0.7-0.4,3.4,0.1,5.3-1.4
					C326.1,41.6,323.5,38.2,322.7,35.6z"/>
				<path class="st0" d="M323,7c0,0-4.9,19.3-23.2,23.9c-16.7,4.2-29.7,12.5-25.1,41.3c0,0-15.1-23.8-0.4-39.1
					C288.9,17.9,309.6,23.4,323,7z"/>
			</g>
		</g>
		<path class="st0" d="M285.8,38.6c0,0-13.5,18.5,3.3,35.2c13.5,13.4,25.8,16.1,15.9,29.9c0,0-19.9-2.8-26.9-25.1
			C269.1,49.1,285.8,38.6,285.8,38.6z"/>
	</g>
	<g>
		<g>
			<text transform="matrix(0.9144 0 0 1 -0.597 87.3614)"><tspan x="0" y="0" class="st0 st1 st2">BEAUTY</tspan><tspan x="293.5" y="0" class="st3 st1 st2">   HOUSE</tspan></text>
		</g>
	</g>
</g>
</svg>
