<?xml version="1.0" encoding="utf-8"?>
<!-- Generator: Adobe Illustrator 23.0.2, SVG Export Plug-In . SVG Version: 6.00 Build 0)  -->
<svg version="1.1" id="Layer_1" xmlns="http://www.w3.org/2000/svg" xmlns:xlink="http://www.w3.org/1999/xlink" x="0px" y="0px"
	 viewBox="0 0 490 186.2" style="enable-background:new 0 0 490 186.2;" xml:space="preserve">
<style type="text/css">
	.st0{fill:#FFA01A;}
	.st1{fill:#FFFFFF;}
</style>
<g>
	<g>
		<g>
			<g>
				<path class="st0" d="M131,56.4c-1.7-4.9-6.8-12.8-3.7-16.3c0.5,0.2,1,0.4,1.5,0.5c0.8,0.2,1.8,0.2,2.6,0c0.9-0.1,1.6-0.6,2.4-1
					c-0.8,0.3-1.6,0.7-2.4,0.7c-0.8,0.1-1.6,0-2.4-0.3c-0.4-0.1-0.7-0.3-1-0.4c0.4,0,0.8,0,1.2,0c0.8,0,1.6-0.3,2.2-0.6
					c0.7-0.3,1.2-0.9,1.6-1.4c-0.5,0.5-1.1,0.9-1.7,1.2c-0.7,0.3-1.4,0.4-2.1,0.4c-0.3,0-0.6-0.1-0.9-0.1c2.8-2.9,2.6-4.8,4.3-10.3
					c1.8-6,1.2-24.8,1.2-24.8c-8.9,27.2-25,40.7-64.4,49c-32.8,6.9-47.8,42.4-18,72.8c13.9,14.1,59.6,26,47.9,51.7
					c0,0,16.8-12.5-12.1-33.5c-10-7.2-18-11.3-23.9-14.9c-10.6-6.5-12.3-19.2-2.8-26.7c3-2.3,6.3-3.5,9.5-3.4
					c-3.6-2.3-7-4.7-10.2-7.3c-2.7-2.3-5.3-4.8-7.1-7.7c-0.9-1.4-1.5-3-1.7-4.6c-0.2-1.6,0.3-3.2,1.3-4.6c-0.9,1.4-1.3,3-1,4.5
					c0.3,1.5,1,3,1.9,4.4c1.9,2.7,4.6,5.1,7.4,7.2c5.4,4.1,11.5,7.6,17.9,10.7c3.7,1.7,7.3,3.5,12,5.3c6.7,2.6,13.8-0.4,16.2-4.2
					c2.4-3.8,1.2-8.9,2.3-9.9c1.1-1,3.6-1.6,5.6-3.7c1.6-1.7,0.1-3.5-0.6-4.3c-1.6-0.6-5.1-2.2-6.5-2.9c1.6,0.6,5.6,1.4,7.3,1.9
					c1.1,0,2.7,0.2,4.1-0.8c2.1-1.4,2-3.2,1.5-5c-0.5-1.7-0.4-4,1.3-4.8c1.6-0.8,8,0.3,12.6-2.6C138.9,67.9,132.8,61.5,131,56.4z"/>
				<path class="st0" d="M131.6,2.1c0,0-11.6,36.8-55,45.5C37,55.6,6.3,71.4,17.1,126.3c0,0-35.7-45.4-1-74.5
					C50.8,22.8,99.9,33.1,131.6,2.1z"/>
			</g>
		</g>
		<path class="st0" d="M43.6,62.2c0,0-31.9,35.1,7.8,67c31.9,25.6,61.1,30.6,37.8,56.9c0,0-47.2-5.3-63.6-47.8
			C3.9,82.3,43.6,62.2,43.6,62.2z"/>
	</g>
	<g>
		<g>
			<g>
				<path class="st0" d="M239.4,95.3c-0.6-12.5-1.4-27.7-1.3-38.8h-0.3c-2.9,10.5-6.4,21.8-10.5,34.1l-14.8,43.7h-8.2l-13.6-42.9
					c-4-12.7-7.2-24.3-9.6-34.9h-0.3c-0.3,11.2-0.8,26.2-1.6,39.7l-2.2,38.7h-10.3l5.8-90.1h13.8l14.3,43.6
					c3.4,11,6.3,20.9,8.4,30.3h0.3c2.2-9.1,5.1-19,8.9-30.3l14.9-43.6h13.8l5.2,90.1h-10.6L239.4,95.3z"/>
				<path class="st0" d="M302.3,134.9l-1-8.2h-0.3c-3.3,5-9.8,9.6-18.4,9.6c-12.1,0-18.3-9.3-18.3-18.5c0-15.7,12.9-24.3,36.1-24.1
					v-1.4c0-5.3-1.4-15-13.7-14.9c-5.6,0-11.4,1.8-15.6,4.8l-2.5-7.8c5-3.5,12.2-5.7,19.8-5.7c18.4,0,22.8,13.5,22.8,26.5v24.2
					c0,5.5,0.2,11,0.9,15.5H302.3z M300.7,101.9c-11.8-0.3-25.3,2-25.3,14.5c0,7.7,4.7,11.3,10.2,11.3c7.9,0,12.9-5.4,14.6-10.8
					c0.4-1.3,0.5-2.6,0.5-3.7V101.9z"/>
				<path class="st0" d="M328.9,90.4c0-7.6-0.2-14.1-0.5-20.1h9.6l0.4,12.7h0.4c2.8-8.7,9.4-14.1,16.7-14.1c1.2,0,2,0.1,3,0.3v11.1
					c-1.1-0.3-2.2-0.3-3.7-0.3c-7.7,0-13.1,6.2-14.6,15c-0.3,1.6-0.4,3.6-0.4,5.5v34.5h-10.9V90.4z"/>
				<path class="st0" d="M370,40h10.9v94.9H370V40z"/>
				<path class="st0" d="M411.5,52c0,4-2.6,7.3-6.9,7.3c-4,0-6.6-3.3-6.6-7.3c0-4,2.8-7.3,6.8-7.3C408.8,44.7,411.5,47.9,411.5,52z
					 M399.3,134.9V70.3h10.9v64.6H399.3z"/>
				<path class="st0" d="M428.4,87.7c0-6.7-0.2-12.1-0.5-17.5h9.6l0.6,10.6h0.3c3-6.1,9.9-12.1,19.9-12.1c8.2,0,21.2,5.3,21.2,27.5
					v38.6h-10.9V97.6c0-10.4-3.7-19.2-13.9-19.2c-7.2,0-12.8,5.5-14.7,12.1c-0.5,1.4-0.8,3.5-0.8,5.5v38.9h-10.9V87.7z"/>
			</g>
		</g>
		<g>
			<path d="M763.9-123.4h10.3v77.5h34v9.5h-44.3V-123.4z"/>
			<path d="M869.3-68.2c0,23.1-14.7,33.2-28.4,33.2c-15.5,0-27.4-12.3-27.4-32.1c0-20.9,12.5-33.1,28.3-33.1
				C858.2-100.2,869.3-87.2,869.3-68.2z M824.1-67.5c0,13.7,7.2,24,17.3,24c9.9,0,17.4-10.2,17.4-24.3c0-10.6-4.9-23.9-17.2-23.9
				C829.3-91.7,824.1-79.3,824.1-67.5z"/>
			<path d="M882.4-79.4c0-7.4-0.2-13.6-0.5-19.4h9.1l0.4,12.2h0.4c2.7-8.4,9-13.7,15.9-13.7c1.1,0,1.9,0.1,2.9,0.3v10.7
				c-1.1-0.2-2.1-0.3-3.5-0.3c-7.3,0-12.5,6-13.9,14.5c-0.3,1.6-0.4,3.5-0.4,5.3v33.3h-10.3V-79.4z"/>
			<path d="M925.6-65.6c0.2,15.3,9.1,21.7,19.5,21.7c7.4,0,12-1.5,15.8-3.2l1.8,8.1c-3.6,1.8-10,4-19,4c-17.5,0-28.1-12.8-28.1-31.5
				c0-18.9,10.2-33.7,26.8-33.7c18.6,0,23.5,17.9,23.5,29.3c0,2.4-0.1,4.1-0.4,5.3H925.6z M956-73.7c0.1-7.1-2.7-18.4-14.3-18.4
				c-10.6,0-15.1,10.5-15.9,18.4H956z"/>
			<path d="M978.9-82c0-6.5-0.2-11.7-0.5-16.8h9l0.5,10h0.3c3.2-5.9,8.5-11.5,18-11.5c7.7,0,13.6,5.1,16.1,12.5h0.2
				c1.8-3.6,4.1-6.2,6.4-8.1c3.5-2.8,7.2-4.4,12.5-4.4c7.6,0,18.8,5.4,18.8,27.1v36.7h-10.1v-35.3c0-12.1-4.1-19.2-12.4-19.2
				c-5.9,0-10.5,4.7-12.3,10.2c-0.5,1.6-0.8,3.7-0.8,5.7v38.6h-10.1v-37.4c0-9.9-4-17.1-11.9-17.1c-6.5,0-11.2,5.6-12.9,11.3
				C989.3-78,989-76,989-74v37.6h-10.1V-82z"/>
			<path d="M1113.9-116.5c0,3.9-2.5,7.1-6.6,7.1c-3.8,0-6.3-3.2-6.3-7.1c0-3.9,2.6-7.1,6.5-7.1
				C1111.3-123.5,1113.8-120.4,1113.9-116.5z M1102.3-36.4v-62.4h10.3v62.4H1102.3z"/>
			<path d="M1129.9-78.5c0-8-0.2-14.4-0.5-20.3h9.3l0.6,10.6h0.2c4.1-7.6,11-12.1,20.2-12.1c13.8,0,24.2,12.7,24.2,31.7
				c0,22.5-12.6,33.6-25.9,33.6c-7.6,0-14.2-3.6-17.6-9.8h-0.2v34h-10.3V-78.5z M1140.2-61.8c0,1.6,0.2,3.2,0.4,4.6
				c1.9,7.9,8.2,13.3,15.5,13.3c11,0,17.3-9.9,17.3-24.2c0-12.4-6-23.2-16.9-23.2c-7.1,0-13.7,5.5-15.7,14c-0.3,1.5-0.7,3.1-0.7,4.6
				V-61.8z"/>
			<path d="M1195.5-48c3.1,2.1,8.6,4.4,13.8,4.4c7.6,0,11.1-4.1,11.1-9.3c0-5.5-3-8.3-10.6-11.4c-10.3-4.1-15.2-10.2-15.2-17.7
				c0-10,7.5-18.3,19.7-18.3c5.8,0,10.8,1.7,14,3.8l-2.6,8.2c-2.2-1.5-6.4-3.7-11.7-3.7c-6.1,0-9.4,3.9-9.4,8.6
				c0,5.2,3.4,7.5,10.8,10.6c9.8,4,14.9,9.4,15,18.7c0,11.1-7.9,18.8-21.3,18.8c-6.2,0-12-1.8-16-4.3L1195.5-48z"/>
			<path d="M1291.4-53.5c0,6.5,0.2,12.1,0.5,17.1h-9.2l-0.6-10.2h-0.3c-2.6,5-8.7,11.6-18.9,11.6c-8.9,0-19.6-5.5-19.6-27.3v-36.5
				h10.3v34.5c0,11.9,3.4,20,12.8,20c7,0,11.8-5.3,13.7-10.4c0.5-1.6,0.9-3.7,0.9-5.8v-38.2h10.3V-53.5z"/>
			<path d="M1308.7-82c0-6.5-0.2-11.7-0.5-16.8h9l0.5,10h0.3c3.2-5.9,8.5-11.5,18-11.5c7.7,0,13.6,5.1,16.1,12.5h0.2
				c1.8-3.6,4.1-6.2,6.4-8.1c3.5-2.8,7.2-4.4,12.5-4.4c7.6,0,18.8,5.4,18.8,27.1v36.7h-10.1v-35.3c0-12.1-4.1-19.2-12.4-19.2
				c-5.9,0-10.5,4.7-12.3,10.2c-0.5,1.6-0.8,3.7-0.8,5.7v38.6h-10.1v-37.4c0-9.9-4-17.1-11.9-17.1c-6.5,0-11.2,5.6-12.9,11.3
				c-0.5,1.7-0.8,3.6-0.8,5.6v37.6h-10.1V-82z"/>
		</g>
	</g>
</g>
<g>
	<path class="st1" d="M361.9,154v13h13.7v-13h3.7v31h-3.7v-14.5h-13.7V185h-3.7v-31H361.9z"/>
	<path class="st1" d="M409.9,169.2c0,10.6-5.9,16.3-13.2,16.3c-7.5,0-12.7-6.4-12.7-15.7c0-9.8,5.6-16.3,13.1-16.3
		C404.8,153.5,409.9,160,409.9,169.2z M387.8,169.7c0,6.6,3.3,12.6,9.1,12.6c5.8,0,9.1-5.8,9.1-12.9c0-6.2-2.9-12.6-9-12.6
		C390.9,156.7,387.8,162.9,387.8,169.7z"/>
	<path class="st1" d="M418.3,154v18.4c0,6.9,2.8,9.9,6.6,9.9c4.2,0,6.9-3,6.9-9.9V154h3.7v18.1c0,9.5-4.6,13.4-10.7,13.4
		c-5.8,0-10.2-3.6-10.2-13.2V154H418.3z"/>
	<path class="st1" d="M441.3,180.1c1.6,1.1,4,2,6.5,2c3.7,0,5.9-2.1,5.9-5.3c0-2.9-1.5-4.6-5.4-6.1c-4.6-1.8-7.5-4.5-7.5-8.8
		c0-4.8,3.7-8.4,9.2-8.4c2.9,0,5,0.7,6.3,1.5l-1,3.3c-0.9-0.6-2.8-1.5-5.4-1.5c-3.9,0-5.4,2.5-5.4,4.6c0,2.9,1.7,4.3,5.6,6
		c4.8,2.1,7.2,4.6,7.2,9.1c0,4.8-3.2,8.9-9.9,8.9c-2.7,0-5.7-0.9-7.2-2L441.3,180.1z"/>
	<path class="st1" d="M477.2,170.5h-11v11.2h12.3v3.3h-16v-31h15.3v3.3h-11.6v9.8h11V170.5z"/>
</g>
</svg>
