<?xml version="1.0" encoding="utf-8"?>
<!-- Generator: Adobe Illustrator 22.0.1, SVG Export Plug-In . SVG Version: 6.00 Build 0)  -->
<svg version="1.1" id="Слой_1" xmlns="http://www.w3.org/2000/svg" xmlns:xlink="http://www.w3.org/1999/xlink" x="0px" y="0px"
	 viewBox="0 0 100 30" style="enable-background:new 0 0 100 30;" xml:space="preserve">
<style type="text/css">
	.st0{fill:#FFFFFF;}
</style>
<path class="st0" d="M13.6,2.2c-5.2,0-9.4,4.1-9.4,9.1c0,5.4,9.4,15.7,9.4,15.7S23,17.1,23,11.3C23,6.3,18.8,2.2,13.6,2.2z M13.8,18
	c-3.4,0-6.2-2.9-6.2-6.5S10.4,5,13.8,5S20,7.9,20,11.5S17.2,18,13.8,18z"/>
<g>
	<g>
		<path class="st0" d="M35.2,16c-0.7,0.8-2,1.3-3.5,1.3c-2.8,0-4.7-1.5-4.7-3.8c0-2.1,1.8-3.8,4.5-3.8c1.4,0,2.7,0.3,3.5,1l-1,1.5
			c-0.7-0.5-1.4-0.7-2.2-0.7c-1.2,0-2.4,0.8-2.4,2.1s1.2,2.1,2.5,2.1c0.9,0,1.7-0.4,2.2-0.9L35.2,16z"/>
		<path class="st0" d="M39.3,9.6c2.9,0,4.8,1.6,4.8,3.8s-1.8,3.8-4.7,3.8s-4.8-1.6-4.8-3.8C34.5,11.2,36.4,9.6,39.3,9.6 M39.3,15.5
			c1.4,0,2.4-0.8,2.4-2.1c0-1.2-1-2.1-2.4-2.1c-1.3,0-2.4,0.8-2.4,2.1C36.9,14.6,37.9,15.5,39.3,15.5"/>
		<path class="st0" d="M44.5,9.8h2.2v0.7c0.5-0.5,1.5-0.9,2.5-0.9c2.1,0,3.6,0.8,3.6,3.1V17h-2.2v-3.9c0-1.2-0.7-1.7-2-1.7
			c-0.8,0-1.4,0.3-1.9,0.7v5h-2.2L44.5,9.8z"/>
		<path class="st0" d="M53.4,7.7h2.2v2h2.8v1.7h-2.8V14c0,0.8,0.3,1.3,1.1,1.3c0.6,0,1-0.2,1.3-0.4l0.7,1.4
			c-0.5,0.4-1.5,0.7-2.6,0.7c-2,0-2.7-1.1-2.7-2.9V7.7z"/>
		<path class="st0" d="M60.6,6c0.6,0,1.3,0.4,1.3,1.1s-0.6,1.2-1.3,1.2c-0.8,0-1.4-0.4-1.4-1.2C59.2,6.4,59.9,6,60.6,6 M59.5,9.7
			h2.2V17h-2.2V9.7z"/>
		<path class="st0" d="M63.1,9.7h2.2v0.7c0.5-0.5,1.5-0.9,2.5-0.9c2.1,0,3.6,0.8,3.6,3.1v4.3h-2.2V13c0-1.2-0.7-1.7-2-1.7
			c-0.8,0-1.4,0.3-1.9,0.7v5h-2.2L63.1,9.7z"/>
		<path class="st0" d="M79.7,16.2c-0.9,0.6-2.1,0.9-3.3,0.9c-2.8,0-4.7-1.5-4.7-3.8c0-2.1,1.7-3.8,4.6-3.8c2.2,0,4.1,1.3,4.1,3.4
			c0,0.5,0,0.7-0.1,1H74c0.2,1.1,1.2,1.7,2.6,1.7c1.1,0,2-0.3,2.5-0.7L79.7,16.2z M73.9,12.6h4.3c0-0.9-0.7-1.6-2-1.6
			C74.8,11,74.1,11.6,73.9,12.6"/>
		<path class="st0" d="M80.7,9.6h2.2v0.7c0.5-0.5,1.5-0.9,2.5-0.9c2.1,0,3.6,0.8,3.6,3.1v4.3h-2.2v-3.9c0-1.2-0.7-1.7-2-1.7
			c-0.8,0-1.4,0.3-1.9,0.7v5h-2.2V9.6z"/>
		<path class="st0" d="M89.7,7.6h2.2v2h2.8v1.7h-2.8v2.6c0,0.8,0.3,1.3,1.1,1.3c0.6,0,1-0.2,1.3-0.4l0.7,1.4
			c-0.5,0.4-1.5,0.7-2.6,0.7c-2,0-2.7-1.1-2.7-2.9V7.6z"/>
	</g>
</g>
<g>
	<path class="st0" d="M34,23.2v0.6V24c0,0.1,0,0.3-0.1,0.5c0,0.2-0.1,0.4-0.1,0.4c0,0.1-0.1,0.1-0.1,0.1s-0.1,0-0.2,0
		c-0.2,0-0.3-0.1-0.3-0.3c0,0,0-0.2,0.1-0.5c0.1-0.5,0.1-0.8,0.1-1c0,0-0.2,0.1-0.5,0.4c-0.3,0.2-0.5,0.5-0.7,0.7s-0.3,0.3-0.5,0.5
		c0,0,0,0.1-0.1,0.1c-0.1,0.2-0.2,0.4-0.4,0.4c-0.1,0-0.1,0-0.2-0.1s-0.1-0.1-0.1-0.2s0.1-0.3,0.3-0.5c0.2-0.2,0.6-0.6,1.3-1.2
		c0.2-0.2,0.4-0.4,0.6-0.5c0,0-0.1-0.1-0.3-0.3c-0.1-0.1-0.3-0.2-0.4-0.4c-0.1-0.1-0.1-0.1-0.2-0.2c-0.3-0.2-0.4-0.4-0.5-0.5
		s-0.1-0.2-0.1-0.2c0-0.1,0-0.2,0.1-0.2c0.1-0.1,0.1-0.1,0.2-0.1c0,0,0.1,0,0.2,0c0.1,0,0.2,0.1,0.2,0.1l0.4,0.4
		c0.5,0.5,0.8,0.8,1,0.9c0-0.1,0-0.3,0-0.6v-0.1c0-0.3,0-0.5,0-0.5c0-0.1,0-0.2,0-0.3c0-0.1,0-0.2,0.1-0.3c0.1-0.1,0.2-0.1,0.2-0.1
		c0.1,0,0.2,0,0.3,0.1s0.1,0.1,0.1,0.2s0,0.4,0,0.9c0,0.2,0,0.3,0,0.4c0,0.2,0,0.3,0,0.3s0.1,0,0.1-0.1l0.1-0.1
		c0.9-1,1.4-1.6,1.6-1.6c0.1,0,0.1,0,0.2,0.1c0.1,0.1,0.1,0.1,0.1,0.2c0,0-0.1,0.2-0.3,0.4c-0.2,0.2-0.3,0.4-0.5,0.5
		s-0.4,0.4-0.8,0.8c0,0,0.2,0.2,0.5,0.4c0.3,0.3,0.5,0.4,0.5,0.5c0.4,0.2,0.6,0.4,0.6,0.6c0,0.1,0,0.1-0.1,0.2s-0.1,0.1-0.2,0.1
		c-0.2,0-0.6-0.3-1.2-0.9c-0.3-0.3-0.5-0.4-0.5-0.5C34.2,23.3,34.1,23.3,34,23.2C34.1,23.3,34.1,23.2,34,23.2z"/>
	<path class="st0" d="M40.4,22.6c-0.1,0.8-0.1,1.3-0.1,1.7c0,0.1,0,0.2,0,0.3c0,0.1,0,0.2,0,0.3c0,0.1,0,0.2-0.1,0.2
		s-0.2,0.1-0.3,0.1s-0.2-0.1-0.3-0.2s-0.1-0.4-0.1-0.7c0-0.4,0.1-1,0.2-1.9v-0.1c0,0,0,0.1-0.1,0.1c-0.1,0.2-0.2,0.3-0.2,0.3l0,0
		c-0.3,0.4-0.6,0.7-0.8,0.9c-0.1,0.1-0.2,0.2-0.4,0.4c-0.2,0.2-0.3,0.3-0.3,0.3c-0.2,0.2-0.3,0.3-0.4,0.4c-0.1,0.2-0.2,0.3-0.2,0.3
		l0,0c-0.1,0.1-0.2,0.1-0.3,0.1c-0.2,0-0.3-0.1-0.3-0.3c0-0.1,0-0.3,0.1-0.7c0.1-0.4,0.1-1.2,0.2-2.4c0-0.3,0.1-0.5,0.1-0.6
		s0.1-0.2,0.1-0.3c0.1-0.1,0.1-0.1,0.2-0.1c0.1,0,0.2,0,0.2,0.1c0.1,0.1,0.1,0.2,0.1,0.3c0,0,0,0.1,0,0.3c0,0.2,0,0.3-0.1,0.3
		c0,0,0,0.1,0,0.4l-0.1,0.7c0,0.2-0.1,0.5-0.1,1.1c0.2-0.1,0.4-0.4,0.8-0.9l0.1-0.1c0.3-0.3,0.5-0.5,0.7-0.7c0,0,0.2-0.3,0.6-0.8
		l0.1-0.1c0.1-0.1,0.2-0.2,0.2-0.3s0.1-0.1,0.2-0.1c0.1,0,0.2,0,0.2,0.1c0.1,0.1,0.1,0.1,0.1,0.2L40.4,22.6z"/>
	<path class="st0" d="M43.3,21.8v0.1c0,0,0,0.4-0.1,0.9c-0.1,0.6-0.1,1-0.1,1.3c0,0.1,0,0.3,0.1,0.5v0.1c0,0.1,0,0.2-0.1,0.3
		c-0.1,0.1-0.1,0.1-0.2,0.1c-0.1,0-0.1,0-0.2-0.1s-0.1-0.2-0.2-0.3c0-0.1,0-0.3,0-0.6c0-0.3,0-0.8,0.1-1.4s0.1-1,0.1-1s-0.2,0-0.6,0
		c-0.3,0-0.5,0-0.6,0c-0.2,0-0.3,0-0.4-0.1c-0.1,0-0.1-0.1-0.1-0.2s0-0.2,0.1-0.2s0.3-0.1,0.5-0.1c0.5,0,1,0,1.4-0.1
		c0.5-0.1,0.9-0.1,1.2-0.1s0.5,0,0.6,0.1s0.1,0.2,0.1,0.2c0,0.2-0.1,0.3-0.2,0.3c0,0-0.1,0-0.2,0c-0.1,0-0.2,0-0.4,0
		C43.8,21.7,43.5,21.7,43.3,21.8z"/>
	<path class="st0" d="M46.8,22.6c-0.1-0.3-0.1-0.6-0.2-0.7c0,0.1-0.1,0.1-0.1,0.2c-0.1,0.3-0.2,0.5-0.3,0.6S46,23,45.9,23.3
		c-0.1,0.3-0.3,0.6-0.6,1.1c-0.2,0.4-0.4,0.7-0.5,0.8c-0.1,0.1-0.2,0.2-0.3,0.2s-0.2,0-0.3-0.1c0-0.1-0.1-0.1-0.1-0.3
		c0-0.1,0.1-0.3,0.3-0.6c0.2-0.2,0.5-0.8,1-1.8l0.8-1.5c0.1-0.1,0.1-0.2,0.2-0.2c0.1,0,0.1,0,0.2,0s0.1,0.1,0.2,0.1
		c0,0,0.1,0.1,0.1,0.2s0.1,0.3,0.1,0.5s0.1,0.5,0.2,0.9c0.1,0.4,0.3,0.9,0.4,1.3c0.1,0.4,0.2,0.7,0.3,0.7c0,0.1,0.1,0.1,0.1,0.1
		c0.1,0.1,0.2,0.2,0.2,0.3c0,0.1,0,0.2-0.1,0.2c-0.1,0.1-0.2,0.1-0.3,0.1s-0.1,0-0.1,0s-0.1-0.1-0.2-0.2c-0.1-0.1-0.1-0.2-0.2-0.2
		c0-0.1-0.1-0.2-0.2-0.4l-0.3-1C47,23.3,46.9,23,46.8,22.6z"/>
	<path class="st0" d="M50.5,25.2h-0.4c-0.3,0-0.5-0.2-0.7-0.5s-0.3-0.6-0.3-0.9c0-0.4,0.1-0.9,0.3-1.4s0.5-0.8,0.8-1.1
		c0.3-0.3,0.6-0.4,0.9-0.4c0,0,0.1,0,0.2,0c0.1,0,0.3,0,0.4,0c0.2,0,0.4,0,0.5,0.1s0.3,0.2,0.4,0.3s0.3,0.3,0.3,0.6
		c0.1,0.2,0.1,0.4,0.1,0.7c0,0.3-0.1,0.7-0.4,1.1c-0.3,0.4-0.6,0.8-1,1.1C51.2,25.1,50.8,25.2,50.5,25.2z M52.4,22.6
		c0-0.4-0.1-0.7-0.3-0.9c-0.2-0.2-0.4-0.3-0.5-0.3c0,0-0.1,0-0.2,0c-0.1,0-0.2,0-0.2,0c-0.5,0.1-0.9,0.4-1.1,0.9
		c-0.3,0.5-0.4,1-0.4,1.4c0,0.2,0.1,0.4,0.2,0.6s0.3,0.2,0.5,0.2c0.3,0,0.6-0.1,0.9-0.3c0.3-0.2,0.6-0.5,0.8-0.8s0.4-0.5,0.4-0.7
		L52.4,22.6z"/>
	<path class="st0" d="M58.5,21.7L58.5,21.7c0-0.1,0-0.1-0.1-0.2s-0.2-0.1-0.3-0.1c-0.3,0-0.6,0-0.8,0.1c-0.1,0-0.1,0-0.1,0.1
		c0,0-0.1,0.2-0.2,0.6c-0.1,0.4-0.2,0.8-0.2,1.2v0.2c-0.1,0.5-0.1,0.9-0.1,1.1c0,0.1,0,0.3-0.1,0.3c-0.1,0.1-0.2,0.1-0.3,0.1
		s-0.2,0-0.2-0.1C56,24.9,56,24.8,56,24.7c0,0,0-0.1,0.1-0.3c0.1-0.2,0.1-0.7,0.3-1.3c0.1-0.6,0.2-1,0.2-1c0-0.1,0-0.1-0.1-0.1
		s-0.1,0-0.2-0.1c-0.1-0.1-0.1-0.1-0.1-0.2c0-0.2,0.2-0.4,0.7-0.5s1-0.2,1.5-0.2c0.2,0,0.4,0.1,0.6,0.2c0.2,0.2,0.3,0.4,0.3,0.6
		c0,0.1-0.1,0.3-0.2,0.5c-0.1,0.2-0.3,0.4-0.5,0.6c0.5,0.1,0.7,0.5,0.7,1c0,0.2-0.2,0.6-0.6,0.9c-0.4,0.4-0.8,0.5-1.3,0.5
		c-0.1,0-0.2,0-0.3-0.1C57,25.2,57,25.1,57,25s0-0.1,0.1-0.2c0-0.1,0.1-0.1,0.1-0.2s0.1-0.1,0.3-0.1c0.4,0,0.7-0.1,0.9-0.3
		c0.2-0.2,0.3-0.3,0.3-0.5c0-0.1,0-0.3-0.1-0.4s-0.2-0.2-0.3-0.2c0,0,0,0-0.1,0c-0.2,0.1-0.4,0.1-0.4,0.1c-0.2,0-0.3,0-0.3-0.1
		c-0.1-0.1-0.1-0.1-0.1-0.2s0.1-0.2,0.2-0.2c0.2-0.1,0.4-0.2,0.5-0.3s0.3-0.2,0.4-0.4C58.3,22,58.4,21.9,58.5,21.7z"/>
	<path class="st0" d="M62.3,23.7L62.3,23.7c-0.1,0-0.2,0-0.5,0.1s-0.5,0.1-0.6,0.1c-0.3,0.1-0.5,0.2-0.6,0.2s-0.1,0-0.1,0l0,0l0,0
		c0,0-0.1,0.1-0.1,0.3c-0.1,0.3-0.3,0.5-0.3,0.6c-0.1,0.1-0.2,0.2-0.2,0.2c-0.1,0-0.1,0-0.2-0.1s-0.1-0.2-0.1-0.2
		c0-0.1,0.1-0.3,0.3-0.7c0.4-0.6,0.7-1.2,1-1.6c0.3-0.7,0.6-1.1,0.7-1.3c0.2-0.2,0.3-0.4,0.4-0.4c0.3,0,0.4,0.1,0.4,0.3
		c0,0.1,0,0.1,0,0.2c0.1,0.3,0.1,0.5,0.2,0.6c0,0,0.2,0.5,0.5,1.3c0.1,0.2,0.2,0.5,0.3,0.7s0.2,0.4,0.3,0.5c0.3,0.2,0.4,0.4,0.4,0.6
		c0,0.1,0,0.2-0.1,0.3c-0.1,0.1-0.1,0.1-0.2,0.1c-0.2,0-0.4-0.3-0.7-0.8C62.4,24.1,62.3,23.8,62.3,23.7z M62.1,23.1
		c-0.1-0.3-0.2-0.6-0.3-0.9s-0.1-0.4-0.1-0.4s-0.2,0.5-0.7,1.4c0,0.1-0.1,0.1-0.1,0.2L62.1,23.1z"/>
	<path class="st0" d="M64.3,25c-0.1-0.1-0.1-0.2-0.1-0.3c0-0.1,0-0.2,0-0.4c0-0.3,0.1-0.7,0.2-1.3c0.1-0.6,0.1-1.1,0.1-1.4
		c0-0.2,0-0.3,0.1-0.4s0.1-0.1,0.2-0.2h0.1c0.1,0,0.2,0,0.3,0.1c0,0.1,0.1,0.2,0.1,0.3c0,0.2-0.1,0.9-0.2,2.3c0,0.4-0.1,0.6-0.1,0.6
		c0,0.1,0,0.1,0,0.1s0.1,0,0.3,0c0.3,0,0.7,0,1.3,0l0.1-1.6c0-0.2,0-0.6,0.1-1.2c0-0.2,0-0.3,0-0.3s0-0.1,0.1-0.1l0.1-0.1
		c0.3,0,0.4,0.1,0.4,0.3c0,0,0,0.3-0.1,0.8l-0.1,1.3c0,0.2,0,0.4,0,0.4c0,0.2,0,0.3,0,0.3s0.2,0.1,0.4,0.1c0.2,0,0.4,0,0.7,0
		c0.3,0,0.4,0,0.4-0.1c0,0,0,0,0-0.1c0-0.3,0-0.7,0-1.1c0-0.1,0-0.5,0.1-1.5c0-0.3,0-0.5,0-0.5c0-0.1,0-0.2,0.1-0.2
		c0.1-0.1,0.1-0.1,0.2-0.1c0.2,0,0.3,0.1,0.3,0.4c0,0.1,0,0.6-0.1,1.5c0,0.1,0,0.1,0,0.2c0,0.2,0,0.7,0,1.5c0,0.2,0,0.3-0.1,0.4
		s-0.2,0.2-0.3,0.2c-0.1,0-0.5,0-1.1,0h-2.3c0,0-0.3,0-0.7,0.1c-0.1,0-0.2,0-0.2,0h-0.1C64.4,25.1,64.3,25.1,64.3,25z"/>
	<path class="st0" d="M71.9,25.2h-0.4c-0.3,0-0.5-0.2-0.7-0.5s-0.3-0.6-0.3-0.9c0-0.4,0.1-0.9,0.3-1.4c0.2-0.5,0.5-0.8,0.8-1.1
		s0.6-0.4,0.9-0.4c0,0,0.1,0,0.2,0s0.3,0,0.4,0c0.2,0,0.4,0,0.5,0.1s0.3,0.2,0.4,0.3s0.3,0.3,0.3,0.6c0.1,0.2,0.1,0.4,0.1,0.7
		c0,0.3-0.1,0.7-0.4,1.1s-0.6,0.8-1,1.1C72.6,25.1,72.2,25.2,71.9,25.2z M73.8,22.6c0-0.4-0.1-0.7-0.3-0.9c-0.2-0.2-0.4-0.3-0.5-0.3
		c0,0-0.1,0-0.2,0s-0.2,0-0.2,0c-0.5,0.1-0.9,0.4-1.1,0.9s-0.4,1-0.4,1.4c0,0.2,0.1,0.4,0.2,0.6s0.3,0.2,0.5,0.2
		c0.3,0,0.6-0.1,0.9-0.3s0.6-0.5,0.8-0.8s0.4-0.5,0.4-0.7L73.8,22.6z"/>
	<path class="st0" d="M76.3,21.5c0,0,0,0.1-0.1,0.3c-0.1,0.2-0.1,0.3-0.2,0.5c0,0.2-0.1,0.5-0.2,1c0,0,0,0.1,0,0.3
		c-0.1,0.5-0.1,0.8-0.1,0.9l0.1,0.2c0,0.1,0,0.1-0.1,0.2S75.5,25,75.4,25c-0.2,0-0.3-0.1-0.3-0.4c0-0.4,0.1-0.9,0.2-1.6l0.2-1.4
		v-0.1l0.1-0.2c0-0.2,0.1-0.3,0.1-0.3l0.1-0.1l0.1-0.1c0.1,0,0.2,0,0.3,0.1c0.1,0.1,0.1,0.2,0.1,0.3C76.3,21.2,76.3,21.5,76.3,21.5z
		 M75.6,20.4c-0.1,0-0.2,0-0.2-0.1s-0.1-0.1-0.1-0.2c0-0.3,0.1-0.4,0.3-0.4c0.1,0,0.2,0,0.3,0.1C76,19.9,76,20,76,20.1
		C76,20.3,75.9,20.4,75.6,20.4z M76.5,20.3c-0.1,0-0.2,0-0.2-0.1c-0.1-0.1-0.1-0.1-0.1-0.2s0-0.2,0.1-0.2s0.1-0.1,0.3-0.1l0,0
		c0.1,0,0.1,0,0.2,0s0.1,0.1,0.1,0.2C76.9,20.2,76.8,20.3,76.5,20.3z"/>
	<path class="st0" d="M83.3,21.2c0,0.1,0,0.2-0.1,0.3c-0.1,0.2-0.1,0.6-0.2,1.1s-0.1,1-0.1,1.4c0,0.2,0,0.4,0.1,0.7
		c0,0.2,0.1,0.3,0.1,0.3c0,0.3-0.1,0.4-0.3,0.4c-0.1,0-0.3-0.1-0.3-0.2c-0.1-0.1-0.1-0.4-0.1-0.9s0-1,0.1-1.5c0-0.2,0.1-0.3,0.1-0.4
		c-0.5,0.8-0.9,1.2-1,1.3c-0.1,0.1-0.1,0.2-0.2,0.4c0,0.1-0.1,0.2-0.1,0.3c0,0-0.1,0.1-0.2,0.1c0,0-0.1,0-0.1-0.1
		c-0.1,0-0.1-0.1-0.2-0.1c0,0-0.1-0.1-0.2-0.3c-0.1-0.2-0.2-0.4-0.4-0.8l-0.4-1c-0.1,0.7-0.2,1.4-0.2,2.2v0.3c0,0.2,0,0.4,0,0.4
		c0,0.1,0,0.1-0.1,0.2c0,0.1-0.1,0.1-0.2,0.1s-0.3,0-0.3-0.1c-0.1-0.1-0.1-0.2-0.1-0.3c0-0.1,0-0.2,0-0.2c0-0.1,0.1-0.3,0.1-0.7
		c0.1-0.6,0.1-1.1,0.2-1.6c0.1-0.4,0.1-0.7,0.1-0.9c0-0.3,0-0.4,0.1-0.5c0-0.1,0.1-0.1,0.2-0.1s0.2,0,0.3,0.1s0.2,0.2,0.3,0.3
		s0.1,0.3,0.2,0.5s0.2,0.5,0.3,0.9c0.2,0.4,0.3,0.6,0.4,0.8c0.1-0.1,0.2-0.2,0.3-0.4c0.4-0.4,0.6-0.8,0.8-1c0.2-0.2,0.3-0.5,0.4-0.7
		c0.2-0.4,0.3-0.6,0.4-0.6s0.2,0,0.3,0.1S83.3,21,83.3,21.2L83.3,21.2z"/>
	<path class="st0" d="M84.8,23.7c0,0.4-0.1,0.8-0.1,1c0,0.1,0,0.2-0.1,0.3c-0.1,0.1-0.1,0.1-0.2,0.1c-0.2,0-0.3-0.1-0.3-0.4
		c0-0.1,0-0.6,0.1-1.5c0.1-0.7,0.1-1.1,0.1-1.2s0-0.2,0-0.3c-0.1-0.1-0.2-0.2-0.2-0.3c0-0.2,0.2-0.3,0.7-0.4s0.8-0.2,1.2-0.2
		c0.4,0,0.7,0.1,0.9,0.3c0.2,0.2,0.3,0.4,0.3,0.7c0,0.4-0.2,0.8-0.6,1.1c-0.4,0.3-0.9,0.5-1.5,0.7C84.9,23.7,84.8,23.7,84.8,23.7z
		 M85,21.7l-0.1,1.4c0.5-0.1,0.9-0.2,1.3-0.5c0.4-0.2,0.5-0.5,0.5-0.7c0-0.3-0.2-0.5-0.7-0.5C85.7,21.5,85.4,21.5,85,21.7z"/>
	<path class="st0" d="M88.8,21.5c0,0,0,0.1-0.1,0.3c-0.1,0.2-0.1,0.3-0.2,0.5c0,0.2-0.1,0.5-0.2,1c0,0,0,0.1,0,0.3
		c-0.1,0.5-0.1,0.8-0.1,0.9l0.1,0.2c0,0.1,0,0.1-0.1,0.2S88,25,87.9,25c-0.2,0-0.3-0.1-0.3-0.4c0-0.4,0.1-0.9,0.2-1.6l0.2-1.4v-0.1
		l0.1-0.2c0-0.2,0.1-0.3,0.1-0.3l0.1-0.1c0.1,0,0.1-0.1,0.1-0.1c0.1,0,0.2,0,0.3,0.1c0.1,0.1,0.1,0.2,0.1,0.3
		C88.8,21.2,88.8,21.5,88.8,21.5z"/>
	<path class="st0" d="M90.4,21.5c0,0,0,0.1-0.1,0.3c-0.1,0.2-0.1,0.3-0.2,0.5c0,0.2-0.1,0.5-0.2,1c0,0,0,0.1,0,0.3
		c-0.1,0.5-0.1,0.8-0.1,0.9l0.1,0.2c0,0.1,0,0.1-0.1,0.2S89.6,25,89.5,25c-0.2,0-0.3-0.1-0.3-0.4c0-0.4,0.1-0.9,0.2-1.6l0.2-1.4
		v-0.1l0.1-0.2c0-0.2,0.1-0.3,0.1-0.3l0.1-0.1l0.1-0.1c0.1,0,0.2,0,0.3,0.1c0.1,0.1,0.1,0.2,0.1,0.3C90.4,21.2,90.4,21.5,90.4,21.5z
		 M89.7,20.4c-0.1,0-0.2,0-0.2-0.1s-0.1-0.1-0.1-0.2c0-0.3,0.1-0.4,0.3-0.4c0.1,0,0.2,0,0.3,0.1c0,0.1,0,0.2,0,0.4
		C90,20.3,89.9,20.4,89.7,20.4z M90.6,20.3c-0.1,0-0.2,0-0.2-0.1c-0.1-0.1-0.1-0.1-0.1-0.2s0-0.2,0.1-0.2s0.1-0.1,0.3-0.1l0,0
		c0.1,0,0.1,0,0.2,0s0.1,0.1,0.1,0.2C91,20.2,90.8,20.3,90.6,20.3z"/>
</g>
</svg>
