<svg height="512" width="512" xmlns="http://www.w3.org/2000/svg"><circle cx="256" cy="256" fill="#2cc47f" r="256"/><path d="M512 256c0-10.504-.633-20.861-1.862-31.033L435 149.829 77 377.098l130.27 130.27A257.343 257.343 0 00256 512c141.385 0 256-114.615 256-256z" fill="#06b26b"/><path d="M108.344 135.987h295.778l3.984 252.265H103.894L90.181 169.32z" fill="#fff"/><path d="M404.122 135.987H256v252.265h152.107l2.001-211.601z" fill="#e9edf5"/><path d="M408.106 388.252V178.376c0-1.627-.888-3.15-2.337-3.891-1.545-.79-3.045-.677-4.455.338L256 296.819 110.686 174.823c-1.409-1.015-2.909-1.128-4.455-.338-1.449.74-2.337 2.263-2.337 3.89v209.878c-20.987 0-38-17.013-38-38v-171.95c0-15.944 8.815-30.365 23.005-37.635 14.191-7.27 31.044-6.001 43.985 3.313L256 250l123.116-106.019c13.088-9.42 30.179-10.611 44.467-3.062 14.032 7.413 22.523 22.281 22.523 38.151v171.183c0 20.986-17.013 37.999-38 37.999z" fill="#ff583e"/><path d="M423.584 140.919c-14.288-7.548-31.379-6.357-44.467 3.062L256 249.896v46.821l145.314-121.894c1.41-1.015 2.91-1.128 4.455-.338 1.449.741 2.337 2.263 2.337 3.891v209.876c20.987 0 38-17.013 38-38V179.07c0-15.87-8.491-30.738-22.522-38.151z" fill="#f92814"/></svg>