<?xml version="1.0" encoding="utf-8"?>
<!-- Generator: Adobe Illustrator 23.0.2, SVG Export Plug-In . SVG Version: 6.00 Build 0)  -->
<svg version="1.1" id="Capa_1" xmlns="http://www.w3.org/2000/svg" xmlns:xlink="http://www.w3.org/1999/xlink" x="0px" y="0px"
	 viewBox="0 0 455.7 455.7" style="enable-background:new 0 0 455.7 455.7;" xml:space="preserve">
<style type="text/css">
	.st0{fill:#3A559F;}
	.st1{fill:#FFFFFF;}
</style>
<g>
	<rect class="st0" width="455.7" height="455.7"/>
	<path class="st1" d="M123.4,138.7c10.4,27,23.6,52.4,40.9,75.2c2.3,3,5.2,5.7,8.3,7.9c4.5,3.2,8.7,2.1,10.5-3.3
		c1.9-5.6,3.7-17,3.8-23c0.3-15.4,0-25.6-0.8-41c-0.5-9.9-3.9-18.6-17.7-21.2c-4.3-0.8-4.7-4.5-1.9-8.2c5.7-7.7,13.7-8.9,22.3-9.4
		c14-0.8,28-0.1,42,0c5.7,0.1,11.4,0.5,17.1,1.8c7.3,1.7,11.3,7.1,12.5,14.6c0.6,3.9,0.9,7.9,0.9,11.8c-0.4,16.9-1.1,33.7-1.3,50.6
		c-0.1,6.6,0.4,13.4,1.7,19.8c1.9,9,7.7,11.2,13.6,4.7c7.6-8.2,14.2-17.5,20.5-26.9c11.4-17.1,19.8-35.9,27.1-55.3
		c3.8-10,6.7-12.2,16.9-12.2c19.2,0,38.5-0.1,57.7,0c3.4,0,7,0.4,10.2,1.4c5.2,1.8,7.3,6.2,6.1,11.9c-2.9,13.3-9.7,24.6-17,35.5
		c-11.8,17.5-24.1,34.5-36.2,51.8c-1.5,2.2-2.9,4.5-4.2,6.9c-4.5,8.6-4.2,13.4,2.4,20.5c10.5,11.3,21.7,22,31.8,33.6
		c7.4,8.5,14.2,17.7,20,27.4c7.4,12.2,2.8,23.8-11,25.8c-8.7,1.3-51,0-53.2,0c-11.4-0.1-21.4-4.2-29.4-12.3
		c-8.9-9.1-17.1-19-25.7-28.4c-2.6-2.8-5.3-5.6-8.3-8c-7-5.6-13.9-4.4-17.2,4.3c-2.8,7.4-5.2,27-5.3,28.7
		c-0.6,8.7-5.9,14.3-15.2,14.8c-26.9,1.5-52.9-1.6-77.2-15.3c-20.6-11.6-37-27.9-51.2-47c-22.6-30.3-40.4-63.6-56.7-97.9
		c-0.8-1.8-17.3-38.7-17.8-40.4c-1.5-5.8-0.1-11.4,4.6-13.3c2.9-1.2,57.3,0,58.2,0C113.8,125.4,119.7,129.2,123.4,138.7z"/>
</g>
</svg>
