<?xml version="1.0" encoding="utf-8"?>
<!-- Generator: Adobe Illustrator 23.0.2, SVG Export Plug-In . SVG Version: 6.00 Build 0)  -->
<svg version="1.1" id="Layer_1" xmlns="http://www.w3.org/2000/svg" xmlns:xlink="http://www.w3.org/1999/xlink" x="0px" y="0px"
	 viewBox="0 0 2500 740.7" style="enable-background:new 0 0 2500 740.7;" xml:space="preserve">
<style type="text/css">
	.st0{fill:#A6A6A6;}
	.st1{fill:#FFFFFF;stroke:#FFFFFF;stroke-width:0.2;stroke-miterlimit:10;}
	.st2{fill:#FFFFFF;}
	.st3{fill:url(#SVGID_1_);}
	.st4{fill:url(#SVGID_2_);}
	.st5{fill:url(#SVGID_3_);}
	.st6{fill:url(#SVGID_4_);}
	.st7{opacity:0.2;enable-background:new    ;}
	.st8{opacity:0.12;enable-background:new    ;}
	.st9{opacity:0.25;fill:#FFFFFF;enable-background:new    ;}
</style>
<title>play-market</title>
<path d="M2407.4,740.7H92.6C40.7,740.7,0,700,0,648.2V92.6C0,40.7,40.7,0,92.6,0h2314.8c51.9,0,92.6,40.7,92.6,92.6v555.6
	C2500,700,2459.3,740.7,2407.4,740.7z"/>
<path class="st0" d="M2407.4,14.8c42.6,0,77.8,35.2,77.8,77.8v555.6c0,42.6-35.2,77.8-77.8,77.8H92.6c-42.6,0-77.8-35.2-77.8-77.8
	V92.6C14.8,50,50,14.8,92.6,14.8L2407.4,14.8 M2407.4,0H92.6C40.7,0,0,42.6,0,92.6v555.6c0,51.8,40.7,92.6,92.6,92.6h2314.8
	c51.9,0,92.6-40.7,92.6-92.6V92.6C2500,42.6,2459.3,0,2407.4,0z"/>
<path class="st1" d="M877.8,188.9c0,14.8-3.7,27.8-13,37c-11.1,11.1-24.1,16.7-40.7,16.7s-29.6-5.6-40.7-16.7s-16.6-24-16.6-40.7
	s5.5-29.6,16.7-40.7s24.1-16.7,40.7-16.7c7.7,0.1,15.4,2,22.2,5.5c7.4,3.7,13,7.4,16.7,13l-9.3,9.3c-7.4-9.3-16.7-13-29.6-13
	c-11.1,0-22.2,3.7-29.6,13c-9.3,7.4-13,18.5-13,31.5s3.7,24.1,13,31.5s18.5,13,29.6,13c13,0,22.2-3.7,31.5-13
	c6-5.8,9.3-13.9,9.3-22.2h-40.7v-14.8h53.7V188.9z M963,142.6h-50v35.2h46.3v13H913V226h50v14.8h-64.8V129.6H963V142.6z
	 M1024.1,240.7h-14.8v-98.1h-31.5v-13h77.8v13h-31.5L1024.1,240.7z M1109.3,240.7V129.6h14.8v111.1H1109.3z M1187.1,240.7h-14.8
	v-98.1h-31.5v-13h75.9v13h-31.5v98.1H1187.1z M1363,225.9c-11.1,11.1-24.1,16.7-40.7,16.7s-29.6-5.6-40.7-16.7s-16.7-24.1-16.7-40.8
	s5.6-29.6,16.7-40.7s24.1-16.7,40.7-16.7s29.6,5.5,40.7,16.7s16.7,24.1,16.7,40.7S1374.1,214.8,1363,225.9z M1292.6,216.7
	c7.4,7.4,18.5,13,29.6,13s22.2-3.7,29.6-13c8.3-8.4,13-19.7,13-31.5c0-13-3.7-24.1-13-31.5c-7.4-7.4-18.5-13-29.6-13
	s-22.2,3.7-29.6,13c-8.3,8.4-13,19.7-13,31.5C1279.6,198.1,1283.3,209.3,1292.6,216.7L1292.6,216.7z M1400,240.7V129.6h16.7l53.7,87
	v-87h14.8v111.1h-14.8L1413,150v90.7H1400z"/>
<path class="st2" d="M1261.1,403.7c-44.4,0-79.6,33.3-79.6,79.6c-0.3,43.6,34.7,79.3,78.4,79.6c0.4,0,0.8,0,1.3,0
	c44.4,0,79.6-33.3,79.6-79.6C1340.7,435.2,1305.6,403.7,1261.1,403.7z M1261.1,529.6c-24.1,0-44.4-20.4-44.4-48.1
	s20.4-48.1,44.4-48.1s44.4,18.5,44.4,48.1C1305.6,509.3,1285.2,529.6,1261.1,529.6z M1088.9,403.7c-44.4,0-79.6,33.3-79.6,79.6
	c-0.3,43.6,34.7,79.3,78.4,79.6c0.4,0,0.8,0,1.3,0c44.4,0,79.6-33.3,79.6-79.6C1168.5,435.2,1133.3,403.7,1088.9,403.7z
	 M1088.9,529.6c-24.1,0-44.4-20.4-44.4-48.1s20.4-48.1,44.4-48.1s44.4,18.5,44.4,48.1C1133.3,509.3,1113,529.6,1088.9,529.6z
	 M883.3,427.8v33.3H963c-1.8,18.5-9.3,33.3-18.5,42.6c-11.1,11.1-29.6,24.1-61.1,24.1c-50,0-87-38.9-87-88.9s38.9-88.9,87-88.9
	c25.9,0,46.3,11.1,61.1,24.1l24.1-24.1c-20.4-18.5-46.3-33.3-83.3-33.3c-66.7,0-124.1,55.5-124.1,122.2s57.4,122.2,124.1,122.2
	c37,0,63-11.1,85.2-35.2c22.2-22.2,29.6-53.7,29.6-77.8c0-7.4,0-14.8-1.8-20.4L883.3,427.8z M1724.1,453.7
	c-7.4-18.5-25.9-50-66.7-50s-74.1,31.5-74.1,79.6c0,44.5,33.3,79.6,77.8,79.6c35.2,0,57.4-22.2,64.8-35.2l-25.9-18.5
	c-9.3,13-20.4,22.2-38.9,22.2s-29.6-7.4-38.9-24.1l105.6-44.5L1724.1,453.7L1724.1,453.7z M1616.7,479.6c0-29.6,24.1-46.3,40.7-46.3
	c13,0,25.9,7.4,29.6,16.7L1616.7,479.6L1616.7,479.6z M1529.7,555.6h35.2V324.1h-35.2V555.6z M1474.1,420.4
	c-9.3-9.3-24.1-18.5-42.6-18.5c-38.9,0-75.9,35.2-75.9,79.6s35.2,77.8,75.9,77.8c18.5,0,33.3-9.3,40.7-18.5h1.8v11.1
	c0,29.6-16.7,46.3-42.6,46.3c-20.4,0-35.2-14.8-38.9-27.8l-29.6,13c9.3,20.4,31.5,46.3,70.4,46.3c40.7,0,74.1-24.1,74.1-81.5V407.4
	h-33.3V420.4L1474.1,420.4z M1433.3,529.6c-24.1,0-44.4-20.4-44.4-48.1s20.4-48.1,44.4-48.1s42.6,20.4,42.6,48.1
	S1457.4,529.6,1433.3,529.6z M1885.2,324.1h-83.3v231.5h35.2v-87h48.2c38.9,0,75.9-27.8,75.9-72.2S1924.1,324.1,1885.2,324.1z
	 M1887,435.2h-50v-79.6h50c25.9,0,40.7,22.2,40.7,38.9C1925.9,414.8,1911.1,435.2,1887,435.2z M2100,401.9
	c-25.9,0-51.9,11.1-61.1,35.2l31.5,13c7.4-13,18.5-16.7,31.5-16.7c18.5,0,35.2,11.1,37,29.6v1.9c-5.6-3.7-20.4-9.3-35.2-9.3
	c-33.3,0-66.7,18.5-66.7,51.9c0,31.5,27.8,51.9,57.4,51.9c24.1,0,35.2-11.1,44.4-22.2h1.9v18.5h33.3v-89
	C2170.3,425.9,2138.9,401.8,2100,401.9L2100,401.9z M2096.3,529.7c-11.1,0-27.8-5.6-27.8-20.4c0-18.5,20.4-24.1,37-24.1
	c14.8,0,22.2,3.7,31.5,7.4C2133.3,514.8,2114.8,529.6,2096.3,529.7L2096.3,529.7z M2290.7,407.4l-38.9,100h-1.9l-40.7-100h-37
	l61.1,140.7l-35.2,77.8h35.2l94.4-218.5L2290.7,407.4z M1979.6,555.6h35.2V324.1h-35.2V555.6z"/>
<linearGradient id="SVGID_1_" gradientUnits="userSpaceOnUse" x1="2268.4956" y1="93.318" x2="2251.7056" y2="76.538" gradientTransform="matrix(18.52 0 0 -18.52 -41608.1914 1888.84)">
	<stop  offset="0" style="stop-color:#00A0FF"/>
	<stop  offset="1.000000e-02" style="stop-color:#00A1FF"/>
	<stop  offset="0.26" style="stop-color:#00BEFF"/>
	<stop  offset="0.51" style="stop-color:#00D2FF"/>
	<stop  offset="0.76" style="stop-color:#00DFFF"/>
	<stop  offset="1" style="stop-color:#00E3FF"/>
</linearGradient>
<path class="st3" d="M192.6,138.9c-5.6,5.6-7.4,14.8-7.4,25.9v409.3c0,11.1,3.7,20.4,9.3,25.9l1.9,1.9l229.6-229.6v-3.7L192.6,138.9
	z"/>
<linearGradient id="SVGID_2_" gradientUnits="userSpaceOnUse" x1="2280.585" y1="81.9409" x2="2256.395" y2="81.9409" gradientTransform="matrix(18.52 0 0 -18.52 -41608.1914 1888.84)">
	<stop  offset="0" style="stop-color:#FFE000"/>
	<stop  offset="0.41" style="stop-color:#FFBD00"/>
	<stop  offset="0.78" style="stop-color:#FFA500"/>
	<stop  offset="1" style="stop-color:#FF9C00"/>
</linearGradient>
<path class="st4" d="M500,450l-75.9-75.9v-5.5l75.9-75.9l1.9,1.9l90.7,51.9c25.9,14.8,25.9,38.9,0,53.7L500,450z"/>
<linearGradient id="SVGID_3_" gradientUnits="userSpaceOnUse" x1="2271.5115" y1="79.7421" x2="2248.7515" y2="56.9821" gradientTransform="matrix(18.52 0 0 -18.52 -41608.1914 1888.84)">
	<stop  offset="0" style="stop-color:#FF3A44"/>
	<stop  offset="1" style="stop-color:#C31162"/>
</linearGradient>
<path class="st5" d="M501.9,448.1l-77.8-77.8L192.6,601.9c9.3,9.3,22.2,9.3,38.9,1.8L501.9,448.1"/>
<linearGradient id="SVGID_4_" gradientUnits="userSpaceOnUse" x1="2253.9839" y1="101.7176" x2="2264.144" y2="91.5576" gradientTransform="matrix(18.52 0 0 -18.52 -41608.1914 1888.84)">
	<stop  offset="0" style="stop-color:#32A071"/>
	<stop  offset="7.000000e-02" style="stop-color:#2DA771"/>
	<stop  offset="0.48" style="stop-color:#15CF74"/>
	<stop  offset="0.8" style="stop-color:#06E775"/>
	<stop  offset="1" style="stop-color:#00F076"/>
</linearGradient>
<path class="st6" d="M501.9,292.6L231.5,138.9c-16.7-9.3-29.6-7.4-38.9,1.9l231.5,229.6L501.9,292.6z"/>
<path class="st7" d="M500,446.3L231.5,598.2c-14.8,9.3-27.8,7.4-37,0l-1.9,1.8l1.9,1.8c9.3,7.4,22.2,9.3,37,0L500,446.3z"/>
<path class="st8" d="M192.6,598.2c-5.6-5.6-7.4-14.8-7.4-25.9v1.8c0,11.1,3.7,20.4,9.3,25.9v-1.8H192.6z M592.6,394.4L500,446.3
	l1.9,1.9l90.7-51.9c13-7.4,18.5-16.7,18.5-25.9C611.1,379.6,603.7,387,592.6,394.4L592.6,394.4z"/>
<path class="st9" d="M231.5,140.7l361.1,205.6c11.1,7.4,18.5,14.8,18.5,24.1c0-9.3-5.5-18.5-18.5-25.9L231.5,138.9
	c-25.9-14.8-46.3-3.7-46.3,25.9v1.9C185.2,138.9,205.6,125.9,231.5,140.7z"/>
</svg>
