<svg xmlns="http://www.w3.org/2000/svg" viewBox="0 0 94.5 86.5"><path d="M1.9 3.9C.9 3.9 0 3 0 1.9 0 .9.9 0 1.9 0s1.9.9 1.9 1.9c.1 1.1-.8 2-1.9 2zm18.2 0C19 3.9 18.2 3 18.2 2c-.1-1.1.8-2 1.9-2S22 .9 22 1.9c0 1.1-.9 2-1.9 2zm18.1 0c-1.1 0-1.9-.9-1.9-1.9 0-1.1.9-1.9 1.9-1.9s1.9.9 1.9 1.9c0 1-.8 1.9-1.9 1.9zm18.1 0c-1.1 0-1.9-.9-1.9-1.9 0-1.1.9-1.9 1.9-1.9s1.9.9 1.9 1.9c.1 1-.8 1.9-1.9 1.9zm18.2 0c-1.1 0-1.9-.9-1.9-1.9 0-1.1.9-1.9 1.9-1.9 1.1 0 1.9.9 1.9 1.9 0 1-.9 1.9-1.9 1.9zm18.1 0c-1.1 0-1.9-.9-1.9-1.9 0-1.1.9-1.9 1.9-1.9s1.9.9 1.9 1.9c0 1-.8 1.9-1.9 1.9zM1.9 20.4c-1.1 0-1.9-.9-1.9-1.9 0-1.1.9-1.9 1.9-1.9s1.9.9 1.9 1.9c.1 1-.8 1.9-1.9 1.9zm18.2 0c-1.1 0-1.9-.9-1.9-1.9 0-1.1.9-1.9 1.9-1.9s1.9.9 1.9 1.9c0 1-.9 1.9-1.9 1.9zm18.1 0c-1.1 0-1.9-.9-1.9-1.9 0-1.1.9-1.9 1.9-1.9s1.9.9 1.9 1.9c0 1-.8 1.9-1.9 1.9zm18.1 0c-1.1 0-1.9-.9-1.9-1.9 0-1.1.9-1.9 1.9-1.9s1.9.9 1.9 1.9c.1 1-.8 1.9-1.9 1.9zm18.2 0c-1.1 0-1.9-.9-1.9-1.9 0-1.1.9-1.9 1.9-1.9 1.1 0 1.9.9 1.9 1.9 0 1-.9 1.9-1.9 1.9zm18.1 0c-1.1 0-1.9-.9-1.9-1.9 0-1.1.9-1.9 1.9-1.9s1.9.9 1.9 1.9c0 1-.8 1.9-1.9 1.9zM1.9 36.9c-1 0-1.9-.8-1.9-1.9 0-1.1.9-1.9 1.9-1.9s1.9.9 1.9 1.9c.1 1.1-.8 1.9-1.9 1.9zm18.2 0c-1.1 0-1.9-.9-1.9-1.9 0-1.1.9-1.9 1.9-1.9s1.9.8 1.9 1.9c0 1.1-.9 1.9-1.9 1.9zm18.1 0c-1.1 0-1.9-.9-1.9-1.9 0-1.1.9-1.9 1.9-1.9s1.9.9 1.9 1.9c0 1.1-.8 1.9-1.9 1.9zm18.1 0c-1.1 0-1.9-.9-1.9-1.9 0-1.1.9-1.9 1.9-1.9s1.9.9 1.9 1.9c.1 1.1-.8 1.9-1.9 1.9zm18.2 0c-1.1 0-1.9-.9-1.9-1.9 0-1.1.9-1.9 1.9-1.9 1.1 0 1.9.9 1.9 1.9 0 1.1-.9 1.9-1.9 1.9zm18.1 0c-1.1 0-1.9-.9-1.9-1.9 0-1.1.9-1.9 1.9-1.9s1.9.9 1.9 1.9c0 1.1-.8 1.9-1.9 1.9zM1.9 53.5c-1.1 0-1.9-.9-1.9-1.9 0-1.1.9-1.9 1.9-1.9s1.9.9 1.9 1.9c.1 1-.8 1.9-1.9 1.9zm18.2 0c-1.1 0-1.9-.9-1.9-1.9 0-1.1.9-1.9 1.9-1.9s1.9.9 1.9 1.9c0 1-.9 1.9-1.9 1.9zm18.1 0c-1.1 0-1.9-.9-1.9-1.9 0-1.1.9-1.9 1.9-1.9s1.9.9 1.9 1.9c0 1-.8 1.9-1.9 1.9zm18.1 0c-1.1 0-1.9-.9-1.9-1.9 0-1.1.9-1.9 1.9-1.9s1.9.9 1.9 1.9c.1 1-.8 1.9-1.9 1.9zm18.2 0c-1.1 0-1.9-.9-1.9-1.9 0-1.1.9-1.9 1.9-1.9 1.1 0 1.9.9 1.9 1.9 0 1-.9 1.9-1.9 1.9zm18.1 0c-1.1 0-1.9-.9-1.9-1.9 0-1.1.9-1.9 1.9-1.9s1.9.9 1.9 1.9c0 1-.8 1.9-1.9 1.9zM1.9 70c-1 0-1.9-.9-1.9-1.9 0-1.1.9-1.9 1.9-1.9s1.9.9 1.9 1.9c.1 1-.8 1.9-1.9 1.9zm18.2 0c-1.1 0-1.9-.9-1.9-1.9 0-1.1.9-1.9 1.9-1.9s1.9.8 1.9 1.9c0 1-.9 1.9-1.9 1.9zm18.1 0c-1.1 0-1.9-.9-1.9-1.9 0-1.1.9-1.9 1.9-1.9s1.9.9 1.9 1.9c0 1-.8 1.9-1.9 1.9zm18.1 0c-1.1 0-1.9-.9-1.9-1.9 0-1.1.9-1.9 1.9-1.9s1.9.9 1.9 1.9c.1 1-.8 1.9-1.9 1.9zm18.2 0c-1.1 0-1.9-.9-1.9-1.9 0-1.1.9-1.9 1.9-1.9 1.1 0 1.9.9 1.9 1.9 0 1-.9 1.9-1.9 1.9zm18.1 0c-1.1 0-1.9-.9-1.9-1.9 0-1.1.9-1.9 1.9-1.9s1.9.9 1.9 1.9c0 1-.8 1.9-1.9 1.9zM1.9 86.5c-1.1 0-1.9-.9-1.9-1.9 0-1.1.9-1.9 1.9-1.9s1.9.9 1.9 1.9c.1 1.1-.8 1.9-1.9 1.9zm18.2 0c-1.1 0-1.9-.9-1.9-1.9 0-1.1.9-1.9 1.9-1.9s1.9.9 1.9 1.9c0 1.1-.9 1.9-1.9 1.9zm18.1 0c-1.1 0-1.9-.9-1.9-1.9 0-1.1.9-1.9 1.9-1.9s1.9.9 1.9 1.9c0 1.1-.8 1.9-1.9 1.9zm18.1 0c-1.1 0-1.9-.9-1.9-1.9 0-1.1.9-1.9 1.9-1.9s1.9.9 1.9 1.9c.1 1.1-.8 1.9-1.9 1.9zm18.2 0c-1.1 0-1.9-.9-1.9-1.9 0-1.1.9-1.9 1.9-1.9 1.1 0 1.9.9 1.9 1.9 0 1.1-.9 1.9-1.9 1.9zm18.1 0c-1.1 0-1.9-.9-1.9-1.9 0-1.1.9-1.9 1.9-1.9s1.9.9 1.9 1.9c0 1.1-.8 1.9-1.9 1.9z" fill="#0b315e"/></svg>