<svg xmlns="http://www.w3.org/2000/svg" viewBox="0 0 645.6 224.5"><linearGradient id="a" gradientUnits="userSpaceOnUse" x1="143.952" y1="225.959" x2="514.237" y2="-76.115"><stop offset="0" stop-color="#00032a"/><stop offset="1" stop-color="#0a305e"/></linearGradient><path d="M98.4 112.4c11.7 13.9 19.5 30 29.7 44.8 10.2 14.8 23.6 28.8 41.9 35 44.2 14.9 91.7-21.6 138.5-15.4 23.4 3.1 43.1 16.3 62.7 27.9 19.6 11.6 42.2 22.3 65.6 19.4 22.7-2.8 40.6-17.8 60.3-28.1 19.9-10.3 42.2-15.9 64-22.6 21.7-6.6 43.6-14.6 60.4-28.5 16.8-13.9 27.8-34.8 22.9-54.6-4.2-17-19.3-30.6-36.6-38.8-17.3-8.2-36.9-11.8-56.2-15.2C452.7 18.7 352.7 3.5 251.7.5 216.2-.6-13.7-4.1.6 46.9 5.8 65.3 28.5 69.8 45.3 76c20.9 7.8 39.6 20.3 53.1 36.4z" fill="url(#a)"/></svg>