<svg xmlns="http://www.w3.org/2000/svg" viewBox="0 0 477.7 477.7"><path d="M433.6 101c0-.2 0-.3-.1-.5-.6-.9-1.3-1.6-1.9-2.4-4.5-6.1-9.2-11.9-14.2-17.5-1.4-1.5-2.7-3.1-4.1-4.6-5.1-5.5-10.5-10.7-16.1-15.7-1-.9-2-1.9-3.1-2.8-13.9-11.9-29.1-22.2-45.3-30.6-.6-.3-1.3-.6-2-1-7.2-3.7-14.6-7-22.2-9.9-1.7-.6-3.3-1.2-4.9-1.7-6.7-2.4-13.6-4.5-20.5-6.4-2-.5-4.1-1.1-6.2-1.6-6.8-1.6-13.7-2.8-20.6-3.8-2.1-.3-4.2-.7-6.3-1-18-2.2-36.2-2.2-54.1 0-2.1.3-4.2.7-6.3 1-7 1-13.9 2.2-20.6 3.8-2.1.5-4.1 1-6.2 1.6-7 1.8-13.8 3.9-20.5 6.4-1.7.6-3.3 1.2-4.9 1.7-7.6 2.9-15 6.2-22.2 9.9-.7.3-1.3.6-2 1-16.3 8.4-31.6 18.7-45.5 30.6-1 .9-2 1.9-3.1 2.8-5.7 5-11.1 10.2-16.1 15.7-1.4 1.5-2.8 3-4.1 4.6-5 5.6-9.7 11.5-14.2 17.5-.6.8-1.3 1.6-1.9 2.4-.1.1-.1.3-.2.5-58.9 82.5-58.9 193.3 0 275.8.1.2.1.3.2.5.6.9 1.3 1.6 1.9 2.4 4.4 6.1 9.2 11.9 14.2 17.5 1.4 1.5 2.7 3.1 4.1 4.6 5.1 5.5 10.5 10.7 16.1 15.7 1 .9 2 1.9 3.1 2.8 13.9 11.9 29.1 22.2 45.3 30.6.6.3 1.3.6 2 1 7.2 3.7 14.6 7 22.2 9.9 1.7.6 3.3 1.2 4.9 1.7 6.7 2.4 13.6 4.5 20.5 6.4 2 .5 4.1 1.1 6.2 1.6 6.8 1.6 13.7 2.8 20.6 3.8 2.1.3 4.2.7 6.3 1 18 2.2 36.2 2.2 54.1 0 2.1-.3 4.2-.7 6.3-1 7-1 13.9-2.2 20.6-3.8 2.1-.5 4.1-1 6.2-1.6 7-1.8 13.8-3.9 20.5-6.4 1.7-.6 3.3-1.2 4.9-1.7 7.6-2.9 15-6.2 22.2-9.9.7-.3 1.3-.6 2-1 16.2-8.4 31.4-18.7 45.3-30.6 1-.9 2-1.9 3.1-2.8 5.7-5 11.1-10.2 16.1-15.7 1.4-1.5 2.8-3 4.1-4.6 5-5.6 9.7-11.5 14.2-17.5.6-.8 1.3-1.6 1.9-2.4.1-.1.1-.3.2-.5 58.9-82.5 58.9-193.3.1-275.8zm-19.5 32.3c16.3 26.9 26.2 57.2 28.8 88.5H340.7c-1.3-20.3-4.5-40.5-9.6-60.2 28.9-5.4 56.8-15 83-28.3zM282.4 38.8c1 .2 1.9.5 2.8.8 6.1 1.4 12.2 3.1 18.1 5.1.9.3 1.8.7 2.7 1 5.9 2 11.7 4.3 17.3 6.8 1 .5 2 1 3 1.4 5.4 2.6 10.7 5.4 15.9 8.4l3.4 2.1c4.9 3 9.7 6.2 14.3 9.6 1.2.9 2.4 1.7 3.6 2.7 4.6 3.4 8.9 7.1 13.1 11l3.3 3c4.4 4.1 8.5 8.5 12.6 13.1.5.6 1.1 1.1 1.6 1.7-23.1 11-47.6 18.9-72.8 23.4-11.7-32.1-27.1-62.7-45.9-91.2 2.2.3 4.6.6 7 1.1zm-111.1 183c1.3-18.5 4.5-36.8 9.4-54.6 19.3 2.3 38.8 3.4 58.3 3.4s39-1.2 58.3-3.5c4.9 17.9 8 36.2 9.3 54.7H171.3zm135.3 34.1c-1.3 18.5-4.5 36.8-9.4 54.6-19.3-2.3-38.8-3.4-58.3-3.4s-39 1.1-58.3 3.4c-4.9-17.9-8-36.1-9.3-54.6h135.3zM238.9 45.2c19.4 27.5 35.4 57.3 47.6 88.7-15.8 1.7-31.7 2.5-47.6 2.5s-31.7-.9-47.5-2.5c12.2-31.4 28.2-61.2 47.5-88.7zM85.5 103.7c4-4.5 8.2-8.9 12.6-13.1l3.3-3c4.2-3.8 8.6-7.5 13.1-11 1.2-.9 2.4-1.7 3.6-2.7 4.6-3.4 9.4-6.6 14.3-9.6l3.4-2.1c5.2-3 10.5-5.8 15.9-8.4 1-.5 2-1 3-1.4 5.7-2.6 11.5-4.8 17.3-6.8.9-.3 1.7-.7 2.7-1 5.9-2 11.9-3.6 18.1-5.1 1-.2 1.9-.5 2.9-.7 2.3-.5 4.8-.8 7.1-1.2-18.9 28.5-34.3 59.1-46 91.2-25.2-4.5-49.7-12.4-72.8-23.4.5-.6 1-1.1 1.5-1.7zm-21.7 29.6c26.2 13.4 54.1 22.9 83 28.3-5.1 19.7-8.3 39.9-9.5 60.2H35c2.6-31.3 12.5-61.6 28.8-88.5zm0 211.2C47.5 317.6 37.6 287.3 35 256h102.2c1.3 20.3 4.5 40.5 9.6 60.2-28.9 5.4-56.8 14.9-83 28.3zM195.5 439c-1-.2-1.9-.5-2.8-.8-6.1-1.4-12.2-3.1-18.1-5.1-.9-.3-1.8-.7-2.7-1-5.9-2-11.7-4.3-17.3-6.8-1-.5-2-1-3-1.4-5.4-2.6-10.7-5.4-15.9-8.4l-3.4-2.1c-4.9-3-9.7-6.2-14.3-9.6-1.2-.9-2.4-1.7-3.6-2.7-4.6-3.4-8.9-7.1-13.1-11l-3.3-3c-4.4-4.1-8.5-8.5-12.6-13.1-.5-.6-1.1-1.1-1.6-1.7 23.1-11 47.6-18.9 72.8-23.4 11.7 32.1 27.1 62.7 45.9 91.2-2.2-.4-4.6-.6-7-1.1zm43.4-6.5a414.05 414.05 0 01-47.6-88.7c31.6-3.4 63.5-3.4 95.1 0-12.1 31.4-28.1 61.2-47.5 88.7zm153.5-58.4c-4 4.5-8.2 8.9-12.6 13.1l-3.3 3c-4.2 3.8-8.6 7.5-13.1 11l-3.6 2.7c-4.6 3.4-9.4 6.6-14.3 9.6l-3.4 2.1c-5.2 3-10.5 5.8-15.9 8.4-1 .5-2 1-3 1.4-5.7 2.6-11.5 4.8-17.3 6.8-.9.3-1.7.7-2.7 1-5.9 2-11.9 3.6-18.1 5.1-1 .2-1.9.5-2.9.7-2.3.5-4.8.8-7.1 1.2 18.8-28.5 34.3-59.1 45.9-91.2 25.2 4.5 49.7 12.4 72.8 23.4-.4.5-.9 1.1-1.4 1.7zm21.7-29.6c-26.2-13.4-54.1-22.9-83-28.3 5.1-19.7 8.3-39.9 9.5-60.2h102.2c-2.5 31.3-12.4 61.6-28.7 88.5z" fill="#2f4880"/></svg>