<svg version="1.1" id="Layer_1" xmlns="http://www.w3.org/2000/svg" xmlns:xlink="http://www.w3.org/1999/xlink" x="0" y="0" viewBox="0 0 300 300" xml:space="preserve"><style>.st2{fill:#0b315e}.st6{fill:#fff}.st7{opacity:.15}.st12{fill:#24126a}</style><linearGradient id="SVGID_1_" gradientUnits="userSpaceOnUse" x1="-35.29" y1="117.809" x2="153.343" y2="117.809" gradientTransform="matrix(-1 0 0 1 260.71 0)"><stop offset="0" stop-color="#c0bff6"/><stop offset=".294" stop-color="#c5c4f7"/><stop offset=".64" stop-color="#d3d2f9"/><stop offset="1" stop-color="#e9e9fd"/></linearGradient><path d="M107.4 129.9L127.8 4.8l-1.6-.7 2.5-1.5c.5-.3 1.2-.3 1.9.1L293.9 100c1.3.8 2.4 2.8 2.1 4.3l-20.6 126.1c-.1.7-.4 1.1-.9 1.3l-2.4 1.4-.4-2.3h.1l-162.3-96.7c-1.3-.7-2.3-2.8-2.1-4.2z" fill="url(#SVGID_1_)"/><path class="st2" d="M107 135.7L270.2 233c1.3.8 2.3.3 2.6-1l20.6-126.1c.2-1.4-.8-3.5-2.1-4.3L128 4.3c-1.3-.8-2.3-.3-2.6 1l-20.6 126.1c-.2 1.5.8 3.5 2.2 4.3z"/><path class="st2" d="M127.4 6.7l164.1 97.7-20.7 126.4-164-97.7z" opacity=".51"/><path d="M4.3 195.4l8.9 4.8 89.4-53.2c1.5-.9 4.1-.8 5.8.2L262.5 239c1.5-.9 8.2-4.2 8.2-4.2l-3.3 5.5c-.1.4-.4.8-.9 1l-94.1 56.1c-1.5.9-4.1.8-5.8-.2l-157.7-94c-.7-.4-1.1-.9-1.3-1.5l-3.3-6.3z" fill="#1d4a77"/><linearGradient id="SVGID_2_" gradientUnits="userSpaceOnUse" x1="-128.374" y1="214.666" x2="264.193" y2="214.666" gradientTransform="matrix(-1 0 0 1 260.71 0)"><stop offset="0" stop-color="#c0bff6"/><stop offset=".294" stop-color="#c5c4f7"/><stop offset=".64" stop-color="#d3d2f9"/><stop offset="1" stop-color="#e9e9fd"/></linearGradient><path d="M5.7 196.9l161.6 96.3c1.8 1.1 4.4 1.2 6 .3l96.4-57.5c1.5-.9 1.3-2.5-.4-3.6l-161.6-96.3c-1.8-1.1-4.4-1.2-6-.3L5.3 193.3c-1.6 1-1.4 2.6.4 3.6z" fill="url(#SVGID_2_)"/><path class="st6" d="M5.7 196.2l161.6 96.3c1.8 1.1 4.4 1.2 6 .3l96.4-57.5c.5-.3.9-.7 1-1.2.2.7-.1 1.4-1 1.9l-96.4 57.5c-1.5.9-4.2.8-6-.3L5.7 196.9c-1.1-.7-1.6-1.6-1.4-2.4.1.6.6 1.2 1.4 1.7z"/><g class="st7"><defs><path id="SVGID_14_" class="st7" d="M291.5 104.4L127.4 6.7l-20.6 126.4 164 97.7z"/></defs><clipPath id="SVGID_3_"><use xlink:href="#SVGID_14_" overflow="visible"/></clipPath><g clip-path="url(#SVGID_3_)"><linearGradient id="SVGID_4_" gradientUnits="userSpaceOnUse" x1="-112.461" y1="161.687" x2="153.951" y2="161.687" gradientTransform="matrix(-1 0 0 1 260.71 0)"><stop offset="0" stop-color="#5761d7"/><stop offset=".178" stop-color="#5c66d9"/><stop offset=".388" stop-color="#6a73df"/><stop offset=".613" stop-color="#8289e8"/><stop offset=".849" stop-color="#a3a7f5"/><stop offset="1" stop-color="#bcbeff"/></linearGradient><path d="M106.8 134.9l8.9 4.8L205 86.5c1.5-.9 4.1-.8 5.8.2L365 178.5c1.5-.9 8.2-4.2 8.2-4.2l-3.3 5.5c-.1.4-.4.8-.9 1l-94.1 56.1c-1.5.9-4.1.8-5.8-.2l-157.7-93.9c-.7-.4-1.1-.9-1.3-1.5l-3.3-6.4z" fill="url(#SVGID_4_)"/><linearGradient id="SVGID_5_" gradientUnits="userSpaceOnUse" x1="-22.946" y1="154.171" x2="243.608" y2="154.171" gradientTransform="matrix(-1 0 0 1 260.71 0)"><stop offset="0" stop-color="#c0bff6"/><stop offset=".294" stop-color="#c5c4f7"/><stop offset=".64" stop-color="#d3d2f9"/><stop offset="1" stop-color="#e9e9fd"/></linearGradient><path d="M108.1 136.4l161.6 96.3c1.8 1.1 4.4 1.2 6 .3l96.4-57.5c1.5-.9 1.3-2.5-.4-3.6L210.1 75.6c-1.8-1.1-4.4-1.2-6-.3l-96.4 57.5c-1.5 1-1.3 2.6.4 3.6z" fill="url(#SVGID_5_)"/><path class="st6" d="M371.8 171.9L210.1 75.6c-1.1-.7-2.7-1-4-.8 1 .1 2 .4 2.8.8l161.6 96.3c1.8 1.1 2 2.6.4 3.6L274.5 233c-.5.3-1.2.5-2 .6 1.2.1 2.3-.1 3.2-.6l96.4-57.5c1.6-.9 1.4-2.5-.3-3.6z"/><g opacity=".5"><path class="st12" d="M192.8 119.8l-5.2-3.1c-.4-.2-1.1-.2-1.6 0l-5.8 3.5c-.5.3-.5.7-.1.9l5.2 3.1c.4.2 1.1.2 1.6 0l5.8-3.5c.5-.2.5-.6.1-.9zm8 4.8l-5.2-3.1c-.4-.2-1.1-.2-1.6 0l-5.8 3.5c-.5.3-.5.7-.1.9l5.2 3.1c.4.2 1.1.2 1.6 0l5.8-3.5c.5-.2.5-.7.1-.9zm8 4.8l-5.2-3.1c-.4-.2-1.1-.2-1.6 0l-5.8 3.5c-.5.3-.5.7-.1.9l5.2 3.1c.4.2 1.1.2 1.6 0l5.8-3.5c.5-.3.5-.7.1-.9zm-6.1 6.3l-5.2-3.1c-.4-.2-1.1-.2-1.6 0l-4.8 2.9c-.5.3-.5.7-.1.9l5.2 3.1c.4.2 1.1.2 1.6 0l4.8-2.9c.5-.2.5-.6.1-.9zm8 4.8l-5.2-3.1c-.4-.2-1.1-.2-1.6 0l-4.8 2.9c-.5.3-.5.7-.1.9l5.2 3.1c.4.2 1.1.2 1.6 0l4.8-2.9c.5-.3.5-.7.1-.9zm8 4.7l-5.2-3.1c-.4-.2-1.1-.2-1.6 0l-4.8 2.9c-.5.3-.5.7-.1.9l5.2 3.1c.4.2 1.1.2 1.6 0l4.8-2.9c.5-.2.5-.6.1-.9zm8 4.8l-5.2-3.1c-.4-.2-1.1-.2-1.6 0l-4.8 2.9c-.5.3-.5.7-.1.9l5.2 3.1c.4.2 1.1.2 1.6 0l4.8-2.9c.5-.2.5-.6.1-.9zm8 4.8l-5.2-3.1c-.4-.2-1.1-.2-1.6 0l-4.8 2.9c-.5.3-.5.7-.1.9l5.2 3.1c.4.2 1.1.2 1.6 0l4.8-2.9c.5-.3.5-.7.1-.9zm8 4.7l-5.2-3.1c-.4-.2-1.1-.2-1.6 0l-4.8 2.9c-.5.3-.5.7-.1.9l5.2 3.1c.4.2 1.1.2 1.6 0l4.8-2.9c.5-.2.5-.6.1-.9zm8 4.8l-5.2-3.1c-.4-.2-1.1-.2-1.6 0l-4.8 2.9c-.5.3-.5.7-.1.9l5.2 3.1c.4.2 1.1.2 1.6 0l4.8-2.9c.5-.2.5-.6.1-.9zm8 4.8l-5.2-3.1c-.4-.2-1.1-.2-1.6 0l-4.8 2.9c-.5.3-.5.7-.1.9l5.2 3.1c.4.2 1.1.2 1.6 0l4.8-2.9c.5-.3.5-.7.1-.9zm8 4.7l-5.2-3.1c-.4-.2-1.1-.2-1.6 0l-4.8 2.9c-.5.3-.5.7-.1.9l5.2 3.1c.4.2 1.1.2 1.6 0l4.8-2.9c.5-.2.5-.6.1-.9zm8 4.8l-5.2-3.1c-.4-.2-1.1-.2-1.6 0l-4.8 2.9c-.5.3-.5.7-.1.9l5.2 3.1c.4.2 1.1.2 1.6 0l4.8-2.9c.5-.2.5-.6.1-.9zm-75.3-36.1l-5.2-3.1c-.4-.2-1.1-.2-1.6 0l-4.8 2.9c-.5.3-.5.7-.1.9l5.2 3.1c.4.2 1.1.2 1.6 0l4.8-2.9c.5-.2.5-.6.1-.9zm-8.1-4.8l-5.2-3.1c-.4-.2-1.1-.2-1.6 0l-4.8 2.9c-.5.3-.5.7-.1.9l5.2 3.1c.4.2 1.1.2 1.6 0l4.8-2.9c.4-.3.5-.7.1-.9zm-8.2-4.9l-11.2-6.6c-.4-.2-1.1-.2-1.6 0l-4.8 2.9c-.5.3-.5.7-.1.9l11.2 6.6c.4.2 1.1.2 1.6 0l4.8-2.9c.5-.2.5-.6.1-.9zm-9.4 3.2l-9.1-5.4c-.4-.2-1.1-.2-1.6 0l-4.8 2.9c-.5.3-.5.7-.1.9l9.1 5.4c.4.2 1.1.2 1.6 0l4.8-2.9c.5-.2.5-.7.1-.9zm33.7 11.3l-5.2-3.1c-.4-.2-1.1-.2-1.6 0l-4.8 2.9c-.5.3-.5.7-.1.9l5.2 3.1c.4.2 1.1.2 1.6 0l4.8-2.9c.5-.3.5-.7.1-.9zm8 4.7l-5.2-3.1c-.4-.2-1.1-.2-1.6 0l-4.8 2.9c-.5.3-.5.7-.1.9l5.2 3.1c.4.2 1.1.2 1.6 0l4.8-2.9c.5-.2.5-.6.1-.9zm8 4.8l-5.2-3.1c-.4-.2-1.1-.2-1.6 0l-4.8 2.9c-.5.3-.5.7-.1.9l5.2 3.1c.4.2 1.1.2 1.6 0l4.8-2.9c.5-.2.5-.6.1-.9zm8 4.8l-5.2-3.1c-.4-.2-1.1-.2-1.6 0l-4.8 2.9c-.5.3-.5.7-.1.9l5.2 3.1c.4.2 1.1.2 1.6 0l4.8-2.9c.5-.3.5-.7.1-.9zm8 4.7l-5.2-3.1c-.4-.2-1.1-.2-1.6 0l-4.8 2.9c-.5.3-.5.7-.1.9l5.2 3.1c.4.2 1.1.2 1.6 0l4.8-2.9c.5-.2.5-.6.1-.9zm8 4.8l-5.2-3.1c-.4-.2-1.1-.2-1.6 0l-4.8 2.9c-.5.3-.5.7-.1.9l5.2 3.1c.4.2 1.1.2 1.6 0l4.8-2.9c.5-.2.5-.6.1-.9zm8 4.8l-5.2-3.1c-.4-.2-1.1-.2-1.6 0l-4.8 2.9c-.5.3-.5.7-.1.9l5.2 3.1c.4.2 1.1.2 1.6 0l4.8-2.9c.5-.3.5-.7.1-.9zm8 4.7l-5.2-3.1c-.4-.2-1.1-.2-1.6 0l-4.8 2.9c-.5.3-.5.7-.1.9l5.2 3.1c.4.2 1.1.2 1.6 0l4.8-2.9c.5-.2.5-.6.1-.9zm8 4.8l-5.2-3.1c-.4-.2-1.1-.2-1.6 0l-4.8 2.9c-.5.3-.5.7-.1.9l5.2 3.1c.4.2 1.1.2 1.6 0l4.8-2.9c.5-.2.5-.6.1-.9zm14.2 8.5l-11.3-6.7c-.4-.2-1.1-.2-1.6 0l-4.8 2.9c-.5.3-.5.7-.1.9l11.3 6.7c.4.2 1.1.2 1.6 0l4.8-2.9c.5-.2.5-.7.1-.9zm-14.7 8.8l-9.5-5.7c-.4-.2-1.1-.2-1.6 0l-4.8 3c-.5.3-.5.7-.1.9l9.5 5.7c.4.2 1.1.2 1.6 0l4.8-2.9c.5-.3.6-.7.1-1zm-64.6-47.3l-5.2-3.1c-.4-.2-1.1-.2-1.6 0l-4.8 2.9c-.5.3-.5.7-.1.9l5.2 3.1c.4.2 1.1.2 1.6 0l4.8-2.9c.5-.2.5-.6.1-.9zm-8.2-4.9l-5.2-3.1c-.4-.2-1.1-.2-1.6 0l-4.8 2.9c-.5.3-.5.7-.1.9l5.2 3.1c.4.2 1.1.2 1.6 0l4.8-2.9c.5-.2.5-.6.1-.9zm-8.2-4.9l-5.2-3.1c-.4-.2-1.1-.2-1.6 0l-4.8 2.9c-.5.3-.5.7-.1.9l5.2 3.1c.4.2 1.1.2 1.6 0l4.8-2.9c.5-.2.5-.6.1-.9zm-8.2-4.8l-5.2-3.1c-.4-.2-1.1-.2-1.6 0l-4.8 2.9c-.5.3-.5.7-.1.9l5.2 3.1c.4.2 1.1.2 1.6 0l4.8-2.9c.5-.3.5-.7.1-.9zm32.6 19.4l-5.2-3.1c-.4-.2-1.1-.2-1.6 0l-4.8 2.9c-.5.3-.5.7-.1.9l5.2 3.1c.4.2 1.1.2 1.6 0l4.8-2.9c.5-.3.5-.7.1-.9zm8 4.7l-5.2-3.1c-.4-.2-1.1-.2-1.6 0l-4.8 2.9c-.5.3-.5.7-.1.9l5.2 3.1c.4.2 1.1.2 1.6 0l4.8-2.9c.5-.2.5-.6.1-.9zm8 4.8l-5.2-3.1c-.4-.2-1.1-.2-1.6 0l-4.8 2.9c-.5.3-.5.7-.1.9l5.2 3.1c.4.2 1.1.2 1.6 0l4.8-2.9c.5-.2.5-.6.1-.9zm8 4.8l-5.2-3.1c-.4-.2-1.1-.2-1.6 0l-4.8 2.9c-.5.3-.5.7-.1.9l5.2 3.1c.4.2 1.1.2 1.6 0l4.8-2.9c.5-.3.5-.7.1-.9zm8 4.7l-5.2-3.1c-.4-.2-1.1-.2-1.6 0l-4.8 2.9c-.5.3-.5.7-.1.9l5.2 3.1c.4.2 1.1.2 1.6 0l4.8-2.9c.5-.2.5-.6.1-.9zm8 4.8l-5.2-3.1c-.4-.2-1.1-.2-1.6 0l-4.8 2.9c-.5.3-.5.7-.1.9l5.2 3.1c.4.2 1.1.2 1.6 0l4.8-2.9c.5-.2.5-.6.1-.9zm8 4.8l-5.2-3.1c-.4-.2-1.1-.2-1.6 0l-4.8 2.9c-.5.3-.5.7-.1.9l5.2 3.1c.4.2 1.1.2 1.6 0l4.8-2.9c.5-.3.5-.7.1-.9zm8 4.7l-5.2-3.1c-.4-.2-1.1-.2-1.6 0l-4.8 2.9c-.5.3-.5.7-.1.9l5.2 3.1c.4.2 1.1.2 1.6 0l4.8-2.9c.5-.2.5-.6.1-.9zm8 4.8l-5.2-3.1c-.4-.2-1.1-.2-1.6 0l-4.8 2.9c-.5.3-.5.7-.1.9l5.2 3.1c.4.2 1.1.2 1.6 0l4.8-2.9c.5-.2.5-.6.1-.9zm-91.4-45.6l-5.2-3.1c-.4-.2-1.1-.2-1.6 0l-4.8 2.9c-.5.3-.5.7-.1.9l5.2 3.1c.4.2 1.1.2 1.6 0l4.8-2.9c.5-.3.5-.7.1-.9zm-7.9-4.8l-5.2-3.1c-.4-.2-1.1-.2-1.6 0l-4.8 2.9c-.5.3-.5.7-.1.9l5.2 3.1c.4.2 1.1.2 1.6 0l4.8-2.9c.5-.2.5-.6.1-.9zm-8-4.7l-5.2-3.1c-.4-.2-1.1-.2-1.6 0l-4.8 2.9c-.5.3-.5.7-.1.9l5.2 3.1c.4.2 1.1.2 1.6 0l4.8-2.9c.5-.2.5-.7.1-.9zm-8-4.7l-5.2-3.1c-.4-.2-1.1-.2-1.6 0l-4.8 2.9c-.5.3-.5.7-.1.9l5.2 3.1c.4.2 1.1.2 1.6 0l4.8-2.9c.5-.3.6-.7.1-.9zm-7.7 4.6l-5.2-3.1c-.4-.2-1.1-.2-1.6 0l-1.6 1c-.5.3-.5.7-.1.9l5.2 3.1c.4.2 1.1.2 1.6 0l1.6-1c.5-.2.6-.7.1-.9zm10.4 6.2l-5.2-3.1c-.4-.2-1.1-.2-1.6 0l-1.6 1c-.5.3-.5.7-.1.9l5.2 3.1c.4.2 1.1.2 1.6 0l1.6-1c.5-.2.5-.7.1-.9zm8 4.7l-5.2-3.1c-.4-.2-1.1-.2-1.6 0l-1.6 1c-.5.3-.5.7-.1.9l5.2 3.1c.4.2 1.1.2 1.6 0l1.6-1c.4-.2.5-.6.1-.9zm7.9 4.7l-5.2-3.1c-.4-.2-1.1-.2-1.6 0l-1.6 1c-.5.3-.5.7-.1.9l5.2 3.1c.4.2 1.1.2 1.6 0l1.6-1c.5-.2.5-.6.1-.9zm7.9 4.8l-5.2-3.1c-.4-.2-1.1-.2-1.6 0l-1.6 1c-.5.3-.5.7-.1.9l5.2 3.1c.4.2 1.1.2 1.6 0l1.6-1c.5-.3.5-.7.1-.9zm44.3 26.3l-5.2-3.1c-.4-.2-1.1-.2-1.6 0l-1.6 1c-.5.3-.5.7-.1.9l5.2 3.1c.4.2 1.1.2 1.6 0l1.6-1c.5-.2.5-.6.1-.9zm7.9 4.7l-5.2-3.1c-.4-.2-1.1-.2-1.6 0l-1.6 1c-.5.3-.5.7-.1.9l5.2 3.1c.4.2 1.1.2 1.6 0l1.6-1c.5-.2.5-.6.1-.9zm7.9 4.8l-5.2-3.1c-.4-.2-1.1-.2-1.6 0l-1.6 1c-.5.3-.5.7-.1.9l5.2 3.1c.4.2 1.1.2 1.6 0l1.6-1c.5-.3.5-.7.1-.9zm8 4.7l-5.2-3.1c-.4-.2-1.1-.2-1.6 0l-1.6 1c-.5.3-.5.7-.1.9l5.2 3.1c.4.2 1.1.2 1.6 0l1.6-1c.4-.2.5-.7.1-.9zm-62.7-46.6l-5.2-3.1c-.4-.2-1.1-.2-1.6 0l-4.8 2.9c-.5.3-.5.7-.1.9l5.2 3.1c.4.2 1.1.2 1.6 0l4.8-2.9c.5-.2.5-.6.1-.9zm8 4.8l-5.2-3.1c-.4-.2-1.1-.2-1.6 0l-4.8 2.9c-.5.3-.5.7-.1.9l5.2 3.1c.4.2 1.1.2 1.6 0l4.8-2.9c.5-.2.5-.6.1-.9zm8 4.8l-5.2-3.1c-.4-.2-1.1-.2-1.6 0l-4.8 2.9c-.5.3-.5.7-.1.9l5.2 3.1c.4.2 1.1.2 1.6 0l4.8-2.9c.5-.3.6-.7.1-.9zm8 4.7l-5.2-3.1c-.4-.2-1.1-.2-1.6 0l-4.8 2.9c-.5.3-.5.7-.1.9l5.2 3.1c.4.2 1.1.2 1.6 0l4.8-2.9c.5-.2.6-.6.1-.9zm8 4.8l-5.2-3.1c-.4-.2-1.1-.2-1.6 0l-4.8 2.9c-.5.3-.5.7-.1.9l5.2 3.1c.4.2 1.1.2 1.6 0l4.8-2.9c.5-.2.6-.6.1-.9zm8 4.8l-5.2-3.1c-.4-.2-1.1-.2-1.6 0l-4.8 2.9c-.5.3-.5.7-.1.9l5.2 3.1c.4.2 1.1.2 1.6 0l4.8-2.9c.5-.3.6-.7.1-.9zm8 4.7l-5.2-3.1c-.4-.2-1.1-.2-1.6 0l-4.8 2.9c-.5.3-.5.7-.1.9l5.2 3.1c.4.2 1.1.2 1.6 0l4.8-2.9c.5-.2.6-.6.1-.9zm8 4.8l-5.2-3.1c-.4-.2-1.1-.2-1.6 0l-4.8 2.9c-.5.3-.5.7-.1.9l5.2 3.1c.4.2 1.1.2 1.6 0l4.8-2.9c.5-.2.6-.6.1-.9zm8 4.8l-5.2-3.1c-.4-.2-1.1-.2-1.6 0l-4.8 2.9c-.5.3-.5.7-.1.9l5.2 3.1c.4.2 1.1.2 1.6 0l4.8-2.9c.5-.3.6-.7.1-.9zm-64.3-64.7l-15.3-9.1c-.4-.2-1.1-.2-1.6 0l-4.8 2.9c-.5.3-.5.7-.1.9l15.3 9.1c.4.2 1.1.2 1.6 0l4.8-2.9c.4-.3.5-.7.1-.9zm98.2 58.5l-15.3-9.1c-.4-.2-1.1-.2-1.6 0l-4.8 2.9c-.5.3-.5.7-.1.9l15.3 9.1c.4.2 1.1.2 1.6 0l4.8-2.9c.5-.2.6-.6.1-.9zM278 170.6l-5.2-3.1c-.4-.2-1.1-.2-1.6 0l-5.8 3.5c-.5.3-.5.7-.1.9l5.2 3.1c.4.2 1.1.2 1.6 0l5.8-3.5c.5-.2.5-.7.1-.9zM219.9 136l-8.3-4.9c-.4-.2-1.1-.2-1.6 0l-5.8 3.5c-.5.3-.5.7-.1.9l8.3 4.9c.4.2 1.1.2 1.6 0l5.8-3.5c.5-.2.5-.7.1-.9zm50.4 30l-8.3-4.9c-.4-.2-1.1-.2-1.6 0l-5.8 3.5c-.5.3-.5.7-.1.9l8.3 4.9c.4.2 1.1.2 1.6 0l5.8-3.5c.5-.2.5-.6.1-.9zm-38.9-23.1l-8.3-4.9c-.4-.2-1.1-.2-1.6 0l-5.8 3.5c-.5.3-.5.7-.1.9l8.3 4.9c.4.2 1.1.2 1.6 0l5.8-3.5c.5-.3.6-.7.1-.9z"/><path class="st12" d="M215.8 142.4l36 21.5c.4.3 1.2.3 1.6 0l5.9-3.5c.4-.3.4-.7 0-.9l-36-21.5-7.5 4.4zm76.9 41.4l5.8 3.4c.3.2.9.2 1.3 0l2.4-1.4c.4-.2.4-.6.1-.8l-5.8-3.4c-.3-.2-.9-.2-1.3 0l-2.4 1.4c-.4.3-.4.6-.1.8zm-8-4.8l5.8 3.4c.3.2.9.2 1.3 0l2.4-1.4c.4-.2.4-.6.1-.8l-5.8-3.4c-.3-.2-.9-.2-1.3 0l-2.4 1.4c-.4.3-.5.6-.1.8zm-8-4.8l5.8 3.4c.3.2.9.2 1.3 0l2.4-1.4c.4-.2.4-.6.1-.8l-5.8-3.4c-.3-.2-.9-.2-1.3 0l-2.4 1.4c-.4.3-.5.6-.1.8zm3.8 7.3l5.8 3.4c.3.2.9.2 1.3 0l2.4-1.4c.4-.2.4-.6.1-.8l-5.8-3.4c-.3-.2-.9-.2-1.3 0l-2.4 1.4c-.4.3-.4.6-.1.8z"/></g></g></g><path class="st2" d="M80 186.2l-5.1-3.1c-.4-.2-.4-.7.1-1l6.1-3.6c.5-.3 1.2-.3 1.6-.1l5.1 3.1c.4.2.4.7-.1 1l-6.1 3.6c-.4.4-1.1.4-1.6.1zm8 4.8l-5.1-3.1c-.4-.2-.4-.7.1-1l6.1-3.6c.5-.3 1.2-.3 1.6-.1l5.1 3.1c.4.2.4.7-.1 1l-6.1 3.6c-.5.3-1.2.3-1.6.1zm7.9 4.7l-5.1-3.1c-.4-.2-.4-.7.1-1L97 188c.5-.3 1.2-.3 1.6-.1l5.1 3.1c.4.2.4.7-.1 1l-6.1 3.6c-.5.3-1.2.3-1.6.1zm10.9-3.9l-5.1-3.1c-.4-.2-.4-.7.1-1l5.1-3c.5-.3 1.2-.3 1.6-.1l5.1 3.1c.4.2.4.7-.1 1l-5.1 3c-.4.3-1.1.3-1.6.1zm8 4.7l-5.1-3.1c-.4-.2-.4-.7.1-1l5.1-3c.5-.3 1.2-.3 1.6-.1l5.1 3.1c.4.2.4.7-.1 1l-5.1 3c-.5.3-1.2.4-1.6.1zm7.9 4.7l-5.1-3.1c-.4-.2-.4-.7.1-1l5.1-3c.5-.3 1.2-.3 1.6-.1l5.1 3.1c.4.2.4.7-.1 1l-5.1 3c-.5.3-1.2.4-1.6.1zm7.9 4.7l-5.1-3.1c-.4-.2-.4-.7.1-1l5.1-3c.5-.3 1.2-.3 1.6-.1l5.1 3.1c.4.2.4.7-.1 1l-5.1 3c-.4.4-1.2.4-1.6.1zm7.9 4.8l-5.1-3.1c-.4-.2-.4-.7.1-1l5.1-3c.5-.3 1.2-.3 1.6-.1l5.1 3.1c.4.2.4.7-.1 1l-5.1 3c-.4.3-1.1.3-1.6.1zm8 4.7l-5.1-3.1c-.4-.2-.4-.7.1-1l5.1-3c.5-.3 1.2-.3 1.6-.1l5.1 3.1c.4.2.4.7-.1 1l-5.1 3c-.5.3-1.2.3-1.6.1zm7.9 4.7l-5.1-3.1c-.4-.2-.4-.7.1-1l5.1-3c.5-.3 1.2-.3 1.6-.1l5.1 3.1c.4.2.4.7-.1 1l-5.1 3c-.5.3-1.2.4-1.6.1zm7.9 4.7l-5.1-3.1c-.4-.2-.4-.7.1-1l5.1-3c.5-.3 1.2-.3 1.6-.1l5.1 3.1c.4.2.4.7-.1 1l-5.1 3c-.5.3-1.2.4-1.6.1zm7.9 4.7l-5.1-3.1c-.4-.2-.4-.7.1-1l5.1-3c.5-.3 1.2-.3 1.6-.1l5.1 3.1c.4.2.4.7-.1 1l-5.1 3c-.4.4-1.2.4-1.6.1zm8 4.8l-5.1-3.1c-.4-.2-.4-.7.1-1l5.1-3c.5-.3 1.2-.3 1.6-.1l5.1 3.1c.4.2.4.7-.1 1l-5.1 3c-.5.3-1.2.3-1.6.1zm-59.7-44.7l-5.1-3.1c-.4-.2-.4-.7.1-1l5.1-3c.5-.3 1.2-.3 1.6-.1l5.1 3.1c.4.2.4.7-.1 1l-5.1 3c-.4.3-1.2.3-1.6.1zm-8-4.8l-5.1-3.1c-.4-.2-.4-.7.1-1l5.1-3c.5-.3 1.2-.3 1.6-.1l5.1 3.1c.4.2.4.7-.1 1l-5.1 3c-.5.3-1.2.3-1.6.1zm-8.1-4.8l-11.1-6.6c-.4-.2-.4-.7.1-1l5.1-3c.5-.3 1.2-.3 1.6-.1l11.1 6.6c.4.2.4.7-.1 1l-5.1 3c-.4.3-1.2.3-1.6.1zm5.7-5.9l-9-5.3c-.4-.2-.4-.7.1-1l5.1-3c.5-.3 1.2-.3 1.6-.1l9 5.3c.4.2.4.7-.1 1l-5.1 3c-.5.3-1.2.4-1.6.1zm18.3 20.2l-5.1-3.1c-.4-.2-.4-.7.1-1l5.1-3c.5-.3 1.2-.3 1.6-.1l5.1 3.1c.4.2.4.7-.1 1l-5.1 3c-.4.3-1.1.3-1.6.1zm8 4.7l-5.1-3.1c-.4-.2-.4-.7.1-1l5.1-3c.5-.3 1.2-.3 1.6-.1l5.1 3.1c.4.2.4.7-.1 1l-5.1 3c-.5.3-1.2.3-1.6.1zm7.9 4.7l-5.1-3.1c-.4-.2-.4-.7.1-1l5.1-3c.5-.3 1.2-.3 1.6-.1l5.1 3.1c.4.2.4.7-.1 1l-5.1 3c-.5.3-1.2.4-1.6.1zm7.9 4.7l-5.1-3.1c-.4-.2-.4-.7.1-1l5.1-3c.5-.3 1.2-.3 1.6-.1l5.1 3.1c.4.2.4.7-.1 1l-5.1 3c-.5.3-1.2.4-1.6.1zm7.9 4.8l-5.1-3.1c-.4-.2-.4-.7.1-1l5.1-3c.5-.3 1.2-.3 1.6-.1l5.1 3.1c.4.2.4.7-.1 1l-5.1 3c-.4.3-1.1.3-1.6.1zm8 4.7l-5.1-3.1c-.4-.2-.4-.7.1-1l5.1-3c.5-.3 1.2-.3 1.6-.1l5.1 3.1c.4.2.4.7-.1 1l-5.1 3c-.5.3-1.2.3-1.6.1zm7.9 4.7l-5.1-3.1c-.4-.2-.4-.7.1-1l5.1-3c.5-.3 1.2-.3 1.6-.1l5.1 3.1c.4.2.4.7-.1 1l-5.1 3c-.5.3-1.2.3-1.6.1zm7.9 4.7l-5.1-3.1c-.4-.2-.4-.7.1-1l5.1-3c.5-.3 1.2-.3 1.6-.1l5.1 3.1c.4.2.4.7-.1 1l-5.1 3c-.5.3-1.2.4-1.6.1zm7.9 4.7l-5.1-3.1c-.4-.2-.4-.7.1-1l5.1-3c.5-.3 1.2-.3 1.6-.1l5.1 3.1c.4.2.4.7-.1 1l-5.1 3c-.4.3-1.2.4-1.6.1zm14.1 8.4l-11.2-6.7c-.4-.2-.4-.7.1-1l5.1-3c.5-.3 1.2-.3 1.6-.1l11.2 6.7c.4.2.4.7-.1 1l-5.1 3c-.4.3-1.2.4-1.6.1zm15.5-9.2l-9.4-5.6c-.4-.2-.4-.7.1-1l5.1-3c.5-.3 1.2-.3 1.6-.1l9.4 5.6c.4.2.4.7-.1 1l-5.1 3c-.5.3-1.2.4-1.6.1zm-79.1-37.9l-5.1-3.1c-.4-.2-.4-.7.1-1l5.1-3c.5-.3 1.2-.3 1.6-.1l5.1 3.1c.4.2.4.7-.1 1l-5.1 3c-.4.4-1.2.4-1.6.1zm-8.1-4.8l-5.1-3.1c-.4-.2-.4-.7.1-1l5.1-3c.5-.3 1.2-.3 1.6-.1l5.1 3.1c.4.2.4.7-.1 1l-5.1 3c-.5.3-1.2.4-1.6.1zm-8.1-4.8l-5.1-3.1c-.4-.2-.4-.7.1-1l5.1-3c.5-.3 1.2-.3 1.6-.1l5.1 3.1c.4.2.4.7-.1 1l-5.1 3c-.5.3-1.2.3-1.6.1zm-8.1-4.9l-5.1-3.1c-.4-.2-.4-.7.1-1l5.1-3c.5-.3 1.2-.3 1.6-.1l5.1 3.1c.4.2.4.7-.1 1l-5.1 3c-.5.3-1.2.4-1.6.1zm32.2 19.3l-5.1-3.1c-.4-.2-.4-.7.1-1l5.1-3c.5-.3 1.2-.3 1.6-.1l5.1 3.1c.4.2.4.7-.1 1l-5.1 3c-.4.3-1.1.3-1.6.1zm8 4.7l-5.1-3.1c-.4-.2-.4-.7.1-1l5.1-3c.5-.3 1.2-.3 1.6-.1l5.1 3.1c.4.2.4.7-.1 1l-5.1 3c-.5.3-1.2.3-1.6.1zm7.9 4.7l-5.1-3.1c-.4-.2-.4-.7.1-1l5.1-3c.5-.3 1.2-.3 1.6-.1l5.1 3.1c.4.2.4.7-.1 1l-5.1 3c-.5.3-1.2.4-1.6.1zm7.9 4.7l-5.1-3.1c-.4-.2-.4-.7.1-1l5.1-3c.5-.3 1.2-.3 1.6-.1l5.1 3.1c.4.2.4.7-.1 1l-5.1 3c-.5.3-1.2.4-1.6.1zm7.9 4.7l-5.1-3.1c-.4-.2-.4-.7.1-1l5.1-3c.5-.3 1.2-.3 1.6-.1l5.1 3.1c.4.2.4.7-.1 1l-5.1 3c-.4.4-1.1.4-1.6.1zm8 4.8l-5.1-3.1c-.4-.2-.4-.7.1-1l5.1-3c.5-.3 1.2-.3 1.6-.1l5.1 3.1c.4.2.4.7-.1 1l-5.1 3c-.5.3-1.2.3-1.6.1zm7.9 4.7l-5.1-3.1c-.4-.2-.4-.7.1-1l5.1-3c.5-.3 1.2-.3 1.6-.1l5.1 3.1c.4.2.4.7-.1 1l-5.1 3c-.5.3-1.2.3-1.6.1zm7.9 4.7l-5.1-3.1c-.4-.2-.4-.7.1-1l5.1-3c.5-.3 1.2-.3 1.6-.1l5.1 3.1c.4.2.4.7-.1 1l-5.1 3c-.5.3-1.2.4-1.6.1zm7.9 4.7l-5.1-3.1c-.4-.2-.4-.7.1-1l5.1-3c.5-.3 1.2-.3 1.6-.1l5.1 3.1c.4.2.4.7-.1 1l-5.1 3c-.4.3-1.2.4-1.6.1zm-75.4-54.1l-5.1-3.1c-.4-.2-.4-.7.1-1l5.1-3c.5-.3 1.2-.3 1.6-.1l5.1 3.1c.4.2.4.7-.1 1l-5.1 3c-.5.3-1.2.3-1.6.1zm-7.9-4.7l-5.1-3.1c-.4-.2-.4-.7.1-1l5.1-3c.5-.3 1.2-.3 1.6-.1l5.1 3.1c.4.2.4.7-.1 1l-5.1 3c-.5.3-1.2.3-1.6.1zm-7.9-4.7l-5.1-3.1c-.4-.2-.4-.7.1-1l5.1-3c.5-.3 1.2-.3 1.6-.1l5.1 3.1c.4.2.4.7-.1 1l-5.1 3c-.5.3-1.2.3-1.6.1zm-7.9-4.7l-5.1-3.1c-.4-.2-.4-.7.1-1l5.1-3c.5-.3 1.2-.3 1.6-.1l5.1 3.1c.4.2.4.7-.1 1l-5.1 3c-.5.3-1.2.3-1.6.1zm8.1-4.8l-5.1-3.1c-.4-.2-.4-.7.1-1l1.7-1c.5-.3 1.2-.3 1.6-.1l5.1 3.1c.4.2.4.7-.1 1l-1.7 1c-.5.3-1.2.3-1.6.1zm10.3 6.1l-5.1-3.1c-.4-.2-.4-.7.1-1l1.7-1c.5-.3 1.2-.3 1.6-.1l5.1 3.1c.4.2.4.7-.1 1l-1.7 1c-.5.3-1.2.3-1.6.1zm7.8 4.7l-5.1-3.1c-.4-.2-.4-.7.1-1l1.7-1c.5-.3 1.2-.3 1.6-.1l5.1 3.1c.4.2.4.7-.1 1l-1.7 1c-.4.3-1.1.3-1.6.1zm7.9 4.6l-5.1-3.1c-.4-.2-.4-.7.1-1l1.7-1c.5-.3 1.2-.3 1.6-.1l5.1 3.1c.4.2.4.7-.1 1l-1.7 1c-.5.4-1.2.4-1.6.1zm7.8 4.7l-5.1-3.1c-.4-.2-.4-.7.1-1l1.7-1c.5-.3 1.2-.3 1.6-.1l5.1 3.1c.4.2.4.7-.1 1l-1.7 1c-.4.3-1.1.4-1.6.1zm43.9 26.1l-5.1-3.1c-.4-.2-.4-.7.1-1l1.7-1c.5-.3 1.2-.3 1.6-.1l5.1 3.1c.4.2.4.7-.1 1l-1.7 1c-.5.3-1.2.4-1.6.1zm7.8 4.7l-5.1-3.1c-.4-.2-.4-.7.1-1l1.7-1c.5-.3 1.2-.3 1.6-.1l5.1 3.1c.4.2.4.7-.1 1l-1.7 1c-.4.3-1.2.3-1.6.1zm7.9 4.7l-5.1-3.1c-.4-.2-.4-.7.1-1l1.7-1c.5-.3 1.2-.3 1.6-.1l5.1 3.1c.4.2.4.7-.1 1l-1.7 1c-.5.3-1.2.3-1.6.1zm7.8 4.7l-5.1-3.1c-.4-.2-.4-.7.1-1l1.7-1c.5-.3 1.2-.3 1.6-.1l5.1 3.1c.4.2.4.7-.1 1l-1.7 1c-.4.3-1.2.3-1.6.1zm-77.7-36.7l-5.1-3.1c-.4-.2-.4-.7.1-1l5.1-3c.5-.3 1.2-.3 1.6-.1l5.1 3.1c.4.2.4.7-.1 1l-5.1 3c-.5.3-1.2.3-1.6.1zm7.9 4.7l-5.1-3.1c-.4-.2-.4-.7.1-1l5.1-3c.5-.3 1.2-.3 1.6-.1l5.1 3.1c.4.2.4.7-.1 1l-5.1 3c-.5.3-1.2.4-1.6.1zm7.9 4.7l-5.1-3.1c-.4-.2-.4-.7.1-1l5.1-3c.5-.3 1.2-.3 1.6-.1l5.1 3.1c.4.2.4.7-.1 1l-5.1 3c-.4.3-1.2.4-1.6.1zm7.9 4.8l-5.1-3.1c-.4-.2-.4-.7.1-1l5.1-3c.5-.3 1.2-.3 1.6-.1l5.1 3.1c.4.2.4.7-.1 1l-5.1 3c-.4.3-1.1.3-1.6.1zm8 4.7l-5.1-3.1c-.4-.2-.4-.7.1-1l5.1-3c.5-.3 1.2-.3 1.6-.1l5.1 3.1c.4.2.4.7-.1 1l-5.1 3c-.5.3-1.2.3-1.6.1zm7.9 4.7l-5.1-3.1c-.4-.2-.4-.7.1-1l5.1-3c.5-.3 1.2-.3 1.6-.1l5.1 3.1c.4.2.4.7-.1 1l-5.1 3c-.5.3-1.2.3-1.6.1zm7.9 4.7l-5.1-3.1c-.4-.2-.4-.7.1-1l5.1-3c.5-.3 1.2-.3 1.6-.1l5.1 3.1c.4.2.4.7-.1 1l-5.1 3c-.5.3-1.2.4-1.6.1zm7.9 4.7l-5.1-3.1c-.4-.2-.4-.7.1-1l5.1-3c.5-.3 1.2-.3 1.6-.1l5.1 3.1c.4.2.4.7-.1 1l-5.1 3c-.4.3-1.1.4-1.6.1zm8 4.8l-5.1-3.1c-.4-.2-.4-.7.1-1l5.1-3c.5-.3 1.2-.3 1.6-.1l5.1 3.1c.4.2.4.7-.1 1l-5.1 3c-.5.3-1.2.3-1.6.1zM98.8 187l-15.1-9c-.4-.2-.4-.7.1-1l5.1-3c.5-.3 1.2-.3 1.6-.1l15.1 9c.4.2.4.7-.1 1l-5.1 3c-.5.3-1.2.3-1.6.1zm97.3 58l-15.1-9c-.4-.2-.4-.7.1-1l5.1-3c.5-.3 1.2-.3 1.6-.1l15.1 9c.4.2.4.7-.1 1l-5.1 3c-.5.3-1.2.3-1.6.1zm-31.7-8.5l-5.1-3.1c-.4-.2-.4-.7.1-1l6.1-3.6c.5-.3 1.2-.3 1.6-.1l5.1 3.1c.4.2.4.7-.1 1l-6.1 3.6c-.4.3-1.2.4-1.6.1zm-57.5-34.3l-8.2-4.9c-.4-.2-.4-.7.1-1l6.1-3.6c.5-.3 1.2-.3 1.6-.1l8.2 4.9c.4.2.4.7-.1 1l-6.1 3.6c-.5.3-1.2.4-1.6.1zm49.9 29.8l-8.2-4.9c-.4-.2-.4-.7.1-1l6.1-3.6c.5-.3 1.2-.3 1.6-.1l8.2 4.9c.4.2.4.7-.1 1l-6.1 3.6c-.5.3-1.2.3-1.6.1zm-38.5-23l-8.2-4.9c-.4-.2-.4-.7.1-1l6.1-3.6c.5-.3 1.2-.3 1.6-.1l8.2 4.9c.4.2.4.7-.1 1l-6.1 3.6c-.4.4-1.2.4-1.6.1z"/><path class="st2" d="M117.9 199.6l35.7 21.3c.4.3.4.7 0 1l-6.2 3.7c-.4.3-1.2.3-1.6 0l-35.7-21.3 7.8-4.7zm68.7 45.5l5.7 3.4c.3.2.3.6-.1.8l-2.5 1.5c-.4.2-1 .3-1.3.1l-5.7-3.4c-.3-.2-.3-.6.1-.8l2.5-1.5c.3-.3.9-.3 1.3-.1zm-8-4.8l5.7 3.4c.3.2.3.6-.1.8l-2.5 1.5c-.4.2-1 .3-1.3.1l-5.7-3.4c-.3-.2-.3-.6.1-.8l2.5-1.5c.4-.3.9-.3 1.3-.1zm-7.9-4.7l5.7 3.4c.3.2.3.6-.1.8l-2.5 1.5c-.4.2-1 .3-1.3.1l-5.7-3.4c-.3-.2-.3-.6.1-.8l2.5-1.5c.3-.3.9-.3 1.3-.1zm12.3 2.1l5.7 3.4c.3.2.3.6-.1.8l-2.5 1.5c-.4.2-1 .3-1.3.1l-5.7-3.4c-.3-.2-.3-.6.1-.8l2.5-1.5c.3-.3.9-.3 1.3-.1z"/><path d="M153 42.4l-3.5-2.1.3-1.7 3.5 2.1zm5.1 3l-3.5-2.1.3-1.6 3.5 2zm-10.1-6l-7.7-4.6.3-1.7 7.7 4.6z" fill="#42e8e0"/></svg>