<svg version="1.1" id="Слой_1" xmlns="http://www.w3.org/2000/svg" x="0" y="0" viewBox="0 0 134.9 65" xml:space="preserve"><style>.st5{enable-background:new}.st6{fill:#fff}</style><path d="M80.6 6.2c-.7 0-1.2-.6-1.2-1.3 0-.7.5-1.3 1.2-1.3s1.2.6 1.2 1.3c0 .7-.6 1.3-1.2 1.3zm11.4 0c-.7 0-1.2-.6-1.2-1.3 0-.7.5-1.3 1.2-1.3s1.2.6 1.2 1.3c0 .7-.5 1.3-1.2 1.3zm11.4 0c-.7 0-1.2-.6-1.2-1.3 0-.7.5-1.3 1.2-1.3s1.2.6 1.2 1.3c0 .7-.5 1.3-1.2 1.3zm11.4 0c-.7 0-1.2-.6-1.2-1.3 0-.7.5-1.3 1.2-1.3s1.2.6 1.2 1.3c0 .7-.5 1.3-1.2 1.3zm11.4 0c-.7 0-1.2-.6-1.2-1.3 0-.7.5-1.3 1.2-1.3s1.2.6 1.2 1.3c0 .7-.5 1.3-1.2 1.3zm11.4 0c-.7 0-1.2-.6-1.2-1.3 0-.7.5-1.3 1.2-1.3s1.2.6 1.2 1.3c0 .7-.5 1.3-1.2 1.3zm-57 11.3c-.7 0-1.2-.6-1.2-1.3 0-.7.5-1.3 1.2-1.3s1.2.6 1.2 1.3c0 .7-.6 1.3-1.2 1.3zm11.4 0c-.7 0-1.2-.6-1.2-1.3 0-.7.5-1.3 1.2-1.3s1.2.6 1.2 1.3c0 .7-.5 1.3-1.2 1.3zm11.4 0c-.7 0-1.2-.6-1.2-1.3 0-.7.5-1.3 1.2-1.3s1.2.6 1.2 1.3c0 .7-.5 1.3-1.2 1.3zm11.4 0c-.7 0-1.2-.6-1.2-1.3 0-.7.5-1.3 1.2-1.3s1.2.6 1.2 1.3c0 .7-.5 1.3-1.2 1.3zm11.4 0c-.7 0-1.2-.6-1.2-1.3 0-.7.5-1.3 1.2-1.3s1.2.6 1.2 1.3c0 .7-.5 1.3-1.2 1.3zm11.4 0c-.7 0-1.2-.6-1.2-1.3 0-.7.5-1.3 1.2-1.3s1.2.6 1.2 1.3c0 .7-.5 1.3-1.2 1.3zm-57 11.4c-.7 0-1.2-.6-1.2-1.3 0-.7.5-1.3 1.2-1.3s1.2.6 1.2 1.3c0 .7-.6 1.3-1.2 1.3zm11.4 0c-.7 0-1.2-.6-1.2-1.3 0-.7.5-1.3 1.2-1.3s1.2.6 1.2 1.3c0 .7-.5 1.3-1.2 1.3zm11.4 0c-.7 0-1.2-.6-1.2-1.3 0-.7.5-1.3 1.2-1.3s1.2.6 1.2 1.3c0 .7-.5 1.3-1.2 1.3zm11.4 0c-.7 0-1.2-.6-1.2-1.3 0-.7.5-1.3 1.2-1.3s1.2.6 1.2 1.3c0 .7-.5 1.3-1.2 1.3zm11.4 0c-.7 0-1.2-.6-1.2-1.3 0-.7.5-1.3 1.2-1.3s1.2.6 1.2 1.3c0 .7-.5 1.3-1.2 1.3zm11.4 0c-.7 0-1.2-.6-1.2-1.3 0-.7.5-1.3 1.2-1.3s1.2.6 1.2 1.3c0 .7-.5 1.3-1.2 1.3zm-57 11.4c-.7 0-1.2-.6-1.2-1.3 0-.7.5-1.3 1.2-1.3s1.2.6 1.2 1.3c0 .7-.6 1.3-1.2 1.3zm11.4 0c-.7 0-1.2-.6-1.2-1.3 0-.7.5-1.3 1.2-1.3s1.2.6 1.2 1.3c0 .7-.5 1.3-1.2 1.3zm11.4 0c-.7 0-1.2-.6-1.2-1.3 0-.7.5-1.3 1.2-1.3s1.2.6 1.2 1.3c0 .7-.5 1.3-1.2 1.3zm11.4 0c-.7 0-1.2-.6-1.2-1.3 0-.7.5-1.3 1.2-1.3s1.2.6 1.2 1.3c0 .7-.5 1.3-1.2 1.3zm11.4 0c-.7 0-1.2-.6-1.2-1.3 0-.7.5-1.3 1.2-1.3s1.2.6 1.2 1.3c0 .7-.5 1.3-1.2 1.3zm11.4 0c-.7 0-1.2-.6-1.2-1.3 0-.7.5-1.3 1.2-1.3s1.2.6 1.2 1.3c0 .7-.5 1.3-1.2 1.3zm-57 11.3c-.7 0-1.2-.6-1.2-1.3 0-.7.5-1.3 1.2-1.3s1.2.6 1.2 1.3c0 .7-.6 1.3-1.2 1.3zm11.4 0c-.7 0-1.2-.6-1.2-1.3 0-.7.5-1.3 1.2-1.3s1.2.6 1.2 1.3c0 .7-.5 1.3-1.2 1.3zm11.4 0c-.7 0-1.2-.6-1.2-1.3 0-.7.5-1.3 1.2-1.3s1.2.6 1.2 1.3c0 .7-.5 1.3-1.2 1.3zm11.4 0c-.7 0-1.2-.6-1.2-1.3 0-.7.5-1.3 1.2-1.3s1.2.6 1.2 1.3c0 .7-.5 1.3-1.2 1.3zm11.4 0c-.7 0-1.2-.6-1.2-1.3 0-.7.5-1.3 1.2-1.3s1.2.6 1.2 1.3c0 .7-.5 1.3-1.2 1.3zm11.4 0c-.7 0-1.2-.6-1.2-1.3 0-.7.5-1.3 1.2-1.3s1.2.6 1.2 1.3c0 .7-.5 1.3-1.2 1.3zM80.6 63c-.7 0-1.2-.6-1.2-1.3s.5-1.3 1.2-1.3 1.2.6 1.2 1.3-.6 1.3-1.2 1.3zM92 63c-.7 0-1.2-.6-1.2-1.3s.5-1.3 1.2-1.3 1.2.6 1.2 1.3S92.7 63 92 63zm11.4 0c-.7 0-1.2-.6-1.2-1.3s.5-1.3 1.2-1.3 1.2.6 1.2 1.3-.5 1.3-1.2 1.3zm11.4 0c-.7 0-1.2-.6-1.2-1.3s.5-1.3 1.2-1.3 1.2.6 1.2 1.3-.5 1.3-1.2 1.3zm11.4 0c-.7 0-1.2-.6-1.2-1.3s.5-1.3 1.2-1.3 1.2.6 1.2 1.3-.5 1.3-1.2 1.3zm11.4 0c-.7 0-1.2-.6-1.2-1.3s.5-1.3 1.2-1.3 1.2.6 1.2 1.3-.5 1.3-1.2 1.3z" fill="#0b315e"/><path d="M94.5 25.9v13.3C94.5 53.4 83 65 68.7 65H20.8c-1.6 0-3-1.1-3.4-2.7L4.2 8.7c-.3-1.4-.3-2.9.4-4.1C7.6-.5 15 0 20.8 0h48C83 0 94.5 11.6 94.5 25.9z" fill="#2f4880"/><g class="st5"><path class="st6" d="M23.7 56.6l-11.6-48c-.3-1.3.2-2.1 1.2-2.1h7c.8 0 1.4.4 1.6 1.5l7.9 36.4 8-36.3c.2-1.1.8-1.5 1.6-1.5h7c1 0 1.5.8 1.2 2.1L36 56.7c-.2 1-.8 1.5-1.6 1.5h-9.1c-.8 0-1.3-.6-1.6-1.6z"/></g><g class="st5"><path class="st6" d="M88.1 32.4c0 14.6-8.4 25.8-19.4 25.8H53.1c-.9 0-1.4-.7-1.4-1.8v-48c0-1.2.5-1.8 1.4-1.8h15.7c10.9 0 19.3 11.2 19.3 25.8zm-8.8 0C79.3 23.6 75 18 68.7 18h-8v28.9h8c6.3-.1 10.6-5.7 10.6-14.5z"/></g></svg>