<svg height="681pt" viewBox="-21 -55 681.33464 681" width="681pt" xmlns="http://www.w3.org/2000/svg" style="fill:#0E5481;"><path d="m87.378906 284.859375c-1.933594 0-3.875-.445313-5.664062-1.359375-4.179688-2.128906-6.8125-6.421875-6.8125-11.113281v-40.640625h-27.871094c-25.886719 0-46.9492188-16.835938-46.9492188-37.539063v-158.746093c0-20.695313 21.0624998-37.539063 46.9492188-37.539063h367.699219c25.886719 0 46.949219 16.84375 46.949219 37.539063v158.746093c0 20.703125-21.0625 37.539063-46.949219 37.539063h-250.25l-69.769531 50.726562c-2.171876 1.578125-4.746094 2.386719-7.332032 2.386719zm-40.347656-261.988281c-12.589844 0-21.996094 6.648437-21.996094 12.589844v158.746093c0 5.945313 9.40625 12.589844 21.996094 12.589844h40.347656c6.886719 0 12.476563 5.589844 12.476563 12.472656v28.621094l53.230469-38.707031c2.128906-1.550782 4.695312-2.382813 7.332031-2.382813h254.3125c12.59375 0 22-6.648437 22-12.59375v-158.746093c0-5.941407-9.40625-12.589844-22-12.589844zm0 0"/><path d="m374.394531 96.957031h-237.65625c-6.890625 0-12.472656-5.585937-12.472656-12.476562s5.582031-12.476563 12.472656-12.476563h237.65625c6.890625 0 12.476563 5.585938 12.476563 12.476563s-5.585938 12.476562-12.476563 12.476562zm0 0"/><path d="m87.386719 96.957031c-6.890625 0-12.484375-5.585937-12.484375-12.476562s5.582031-12.476563 12.472656-12.476563h.011719c6.890625 0 12.476562 5.585938 12.476562 12.476563s-5.585937 12.476562-12.476562 12.476562zm0 0"/><path d="m375.804688 156.324219h-287.039063c-6.890625 0-12.472656-5.585938-12.472656-12.476563s5.582031-12.476562 12.472656-12.476562h287.039063c6.890624 0 12.476562 5.585937 12.476562 12.476562s-5.585938 12.476563-12.476562 12.476563zm0 0"/><path d="m551.542969 569.304688c-2.773438 0-5.519531-.925782-7.773438-2.71875l-69.632812-55.453126h-249.949219c-25.886719 0-46.949219-17.910156-46.949219-39.925781v-173.867187c0-22.015625 21.0625-39.925782 46.949219-39.925782h367.699219c25.886719 0 46.949219 17.910157 46.949219 39.925782v173.867187c0 22.015625-21.0625 39.925781-46.949219 39.925781h-27.871094v45.695313c0 4.792969-2.746094 9.15625-7.058594 11.238281-1.722656.828125-3.574219 1.238282-5.414062 1.238282zm-327.355469-286.9375c-11.722656 0-22 6.996093-22 14.972656v173.867187c0 7.976563 10.277344 14.972657 22 14.972657h254.3125c2.820312 0 5.558594.960937 7.765625 2.71875l52.796875 42.046874v-32.289062c0-6.886719 5.585938-12.476562 12.476562-12.476562h40.347657c11.71875 0 21.996093-6.996094 21.996093-14.972657v-173.867187c0-7.976563-10.277343-14.972656-21.996093-14.972656zm0 0"/><path d="m551.519531 359.40625h-286.96875c-6.886719 0-12.476562-5.582031-12.476562-12.472656 0-6.886719 5.589843-12.476563 12.476562-12.476563h286.96875c6.886719 0 12.476563 5.589844 12.476563 12.476563 0 6.890625-5.589844 12.472656-12.476563 12.472656zm0 0"/><path d="m551.519531 434.203125h-286.96875c-6.886719 0-12.476562-5.589844-12.476562-12.476563 0-6.890624 5.589843-12.476562 12.476562-12.476562h286.96875c6.886719 0 12.476563 5.585938 12.476563 12.476562 0 6.886719-5.589844 12.476563-12.476563 12.476563zm0 0"/></svg>